<?xml version="1.0" encoding="utf-8"?>
<svg xmlns="http://www.w3.org/2000/svg" viewBox="104.83 68.22 1059.68 188.54" preserveAspectRatio="xMidYMid meet">
<style type="text/css">
	.st0{fill:#f6eadf;}
	.st1{fill:#e8511b;}
</style>
<path class="st0" d="M158.39,248.72c-14.21,0-25.36-3.36-33.13-9.97c-7.82-6.66-11.99-15.52-12.39-26.34
	c-0.41-11.32,2.63-23.61,9.05-36.53c6.43-12.93,15.44-23.9,26.79-32.59c11.27-8.63,23.76-13.05,37.13-13.13l0.36,0
	c10.38,0,18.48,2.74,24.06,8.15c5.65,5.48,8.67,12.37,8.96,20.49c0.2,5.56-0.93,11.22-3.37,16.81c-3.76,8.6-7.93,14.49-12.41,17.49
	c-4.3,2.88-9.86,4.35-16.52,4.35l-0.67,0c-10.19-0.39-15.27-3.69-15.5-10.09c-0.23-6.24,3.99-15.33,12.54-27l0.12-0.2
	c0.47-1.02,0.62-1.5,0.6-1.94c-0.03-0.88-0.41-1.67-1.12-2.35c-0.7-0.66-1.59-1.01-2.59-1.01c-1.18,0.01-2.26,0.67-3.34,2.04
	c-3.45,4.44-6.97,10.25-10.47,17.27c-2.97,5.87-4.39,11.34-4.21,16.25c0.18,4.91,1.86,8.88,5,11.79c3.08,2.86,7.82,4.31,14.08,4.31
	l0.45,0c8.27-0.05,18.28-2.2,29.76-6.39l2.17-0.8l0.35-0.37l0.66-2.13c2.48-7.67,5.78-16.08,9.81-25
	c10.91-24.14,24.31-45.66,39.83-63.97c15.32-18.07,29.15-27.28,41.11-27.35c0.91,0,2.11,0.15,3.61,0.43
	c6.47,1.27,9.7,4.35,9.89,9.43c0.2,5.49-2.28,12.48-7.38,20.77c-5.21,8.48-12.83,19.33-22.68,32.25l-7.88,10.71l-0.07,0.13
	l-0.63,1.61l-0.04,0.23l0.01,0.18c0.03,0.92,0.71,1.91,2.1,1.91c0.92-0.01,1.73-0.51,2.48-1.54c7.45-7.74,15.87-14.33,24.97-19.53
	c9.02-5.15,17.87-7.79,26.32-7.84l0.13,0c7.21,0,10.7,3.52,10.98,11.09c0.25,6.7-1.84,15.42-6.21,25.94
	c-4.4,10.61-9.46,20.45-15.05,29.24c-0.46,0.56-0.49,1.35-0.47,1.88c0.04,1.08,0.63,1.94,1.59,2.3c0.22,0.09,0.47,0.13,0.74,0.13
	c0.52,0,1.17-0.17,2.05-0.53c3.72-1.51,5.98-3.72,8.83-6.52c0.86-0.84,1.75-2.32,2.09-3.43c0.13-0.42,0.26-0.83,0.39-1.24
	c1.43-4.46,3.31-9.03,5.58-13.6c6.43-12.93,15.44-23.9,26.79-32.6c11.27-8.63,23.76-13.05,37.13-13.13l0.37,0
	c10.38,0,18.47,2.7,24.05,8.03c5.64,5.4,8.65,12.25,8.95,20.36c0.25,6.81-1.32,13.5-4.67,19.88c-3.35,6.39-8.33,11.73-14.8,15.89
	c-6.46,4.15-14.16,6.28-22.9,6.33l-0.52,0c-6.12,0-11.25-0.98-15.24-2.92c-0.63-0.28-2.05-0.92-3.43-0.92
	c-1.07,0-1.91,0.37-2.49,1.11c-0.53,0.6-0.56,1.41-0.54,1.97c0.05,1.39,1.1,2.63,3.3,3.9c4.92,2.63,10.93,3.95,17.89,3.95l0.47,0
	c9.33-0.06,20.68-2.43,33.71-7.06l0.98-0.35l1.01-0.37l0.36-0.44c0,0,0.13-0.79,0.18-1.04c0.05-0.25,0.1-0.5,0.15-0.75l0.06-0.29
	c1.42-7.13,4.05-14.58,7.82-22.15c6.43-12.93,15.44-23.9,26.79-32.59c11.27-8.63,23.76-13.05,37.13-13.13l0.37,0
	c10.38,0,18.47,2.7,24.05,8.03c5.64,5.4,8.65,12.25,8.95,20.36c0.25,6.81-1.32,13.5-4.67,19.88c-3.35,6.38-8.33,11.73-14.8,15.88
	c-6.46,4.15-14.16,6.28-22.9,6.33l-0.54,0c-6.1,0-11.23-0.98-15.22-2.92c-0.63-0.28-2.05-0.92-3.43-0.92
	c-1.07,0-1.91,0.37-2.49,1.11c-0.53,0.6-0.56,1.41-0.54,1.97c0.05,1.39,1.1,2.63,3.3,3.9c4.92,2.63,10.98,3.95,18.03,3.95l0.33,0
	c7.75-0.05,16.93-1.7,27.28-4.91l1.09-0.35l0.21-0.12l1.53-1.39l0.13-0.18l0.12-0.27c0.14-0.32,0.27-0.64,0.42-0.95
	c0.69-1.44,1.47-2.8,2.33-4.05c3.74-5.46,8.32-8.13,14.01-8.17l0.17,0c2.29,0,4.14,0.28,5.49,0.82c1.49,0.61,3.29,1.54,5.35,2.76
	c3.04,1.96,6.21,3.61,9.39,4.91c3.19,1.3,7.59,2.45,13.06,3.4l0.18,0.02l0.57,0c2.15-0.01,2.91-1.14,3.17-1.8
	c0.25-0.64,0.56-2.26-1.94-3.47c-10.02-4.06-18.01-8.85-23.8-14.23c-5.63-5.23-8.59-10.85-8.8-16.71c-0.11-3.14,0.54-6.26,1.94-9.28
	c3.58-8.22,9.36-14.32,17.19-18.15c7.96-3.89,18.91-5.9,32.54-5.99l0.88,0c22.04,0,34.07,5.13,35.77,15.24
	c0.06,0.35,0.1,0.7,0.14,1.06c0.03,0.31,0.05,0.62,0.07,0.94l0,0.2l0.95,0.4c0.19-0.17,0.38-0.34,0.57-0.51c0,0,0.92-0.82,1.17-1.03
	c1.49-1.29,2.99-2.52,4.47-3.66c11.27-8.63,23.76-13.05,37.13-13.13l0.37,0c10.38,0,18.47,2.7,24.05,8.03
	c5.64,5.4,8.65,12.25,8.95,20.36c0.25,6.81-1.32,13.49-4.67,19.88c-3.35,6.39-8.33,11.73-14.8,15.89
	c-6.46,4.15-14.16,6.28-22.9,6.33l-0.43,0c-6.18,0-11.33-0.98-15.33-2.91c-0.63-0.28-2.05-0.92-3.43-0.92
	c-1.07,0-1.91,0.37-2.49,1.11c-0.53,0.6-0.56,1.41-0.54,1.97c0.05,1.39,1.1,2.63,3.3,3.9c4.92,2.63,10.95,3.96,17.92,3.96l0.44,0
	c9.33-0.06,20.68-2.43,33.71-7.06l0.98-0.35l1.01-0.37l0.36-0.44c0,0,0.13-0.78,0.18-1.04c0.04-0.25,0.1-0.5,0.15-0.75l0.06-0.3
	c1.42-7.12,4.05-14.58,7.82-22.15c6.43-12.93,15.44-23.9,26.79-32.59c11.27-8.63,23.76-13.05,37.13-13.13l0.36,0
	c10.38,0,18.47,2.74,24.06,8.15c5.65,5.48,8.67,12.37,8.96,20.49c0.2,5.56-0.93,11.22-3.37,16.81c-3.75,8.6-7.93,14.48-12.41,17.48
	c-4.3,2.88-9.86,4.35-16.53,4.35l-0.66,0c-10.19-0.39-15.27-3.69-15.5-10.09c-0.23-6.24,3.99-15.33,12.54-27.01l0.12-0.2
	c0.47-1.02,0.62-1.5,0.6-1.94c-0.03-0.88-0.41-1.67-1.12-2.35c-0.7-0.66-1.6-1.01-2.61-1.01c-1.15,0.01-2.24,0.67-3.32,2.04
	c-3.45,4.43-6.97,10.24-10.47,17.27c-2.97,5.87-4.39,11.34-4.21,16.25c0.18,4.91,1.86,8.88,5,11.79c3.08,2.86,7.83,4.32,14.12,4.32
	l0.41,0c8.29-0.05,18.34-2.21,29.87-6.42l2.12-0.78l0.36-0.38c0,0,0.23-0.82,0.3-1.07l0.31-1.04c1.42-4.72,3.26-9.62,5.45-14.55
	c6.47-14.56,15.25-27.13,26.1-37.35c10.71-10.09,21.99-15.24,33.53-15.31l0.18,0c8.45,0,13.65,3.76,15.87,11.48
	c0.59,1.59,1.39,3.18,2.94,3.18c0.95-0.01,1.88-0.54,3.02-1.73c3.62-4.42,7.29-7.76,10.93-9.95c3.56-2.13,7.51-3.23,11.75-3.26
	l0.17,0c7.91,0,11.88,3.7,12.16,11.32c0.23,6.36-1.83,14.63-6.12,24.59c-4.35,10.08-9.79,20.06-16.16,29.66l-0.65,1.37l-0.05,0.26
	l0.01,0.22c0.04,1.14,0.78,2.02,1.98,2.34c0.25,0.07,0.5,0.1,0.76,0.1c0.57,0,1.07-0.17,1.6-0.35c0.15-0.05,0.31-0.1,0.48-0.15
	c5.13-1.58,8.29-4.63,10.84-7.09l0.65-0.62c0.14-0.14,0.35-0.31,0.58-0.51c0.82-0.69,1.85-1.56,2.14-2.35l0.88-2.32
	c1.83-4.78,3.9-9.72,6.14-14.68c10.91-24.14,24.31-45.66,39.83-63.97c15.32-18.07,29.15-27.28,41.11-27.35
	c0.91,0,2.11,0.15,3.61,0.43c6.47,1.27,9.7,4.35,9.89,9.43c0.2,5.49-2.28,12.48-7.38,20.77c-5.2,8.48-12.83,19.33-22.68,32.25
	l-7.88,10.71l-0.07,0.13l-0.63,1.61l-0.04,0.23l0.01,0.18c0.04,0.95,0.77,1.91,2.1,1.91c0.93-0.01,1.73-0.51,2.48-1.54
	c7.45-7.74,15.87-14.33,24.97-19.53c9.02-5.15,17.87-7.79,26.32-7.84l0.21,0c4.94,0,8.98,1.61,12.02,4.79
	c3.09,3.25,4.75,7.23,4.92,11.83c0.15,4.22-0.96,8.39-3.32,12.42c-2.37,4.04-6.13,7.51-11.19,10.3c-5.1,2.82-11.58,4.43-19.26,4.79
	c-2.23,0.22-3.91,1.08-5.01,2.55c-1.05,1.41-1.55,3.11-1.48,5.07c0.14,3.73,1.65,7.26,4.49,10.47c2.86,3.25,6.44,4.91,10.64,4.93
	l0.33,0l0.11-0.01l0.32-0.06c4.77-0.61,8.96-3.66,10.99-6.4c0.25-0.34,0.58-0.98,0.71-1.42c0.1-0.3,0.39-1.18,0.39-1.18
	s0.28-0.85,0.39-1.16c1.33-3.82,2.99-7.74,4.93-11.64c6.43-12.93,15.45-23.9,26.79-32.59c11.27-8.63,23.76-13.05,37.13-13.13l0.37,0
	c10.38,0,18.47,2.7,24.05,8.03c5.64,5.4,8.65,12.25,8.95,20.36c0.25,6.81-1.32,13.5-4.67,19.88c-3.35,6.38-8.33,11.73-14.8,15.89
	c-6.46,4.15-14.16,6.28-22.9,6.33l-0.58,0c-6.08,0-11.19-0.98-15.19-2.92c-0.62-0.28-2.05-0.92-3.43-0.92
	c-1.07,0-1.91,0.37-2.49,1.11c-0.53,0.6-0.56,1.41-0.54,1.97c0.05,1.39,1.1,2.63,3.3,3.9c4.92,2.63,10.98,3.95,18.03,3.95l0.33,0
	c10.17-0.06,22.67-2.86,37.16-8.32c1.11-0.43,1.98-0.64,2.61-0.65c1.58,0.01,2.71,0.69,3.55,2.14c0.99,1.71,1.55,3.92,1.64,6.56
	c0.24,6.65-2.64,13.2-8.56,19.45c-6.07,6.4-14.08,11.67-23.81,15.66c-9.75,4.01-19.83,6.07-29.95,6.13l-0.56,0
	c-14.2,0-25.34-3.36-33.11-9.97c-3.84-3.27-6.84-7.12-8.9-11.45c-0.12-0.24-0.23-0.49-0.33-0.74l-0.19-0.42
	c-0.09-0.21-0.19-0.42-0.27-0.63l-0.94-0.18c-0.26,0.27-1.25,1.32-1.37,1.44c-4.11,4.18-8.63,8.12-13.43,11.69
	c-9.32,6.94-18.12,10.48-26.18,10.53l-0.32,0c-9.28,0-16.3-2.26-20.88-6.71c-4.65-4.51-7.14-10.6-7.42-18.08
	c-0.2-5.61,0.77-11.67,2.89-18.02c2.14-6.4,5.21-12.64,9.14-18.54c0.62-1.1,0.9-1.99,0.87-2.76c-0.04-1.25-0.94-2.11-2.23-2.16
	c-0.95,0.01-1.89,0.54-2.99,1.68c-2.63,2.74-6.31,9.06-11.23,19.33c-4.8,9.49-9.07,17.35-12.69,23.35
	c-3.57,5.92-7.97,11.21-13.09,15.72c-4.96,4.37-10.39,6.6-16.14,6.64l-0.15,0c-9.02,0-13.84-5.31-14.75-16.23
	c-0.02-0.27-0.04-0.55-0.05-0.83l-0.04-0.68c-0.01-0.19-0.03-0.39-0.03-0.59l0-0.25l-0.95-0.4c-0.29,0.27-0.59,0.54-0.88,0.82
	c-0.17,0.16-0.87,0.78-0.87,0.78c-2.87,2.59-5.83,5-8.8,7.17c-9.48,6.94-18.78,10.49-27.65,10.55l-0.18,0
	c-5.11,0-9.07-1.52-11.77-4.52c-2.79-3.09-4.3-7.49-4.51-13.08c-0.12-3.18-1.43-3.85-2.52-3.85c-0.89,0-2.02,0.4-4.46,3.2
	c-5.01,5.87-10.16,10.49-15.31,13.74c-5.04,3.18-9.75,4.8-13.98,4.83l-0.18,0c-6.61,0-11.58-2.27-15.19-6.95
	c-2.12-2.75-3.72-6.15-4.73-10.11L807.8,227c-0.06-0.23-0.12-0.45-0.17-0.69c-0.05-0.23-0.1-0.47-0.14-0.71l-0.07-0.36l-0.95-0.3
	l-0.31,0.31c-0.16,0.15-0.31,0.31-0.47,0.46c-0.14,0.13-0.3,0.26-0.45,0.4l-0.34,0.3c-5.61,5.02-12.52,9.24-20.56,12.54
	c-9.75,4.01-19.83,6.07-29.96,6.13l-0.42,0c-14.29,0-25.48-3.36-33.25-9.97c-3.53-3.01-6.35-6.52-8.39-10.44
	c-0.15-0.29-0.29-0.57-0.44-0.87c-0.14-0.29-0.28-0.59-0.41-0.89l-0.94-0.14c-0.19,0.21-0.38,0.42-0.58,0.63l-0.45,0.49
	c-0.05,0.05-0.33,0.32-0.33,0.32c-6.04,6.26-13.94,11.42-23.48,15.34c-9.75,4.01-19.83,6.07-29.96,6.13l-0.56,0
	c-14.2,0-25.34-3.36-33.11-9.97c-2.24-1.91-4.23-4.06-5.89-6.38c-0.18-0.25-0.36-0.51-0.54-0.76c-0.18-0.27-0.36-0.54-0.53-0.82
	l-0.93-0.03c-0.16,0.22-0.33,0.44-0.5,0.65l-0.26,0.33c-0.14,0.18-0.28,0.36-0.42,0.53c-3.31,4.01-7.43,7.31-12.24,9.81
	c-8.73,4.53-18.43,6.85-28.83,6.92l-0.67,0c-14.26,0-25.11-3.27-32.23-9.71c-1.93-1.75-3.66-3.65-5.14-5.65l-0.1-0.14
	c-0.15-0.2-0.29-0.39-0.43-0.59c-0.13-0.19-0.26-0.39-0.39-0.58l-0.12-0.18l-0.84-0.12l-0.3,0.27c-0.13,0.12-0.26,0.23-0.4,0.35
	c-0.13,0.11-0.26,0.21-0.39,0.31l-0.32,0.25c-5.14,4.12-11.23,7.64-18.1,10.46c-9.75,4.01-19.83,6.07-29.96,6.13l-0.31,0
	c-14.36,0-25.58-3.36-33.36-9.97c-3.53-3.01-6.35-6.52-8.39-10.44c-0.15-0.29-0.3-0.57-0.44-0.86c-0.14-0.29-0.28-0.59-0.41-0.89
	l-0.94-0.14c-0.19,0.21-0.38,0.42-0.58,0.63l-0.45,0.49l-0.33,0.33c-6.04,6.26-13.94,11.42-23.48,15.34
	c-9.75,4.01-19.83,6.07-29.96,6.13l-0.32,0c-14.36,0-25.58-3.36-33.35-9.97c-3.94-3.35-6.99-7.32-9.05-11.78
	c-0.12-0.27-0.24-0.54-0.36-0.82c-0.16-0.38-0.29-0.69-0.42-1l-0.94-0.18l-1.39,1.46c-4.22,4.33-8.85,8.39-13.76,12.04
	c-9.32,6.94-18.12,10.48-26.18,10.53l-0.34,0c-8.01,0-14.14-1.76-18.21-5.22c-4.08-3.47-6.26-8.26-6.48-14.26
	c-0.22-6.06,1.35-13.24,4.68-21.33c3.37-8.22,7.85-16.78,13.3-25.45c0.63-1.12,0.91-2.03,0.86-2.82c-0.07-1.15-1.08-2.08-2.25-2.08
	c-0.06,0-0.12,0-0.17,0.01c-0.88,0.07-1.76,0.6-2.79,1.67c-1.91,1.99-3.65,4.1-5.15,6.27c-1.48,2.13-3.01,4.54-4.56,7.18
	c-2.25,4.16-4.92,8.62-7.97,13.29l-6.22,9.75c-4.53,7.36-8.54,13.43-11.91,18.03c-3.27,4.45-7.21,8.19-11.7,11.09
	c-4.4,2.85-9.51,4.31-15.19,4.34l-0.14,0c-8.5,0-13.26-4.7-14.54-14.37c-0.05-0.34-0.08-0.69-0.12-1.05
	c-0.04-0.37-0.08-0.74-0.1-1.12l-0.93-0.39c-0.28,0.24-0.57,0.48-0.86,0.71c-0.18,0.14-0.36,0.28-0.54,0.42l-0.3,0.23
	c-5.04,3.95-10.96,7.34-17.6,10.07c-9.75,4.01-19.83,6.07-29.96,6.13L158.39,248.72z M878.68,155.41c-1.13,0.01-2.22,0.68-3.31,2.06
	c-4.05,5.57-7.72,11.61-10.91,17.98c-3.18,6.34-5.7,12.13-7.48,17.22c-0.2,0.66-0.28,1.39-0.25,2.2c0.13,3.57,2.53,3.85,3.26,3.85
	c1.85-0.01,3.29-1.45,4.45-4.39c1.58-4.62,3.93-10.03,6.99-16.11c3.04-6.06,6.51-11.88,10.31-17.32l0.11-0.18
	c0.47-1.01,0.62-1.49,0.6-1.94c-0.03-0.88-0.41-1.67-1.12-2.35C880.62,155.76,879.74,155.42,878.68,155.41L878.68,155.41z
	 M405.25,153.46c-1.13,0.01-2.21,0.68-3.3,2.05c-6.25,8.38-10.77,16.79-13.43,25.01c-0.2,0.65-0.28,1.38-0.25,2.19
	c0.13,3.57,2.53,3.84,3.26,3.84c1.85-0.01,3.29-1.46,4.45-4.42c0.99-3.16,2.61-6.87,4.84-11.08c2.24-4.22,4.75-8.3,7.47-12.11
	l0.11-0.19c0.47-1.02,0.62-1.49,0.6-1.94c-0.03-0.88-0.41-1.67-1.12-2.35c-0.66-0.62-1.53-0.96-2.61-1.01L405.25,153.46z
	 M503.88,152.85c-1.14,0.01-2.22,0.68-3.31,2.05c-6.25,8.38-10.77,16.79-13.44,25.01c-0.19,0.65-0.28,1.38-0.25,2.19
	c0.13,3.57,2.53,3.85,3.27,3.85c1.84-0.01,3.29-1.46,4.45-4.42c0.99-3.16,2.62-6.88,4.84-11.08c2.24-4.22,4.75-8.3,7.47-12.11
	l0.11-0.19c0.47-1.02,0.62-1.49,0.6-1.94c-0.03-0.88-0.41-1.67-1.12-2.35C505.82,153.19,504.93,152.86,503.88,152.85L503.88,152.85z
	 M677.1,151.79c-1.13,0.01-2.22,0.68-3.31,2.05c-6.25,8.38-10.77,16.79-13.44,25.01c-0.19,0.65-0.28,1.38-0.25,2.19
	c0.13,3.57,2.53,3.84,3.26,3.84c1.85-0.01,3.3-1.46,4.45-4.42c0.99-3.15,2.61-6.87,4.84-11.08c2.24-4.22,4.75-8.3,7.47-12.11
	l0.11-0.19c0.47-1.01,0.62-1.49,0.6-1.94c-0.03-0.88-0.41-1.67-1.12-2.35c-0.65-0.62-1.53-0.96-2.61-1.01L677.1,151.79z
	 M591.72,162.73c-1.38,0.01-2.51,0.77-3.12,2.08c-0.87,1.88,0.08,3.16,1.17,3.67c9.38,4.07,16.87,8.52,22.26,13.26
	c0.24,0.21,0.47,0.42,0.7,0.63c0.27,0.24,0.51,0.47,0.75,0.7l0.92-0.21c0.11-0.31,0.23-0.62,0.35-0.93l0.36-0.91
	c1.08-2.74,2.3-5.49,3.64-8.18c0.83-1.67,1.73-3.36,2.69-5.02c0.16-0.27,0.32-0.54,0.48-0.81l0.36-0.61
	c0.14-0.25,0.29-0.5,0.44-0.74l-0.62-0.85l-0.13,0.03c-0.36,0.09-0.73,0.18-1.1,0.26c-0.29,0.06-0.6,0.12-0.9,0.17l-0.27,0.05
	c-2.44,0.44-5.02,0.66-7.67,0.68l-0.4,0c-6.16,0-12.44-1-18.69-2.96l-0.87-0.28l-0.17-0.03L591.72,162.73z M1115.62,149.12
	c-1.14,0.01-2.22,0.68-3.31,2.05c-6.26,8.38-10.77,16.79-13.43,25.01c-0.2,0.65-0.28,1.38-0.25,2.19c0.13,3.57,2.53,3.84,3.26,3.84
	c1.85-0.01,3.3-1.46,4.45-4.42c0.99-3.16,2.62-6.88,4.84-11.08c2.24-4.22,4.75-8.3,7.47-12.11l0.11-0.19
	c0.47-1.02,0.62-1.5,0.6-1.94c-0.03-0.88-0.41-1.67-1.12-2.35c-0.7-0.66-1.6-1.01-2.61-1.01H1115.62z"/>
<g>
	<g>
		<path class="st1" d="M363.42,82.59c4.5,0,9.05,1.38,9.05,6.47c0,3.36-2.09,6.42-5.91,6.42c-1.05,0-1.41,0-1.41-1.02
			s1.41-2.04,1.41-3.36c0-2.04-2.09-2.39-3.87-2.39c-8.69,0-15.7,8.51-15.7,16.66c0,4.74,3.14,7.79,8.06,7.79
			c3.45,0,6.59-3.41,9.05-3.41c1.41,0,1.73,1.73,1.73,2.75c0,5.4-7.64,7.44-11.82,7.44c-8.37,0-14.34-5.4-14.34-13.55
			C339.66,93.79,350.49,82.59,363.42,82.59z"/>
		<path class="st1" d="M379.64,103.62c0-1.32-1.05-3.06-2.77-3.06c-2.46,0-2.09,3.41-4.19,3.41c-1.05,0-1.41-0.66-1.41-1.68
			c0-0.71,2.09-10.54,3.14-10.9c0.37,0,1.41,0,1.78,0c1.36,0,2.09,0,3.14,1.02c-0.73,8.15,8.69,4.07,8.69,7.84
			c0,3.72-4.19,7.13-4.19,11.21c0,1.02,0.37,1.32,1.41,1.32c4.19,0,5.91-8.46,8.74-8.46c0.68,0,1.36,0.31,1.36,1.32
			c0,5.09-8.01,13.96-13.6,13.96c-3.14,0-5.55-2.75-5.55-5.81C376.19,110.09,379.64,107.04,379.64,103.62z"/>
		<path class="st1" d="M407.06,94.46c2.77,0,6.28,1.02,6.28,4.43c0,6.47-7.32,9.83-12.56,11.21c-0.73,0.36-0.73,0.36-0.73,1.02
			c0,1.68,2.83,2.04,4.19,2.04c7.33,0,12.24-8.81,14.65-8.81c0.99,0,1.41,0.36,1.41,1.32c-3.51,7.49-9.42,14.26-18.16,14.26
			c-5.91,0-10.46-3.36-10.46-9.17C391.68,102.3,398.32,94.46,407.06,94.46z M400.05,107.39c2.83,0,7.01-3.77,7.01-6.47
			c0-1.02-1.05-1.38-2.09-1.38c-3.14,0-5.96,3.41-5.96,6.11C399,106.68,399,107.39,400.05,107.39z"/>
		<path class="st1" d="M415.8,111.47c0-7.84,6.28-17.01,15.02-17.01c1.73,0,3.45,0.71,5.23,0.71c1.05,0,1.73-0.71,2.77-0.71
			c1.41,0,3.51,1.38,3.51,2.75c0,4.38-4.55,8.46-4.55,13.24c0,1.68,0.68,2.34,2.46,2.34c4.5,0,5.55-8.46,8.69-8.46
			c0.73,0,1.41,0.31,1.41,1.02c0,5.09-7.69,14.26-13.24,14.26c-3.87,0-4.55-4.43-6.28-4.43c-0.37,0-0.73,0-0.73,0
			c-2.09,2.04-4.5,4.74-7.64,4.74c-3.51,0-5.96-2.34-6.65-5.4C415.8,114.17,415.8,112.13,415.8,111.47z M425.22,113.15
			c4.87,0,9.42-7.79,9.42-11.87c0-1.73-1.73-2.04-3.14-2.04c-5.6,0-9.05,6.11-9.05,10.85C422.45,111.77,423.49,113.15,425.22,113.15
			z"/>
		<path class="st1" d="M477.39,101.59c0-1.02,0-1.32-0.68-1.32c-2.83,0-5.23,4.74-6.28,6.42c-0.26,0.41-0.79,1.27-1.41,2.34
			l-4.45,7.23c-0.68,1.07-1.2,1.88-1.46,2.34c-0.73,0.66-1.05,1.02-2.09,1.02c-1.41,0-3.51-0.71-3.51-2.39
			c0-5.45,5.91-10.19,5.91-15.94c0-0.71-0.31-1.38-1.05-1.38c-2.41,0-6.59,6.77-7.33,8.15c-1.05,1.38-5.23,8.51-6.28,10.19
			c-0.68,1.38-1.05,1.38-2.09,1.38c-1.36,0-3.45-0.71-3.45-2.39c0-2.39,1.73-5.45,2.41-7.13c0.73-2.39,4.92-12.58,5.6-14.92
			c0.37-1.02,1.41-1.73,2.46-1.73s3.45,0.71,3.45,2.04c0,2.04-1.36,4.08-1.73,5.81c0,0,0,0,0,0.31l0.37,0.36
			c2.41,0,5.91-7.79,10.46-7.79c5.23,0,4.5,5.76,5.91,5.76c2.09-2.04,5.23-5.76,9.05-5.76c2.46,0,4.19,1.68,4.19,4.07
			c0,4.74-4.87,8.15-4.87,12.89c0,1.02,1.05,2.04,2.09,2.04c4.87,0,5.91-8.81,9.42-8.81c1.31,0,1.41,0.61,1.41,1.68
			c-2.46,5.76-8.06,14.26-15.38,14.26c-3.14,0-5.23-2.04-5.23-5.09C472.84,110.09,477.39,106.02,477.39,101.59z"/>
		<g>
			<path class="st1" d="M364.58,94.46c0,1.59,0.96,1.59,1.98,1.59c4.25,0,6.48-3.51,6.48-6.98c0-4.54-3.42-7.03-9.62-7.03
				c-12.96,0-24.32,11.38-24.32,24.35c0,8.31,6.13,14.12,14.9,14.12c4.04,0,12.39-1.96,12.39-8c0-1.53-0.6-3.32-2.29-3.32
				c-1.27,0-2.62,0.76-4.05,1.56c-1.61,0.91-3.28,1.85-5,1.85c-4.62,0-7.49-2.77-7.49-7.23c0-9.21,7.99-16.09,15.13-16.09
				c2.96,0,3.3,1.04,3.3,1.83c0,0.54-0.35,1.07-0.68,1.59C364.95,93.24,364.58,93.81,364.58,94.46z"/>
			<path class="st1" d="M519.04,103.77h-0.68l-0.39,0.16l-6.48,6.26h-0.24c0.12-3.02,1.16-5.02,2.58-7.74
				c0.7-1.34,1.49-2.86,2.28-4.72l0.04-0.22v-1.02c0-1.89-2.1-2.91-4.07-2.91c-0.71,0-1.77,0-2.2,0.92
				c-0.25,0.39-0.77,1.21-1.51,2.22l-4.65,6.71c-0.74,1.03-1.28,1.86-1.57,2.32c-0.93,1.87-4.22,6.46-6.14,6.46
				c-0.35,0-0.48-0.46-0.48-0.76c0-0.58,0.33-1.41,0.62-2.14c0.15-0.39,0.3-0.77,0.38-1.04c0.83-1.92,3.88-8.83,4.54-10.16
				l0.06-0.25v-1.02c0-1.83-1.42-2.96-3.71-2.96c-1.99,0-2.88,0.5-3.65,2.06c-0.74,1.61-2.41,5.46-3.79,8.72
				c-0.86,0.79-1.58,1.99-2.32,3.25c-1.35,2.29-2.74,4.67-5.05,4.67c-0.73,0-1.53-0.77-1.53-1.47c0-2.21,1.14-4.13,2.35-6.15
				c1.24-2.07,2.51-4.21,2.51-6.73c0-2.69-2-4.64-4.75-4.64c-3.58,0-6.5,2.95-8.63,5.1c-0.17,0.17-0.34,0.34-0.5,0.51
				c-0.13-0.24-0.28-0.68-0.4-1.03c-0.59-1.71-1.58-4.58-5.43-4.58c-2.89,0-5.32,2.78-7.27,5.01c-1.1,1.25-2.23,2.55-2.99,2.76v0
				c0.14-0.61,0.41-1.28,0.7-1.99c0.48-1.18,1.03-2.52,1.03-3.87c0-1.83-2.88-2.6-4.02-2.6c-1.3,0-2.55,0.89-3,2.14
				c-0.35,1.19-1.64,4.52-2.9,7.75c-0.25,0.63-0.49,1.25-0.72,1.85c-0.79,0.75-1.46,1.9-2.14,3.11c-1.26,2.22-2.56,4.51-4.68,4.51
				c-1.47,0-1.89-0.4-1.89-1.78c0-2.31,1.16-4.52,2.29-6.65c1.11-2.12,2.27-4.31,2.27-6.59c0-1.8-2.5-3.32-4.07-3.32
				c-0.64,0-1.15,0.21-1.6,0.4c-0.41,0.17-0.76,0.31-1.17,0.31c-0.84,0-1.67-0.17-2.54-0.35c-0.87-0.18-1.78-0.36-2.69-0.36
				c-6.64,0-12.02,5.14-14.34,11.19c-0.49,0.43-1.02,0.94-1.61,1.51c-2.62,2.53-6.2,6-10.63,6c-1.4,0-3.62-0.4-3.62-1.47
				c0-0.13,0-0.28-0.03-0.28c0,0,0,0-0.01,0c0.04-0.04,0.22-0.12,0.4-0.21c3.93-1.04,12.93-4.24,12.93-11.74c0-3.69-3.54-5-6.85-5
				c-6.57,0-12.36,4.46-14.76,10.62c-0.8,0.71-1.51,1.87-2.29,3.14c-1.31,2.14-2.8,4.58-4.77,4.58c-0.79,0-0.85-0.1-0.85-0.76
				c0-1.93,1.06-3.79,2.09-5.58c1.03-1.8,2.1-3.66,2.1-5.63c0-2-2.01-2.32-3.79-2.61c-2.6-0.42-5.29-0.85-4.9-5.18l-0.17-0.46
				c-1.21-1.18-2.14-1.18-3.53-1.18h-1.78l-0.18,0.03c-1.65,0.56-3.52,11.33-3.52,11.44c0,1.96,1.24,2.25,1.98,2.25
				c1.34,0,1.92-1.05,2.39-1.89c0.52-0.94,0.89-1.52,1.79-1.52c1.37,0,2.21,1.45,2.21,2.49c0,1.53-0.78,3.03-1.61,4.61
				c-0.91,1.74-1.85,3.54-1.85,5.58c0,3.51,2.74,6.37,6.11,6.37c3.22,0,7.08-2.7,9.96-6.01c1.4,3.88,5.24,6.32,10.44,6.32
				c4.88,0,9.35-2.13,13.09-6.12v0.15l0.01,0.12c0.79,3.55,3.62,5.84,7.2,5.84c3.08,0,5.4-2.29,7.44-4.32l0.43-0.42h0.5
				c0.4,0,0.88,0.65,1.39,1.33c0.96,1.31,2.28,3.1,4.89,3.1c1.78,0,3.76-0.89,5.66-2.27c0.46,1.56,2.45,2.27,3.92,2.27
				c1.19,0,1.8-0.07,2.57-1.64c0.31-0.49,0.89-1.46,1.58-2.61c1.57-2.62,3.95-6.59,4.72-7.61c1.15-2.16,4.99-7.85,6.82-7.85
				c0.43,0,0.48,0.56,0.48,0.81c0,2.77-1.5,5.38-2.94,7.91c-1.46,2.55-2.97,5.19-2.97,8.03c0,2.16,2.5,2.96,4.07,2.96
				c1.19,0,1.67-0.43,2.33-1.03l0.14-0.13l0.11-0.14c0.23-0.4,0.66-1.08,1.22-1.96l0.23-0.37l4.45-7.24
				c0.62-1.06,1.14-1.92,1.4-2.33c0.13-0.21,0.28-0.46,0.45-0.74c1.12-1.89,3.19-5.41,5.35-5.41c0.04,0,0.07,0,0.09,0
				c0.02,0.15,0.02,0.47,0.02,0.75c0,2-1.02,3.97-2.09,6.06c-1.21,2.34-2.46,4.77-2.46,7.54c0,3.39,2.33,5.66,5.8,5.66
				c3.78,0,6.96-2.06,9.47-4.65c0.84,2.02,2.77,3.27,5.34,3.27c3.12,0,5.85-2.69,7.66-4.48l0.12-0.12c-0.37,4.78-4.56,6.3-8.98,7.92
				c-4.47,1.63-9.1,3.32-9.1,8.69c0,3.6,2.23,5.66,6.11,5.66c6.76,0,9.8-4.96,12.75-9.75c1.21-1.97,2.35-3.83,3.75-5.38
				c1-1.2,3.1-2.84,5.32-4.57c4.92-3.84,10.5-8.2,10.5-12.09C521.02,104.41,520.23,103.77,519.04,103.77z M399.57,105.66
				c0-2.42,2.62-5.54,5.4-5.54c0.36,0,1.53,0.06,1.53,0.81c0,2.32-3.92,5.9-6.44,5.9C399.64,106.83,399.57,106.83,399.57,105.66z
				 M425.22,112.58c-1.52,0-2.21-1.25-2.21-2.49c0-4.2,3.02-10.28,8.48-10.28c2.57,0,2.57,1.07,2.57,1.47
				C434.07,105.33,429.61,112.58,425.22,112.58z M490.79,129.54c-0.7,0-0.79-0.36-0.79-0.76c0-0.39,0.86-0.84,3.27-0.84
				c0.26,0,0.5,0,0.71,0.01C493.57,128.91,492.11,129.54,490.79,129.54z"/>
		</g>
		<path class="st1" d="M501.25,114.17h-0.68c-1.73,1.68-4.55,4.74-7.69,4.74c-3.14,0-5.23-2.04-5.23-5.09c0-2.04,0-1.68,0.73-3.72
			c0.31-1.02,4.5-10.85,5.91-13.91c0.68-1.38,1.41-1.73,3.14-1.73s3.14,0.71,3.14,2.39c0,0.36,0,1.02,0,1.02
			c-0.68,1.38-3.82,8.51-4.55,10.19c-0.31,1.02-1.05,2.39-1.05,3.41c0,0.66,0.37,1.32,1.05,1.32c2.46,0,5.96-5.4,6.64-6.77
			c0.26-0.41,0.79-1.22,1.52-2.24l4.66-6.72c0.73-1.02,1.26-1.83,1.52-2.24c0.31-0.66,1.05-0.66,1.73-0.66
			c1.41,0,3.51,0.66,3.51,2.34c0,0.36,0,1.02,0,1.02c-2.46,5.81-4.92,8.15-4.92,13.24h1.05l6.65-6.42c0,0,0.37,0,0.68,0
			c0.73,0,1.41,0.31,1.41,1.02c0,5.4-12.56,12.53-15.7,16.3c-4.87,5.4-6.96,14.92-16.06,14.92c-3.45,0-5.55-1.68-5.55-5.09
			C483.15,121.3,501.25,125.37,501.25,114.17z M490.79,130.11c1.78,0,3.87-1.02,3.87-2.7c-0.73,0-5.23-0.36-5.23,1.38
			C489.43,129.8,490.11,130.11,490.79,130.11z"/>
	</g>
</g>
</svg>
