<?xml version="1.0" encoding="utf-8"?>
<svg xmlns="http://www.w3.org/2000/svg" viewBox="100.35 295.93 700.00 195.25" preserveAspectRatio="xMidYMid meet">
<style type="text/css">
	.st0{fill:#f6eadf;}
	.st1{fill:#e8511b;}
</style>
<g>
	<g>
		<g>
			<path class="st0" d="M377.88,363.93c11.38,0.1,20.09,3.09,25.92,8.9c6.01,6,9.25,14.04,9.61,23.88
				c0.16,4.32-0.16,8.84-0.94,13.43c-1.34,7.83-4.07,16.06-8.11,24.44c-0.67,1.39-1.4,2.76-2.03,3.94
				c-6.27,11.7-14.59,21.75-24.73,29.88c-11.2,8.98-23.6,13.57-36.83,13.65l-0.42,0c-11.66,0-20.57-3-26.49-8.9
				c-6.01-6-9.25-14.03-9.61-23.88c-0.08-2.27-0.04-4.63,0.12-7.02c0.06-0.91,0.15-1.85,0.25-2.79c-0.44,0.81-0.9,1.63-1.37,2.44
				c-6.08,10.53-13.88,19.64-23.16,27.09c-11.2,8.98-23.6,13.57-36.83,13.65l-0.42,0c-11.66,0-20.57-3-26.49-8.9
				c-3.11-3.1-5.5-6.8-7.11-11c-0.19-0.5-0.37-0.99-0.53-1.47c-0.06,0.07-0.12,0.13-0.19,0.2c-0.18,0.19-0.38,0.38-0.57,0.57
				l-0.35,0.34c-6,5.98-13.72,10.92-22.97,14.69c-9.79,3.99-19.91,6.05-30.07,6.11l-0.56,0h0c-14.24,0-25.41-3.34-33.2-9.92
				c-7.95-6.72-12.01-15.28-12.41-26.19c-0.42-11.28,2.64-23.52,9.09-36.39c6.46-12.89,15.51-23.82,26.91-32.49
				c11.31-8.59,23.84-12.99,37.26-13.08l0.37,0c10.4,0,18.5,2.72,24.09,8.09c5.74,5.52,8.67,12.18,8.97,20.36
				c0.2,5.53-0.93,11.15-3.38,16.72c-3.77,8.56-7.95,14.42-12.43,17.39c-4.31,2.86-9.84,4.31-16.46,4.31c-0.25,0-0.5,0-0.71-0.01
				c-15.13-0.57-15.39-7.62-15.48-9.93c-0.23-6.2,4.01-15.24,12.59-26.87l0.1-0.13l0.07-0.15c0.46-0.99,0.61-1.48,0.6-1.95
				c-0.02-0.63-0.25-1.56-1.18-2.45c-0.73-0.69-1.66-1.04-2.75-1.04c-1.19,0.01-2.31,0.69-3.44,2.1
				c-3.47,4.43-7.02,10.23-10.54,17.25c-3,5.89-4.43,11.37-4.25,16.3c0.18,4.94,1.89,8.93,5.07,11.87
				c3.13,2.88,7.99,4.35,14.45,4.35l0.27,0c7.87-0.05,17.36-1.98,28.2-5.76c0.69-0.24,1.39-0.49,2.09-0.75
				c0.13-0.73,0.28-1.47,0.44-2.21c1.43-6.75,3.82-13.73,7.1-20.75c6.21-13.29,15.09-24.62,26.39-33.68
				c11.2-8.98,23.84-13.57,37.57-13.66l0.43,0c11.65,0,20.56,3,26.49,8.9c6.01,6,9.25,14.04,9.61,23.88
				c0.07,1.92,0.04,3.95-0.08,6.03c-0.05,0.9-0.13,1.81-0.22,2.73c0.44-0.82,0.89-1.62,1.35-2.41
				c5.85-10.08,13.38-18.85,22.37-26.06c11.16-8.95,23.75-13.54,37.42-13.65 M272.1,396.37c-1.19,0.01-2.31,0.69-3.43,2.08
				c-4.11,5.6-7.8,11.64-11.02,18c-3.2,6.33-5.73,12.11-7.52,17.17c-0.22,0.72-0.3,1.47-0.27,2.29c0.14,3.69,2.66,3.98,3.43,3.98
				c1.9-0.01,3.44-1.5,4.6-4.44c1.61-4.66,3.97-10.06,7.04-16.11c3.06-6.04,6.54-11.85,10.36-17.28l0.08-0.12l0.06-0.13
				c0.46-0.99,0.61-1.48,0.59-1.96c-0.02-0.63-0.25-1.56-1.18-2.45C274.12,396.72,273.2,396.37,272.1,396.37z M369.61,395.78
				c-1.19,0.01-2.31,0.69-3.42,2.08c-4.11,5.6-7.8,11.64-11.02,18c-3.2,6.34-5.74,12.11-7.52,17.17c-0.22,0.72-0.3,1.47-0.27,2.29
				c0.14,3.69,2.66,3.98,3.43,3.98c1.9-0.01,3.44-1.51,4.6-4.44c1.61-4.66,3.97-10.06,7.04-16.11c3.06-6.04,6.54-11.85,10.36-17.28
				l0.11-0.16l0.03-0.09c0.46-0.99,0.61-1.48,0.59-1.95c-0.02-0.63-0.25-1.56-1.17-2.45C371.63,396.13,370.7,395.78,369.61,395.78z"
				/>
			<path class="st0" d="M377.32,364.49l-0.42,0c-13.6,0.08-26.12,4.63-37.22,13.53c-9.02,7.23-16.45,15.93-22.24,25.9
				c-0.98,1.69-1.91,3.42-2.8,5.19c0.29-1.96,0.5-3.91,0.61-5.83c0.12-2.02,0.16-4.01,0.08-5.97c-0.36-9.69-3.53-17.6-9.44-23.5
				c-5.81-5.8-14.59-8.74-26.08-8.74l-0.42,0c-13.6,0.08-26.12,4.63-37.22,13.53c-11.23,9-20.06,20.26-26.23,33.48
				c-3.29,7.04-5.64,13.93-7.06,20.62c-0.18,0.84-0.34,1.68-0.49,2.51c-0.81,0.3-1.61,0.59-2.41,0.86
				c-10.87,3.79-20.41,5.74-28.39,5.79l-0.27,0c-6.61,0-11.6-1.51-14.83-4.5c-3.3-3.04-5.07-7.16-5.26-12.26
				c-0.18-5.03,1.27-10.61,4.31-16.57c3.53-7.04,7.1-12.88,10.6-17.35c1.24-1.55,2.51-2.3,3.88-2.31c0,0,0,0,0,0
				c1.24,0,2.31,0.41,3.15,1.2c1.07,1.02,1.32,2.11,1.35,2.84c0.02,0.57-0.14,1.13-0.65,2.22l-0.09,0.2l-0.13,0.18
				c-8.5,11.52-12.7,20.44-12.48,26.51c0.08,2.19,0.33,8.84,14.92,9.39c0.2,0,0.45,0,0.7,0c6.51,0,11.94-1.42,16.15-4.22
				c4.39-2.92,8.5-8.69,12.23-17.15c2.41-5.49,3.53-11.03,3.33-16.47c-0.3-8.03-3.17-14.56-8.8-19.97
				c-5.47-5.26-13.45-7.93-23.69-7.93l-0.37,0c-13.29,0.08-25.71,4.44-36.92,12.96c-11.33,8.61-20.33,19.48-26.74,32.29
				c-6.41,12.79-9.44,24.94-9.03,36.12c0.4,10.74,4.39,19.17,12.21,25.78c7.68,6.49,18.73,9.79,32.83,9.79l0.56,0
				c10.09-0.06,20.14-2.1,29.86-6.07c9.22-3.76,16.86-8.66,22.78-14.57c0.3-0.3,0.62-0.59,0.92-0.9c0.29-0.3,0.56-0.61,0.84-0.91
				c0.24,0.81,0.52,1.6,0.81,2.37c1.58,4.12,3.91,7.74,6.98,10.8c5.81,5.8,14.58,8.74,26.09,8.74l0.42,0
				c13.11-0.08,25.38-4.63,36.48-13.53c9.3-7.46,17.01-16.51,23.03-26.93c0.99-1.72,1.95-3.48,2.85-5.27
				c-0.31,2-0.54,3.99-0.68,5.95c-0.16,2.35-0.21,4.67-0.12,6.96c0.36,9.7,3.53,17.6,9.44,23.5c5.81,5.8,14.58,8.74,26.09,8.74
				l0.42,0c13.11-0.08,25.38-4.63,36.48-13.53c10.12-8.11,18.36-18.1,24.58-29.7c0.69-1.29,1.38-2.59,2.02-3.92
				c4.04-8.37,6.73-16.5,8.06-24.29c0.78-4.56,1.09-9,0.94-13.31c-0.36-9.69-3.54-17.6-9.44-23.5
				C397.59,367.43,388.82,364.49,377.32,364.49L377.32,364.49 M212.06,431.98c0.14,0,0.26,0.02,0.4,0.02
				c-0.15-0.01-0.29-0.02-0.44-0.02C212.03,431.98,212.04,431.98,212.06,431.98z M275.95,402.05l-0.08,0.18l-0.11,0.16
				c-3.8,5.4-7.27,11.19-10.32,17.21c-3.06,6.03-5.41,11.4-6.99,15.97l-0.02,0.04l-0.02,0.04c-1.25,3.17-2.97,4.79-5.1,4.8h-0.01
				l-0.02,0c-1.85,0-3.87-1.19-4-4.52c-0.03-0.89,0.06-1.7,0.27-2.41l0.01-0.05l0.02-0.05c1.8-5.08,4.34-10.88,7.55-17.23
				c3.23-6.39,6.94-12.46,11.02-18.03l0.03-0.04l0.03-0.04c1.23-1.54,2.49-2.29,3.86-2.29c0,0,0,0,0,0c1.24,0,2.31,0.41,3.15,1.2
				c1.07,1.03,1.32,2.11,1.35,2.84C276.62,400.41,276.46,400.97,275.95,402.05z M373.46,401.46l-0.08,0.18l-0.11,0.16
				c-3.8,5.4-7.27,11.19-10.31,17.21c-3.06,6.03-5.41,11.4-6.99,15.97l-0.02,0.04l-0.02,0.04c-1.25,3.17-2.97,4.79-5.1,4.8h-0.01
				l-0.02,0c-1.85,0-3.87-1.19-4-4.52c-0.03-0.89,0.06-1.7,0.27-2.41l0.01-0.05l0.02-0.05c1.8-5.08,4.34-10.88,7.55-17.23
				c3.23-6.39,6.94-12.46,11.02-18.03l0.03-0.04l0.03-0.04c1.23-1.54,2.49-2.29,3.86-2.3c0,0,0,0,0,0c1.24,0,2.31,0.41,3.15,1.2
				c1.07,1.02,1.32,2.11,1.35,2.84C374.12,399.82,373.96,400.38,373.46,401.46z"/>
			<path class="st0" d="M594.66,354.5c-5.8,0-10.35-1.38-13.51-4.11c-3.2-2.76-4.83-6-4.98-9.92c-0.16-4.37,1.58-8.12,5.34-11.46
				c3.77-3.36,9.26-5.09,16.3-5.13l0.21,0c5.81,0,10.44,1.46,13.78,4.34c3.38,2.93,5.09,6.25,5.23,10.17
				c0.16,4.35-1.58,8.01-5.32,11.19c-3.79,3.22-9.45,4.87-16.83,4.92L594.66,354.5z"/>
			<path class="st0" d="M581.52,349.96c3.06,2.63,7.48,3.97,13.14,3.97l0.23,0c7.25-0.04,12.79-1.65,16.47-4.78
				c3.6-3.06,5.28-6.57,5.12-10.74c-0.14-3.75-1.79-6.94-5.04-9.76c-3.23-2.79-7.74-4.2-13.4-4.2l-0.21,0
				c-6.9,0.04-12.26,1.72-15.93,4.99c-3.62,3.22-5.31,6.83-5.15,11.02C576.87,344.21,578.44,347.32,581.52,349.96z"/>
			<path class="st0" d="M496.39,314.36c0.79,0.05,1.79,0.18,2.99,0.41c8.57,1.67,9.71,6.09,9.83,9.28c0.2,5.45-2.29,12.4-7.4,20.66
				c-5.24,8.47-12.91,19.3-22.82,32.2l-8.05,10.87l-0.63,1.73l0.01,0.32c0.04,1.21,0.99,2.05,2.29,2.05
				c0.92-0.01,1.78-0.52,2.54-1.53c7.57-7.8,16-14.35,25.12-19.52c9.05-5.13,17.93-7.76,26.4-7.81h0.15c5.04,0,8.98,1.55,12.04,4.73
				c3.13,3.26,4.74,7.1,4.91,11.72c0.15,4.18-0.96,8.33-3.32,12.32c-2.37,4.01-6.13,7.45-11.2,10.23c-5.11,2.8-11.59,4.4-19.26,4.76
				c-2.34,0.22-4.07,1.1-5.2,2.61c-1.08,1.43-1.59,3.17-1.52,5.15c0.14,3.76,1.67,7.31,4.55,10.54c2.93,3.3,6.53,4.97,10.73,4.97
				l0.88-0.01l2.26-0.18c2.61-0.77,3.28-1.17,5.23-2.35l0.33-0.2c0.49-0.29,1.38-2.2,1.93-3.8c0.35-0.99,0.72-1.98,1.11-2.97
				c0.67-1.74,1.36-3.46,2.06-5.1c6.2-14.46,14.42-27.04,24.43-37.39c9.84-10.16,19.44-15.34,28.55-15.4l0.16,0
				c7.98,0,11.82,3.55,12.1,11.16c0.24,6.49-1.83,14.81-6.14,24.73c-4.38,10.05-9.84,19.92-16.24,29.34l-0.1,0.15l-0.03,0.08
				l-0.62,1.33l0.01,0.39c0.04,1.19,0.84,2.14,2.09,2.47c0.29,0.08,0.58,0.12,0.86,0.12l0.56,0c0.75,0,1.75-0.03,2.77-0.23
				c4.88-0.96,8.44-2.89,10.03-5.42l1.37-2.73l0.59-1.83c0.28-0.91,0.58-1.83,0.91-2.75c1.34-3.83,3.02-7.77,4.99-11.71
				c6.46-12.89,15.51-23.82,26.91-32.49c11.31-8.59,23.84-12.99,37.26-13.08l0.37,0c10.4,0,18.5,2.68,24.09,7.98
				c5.73,5.44,8.66,12.05,8.96,20.23c0.25,6.77-1.32,13.42-4.68,19.77c-3.36,6.35-8.35,11.67-14.84,15.8
				c-6.47,4.12-14.19,6.24-22.95,6.29l-0.37,0c-6.23,0-11.41-0.97-15.39-2.88c-1.44-0.64-2.58-0.94-3.54-0.94
				c-1.08,0-2,0.4-2.6,1.13c-0.65,0.75-0.61,1.72-0.6,2.08c0.07,1.89,1.95,3.19,3.36,3.99c5,2.65,11.12,3.98,18.22,3.98l0.36,0
				c7.85-0.05,17.17-1.72,27.69-4.98c0.77-0.24,1.55-0.49,2.33-0.74c0.31-0.83,0.66-1.66,1.05-2.48c0.69-1.44,1.48-2.81,2.35-4.07
				c3.73-5.41,8.3-8.05,13.97-8.09l0.18,0c2.29,0,4.12,0.27,5.46,0.81c1.48,0.6,3.28,1.52,5.36,2.74c3.08,1.96,6.26,3.61,9.47,4.91
				c3.27,1.33,7.58,2.44,13.17,3.41l0.19,0.03l0.1-0.01l0.49,0c2.14-0.01,2.99-1.04,3.32-1.89c0.21-0.53,0.69-2.35-1.97-3.63
				l-0.1-0.04c-10.02-4.03-18.05-8.8-23.86-14.17c-5.63-5.19-8.59-10.78-8.81-16.59c-0.12-3.11,0.54-6.22,1.95-9.23
				c3.57-8.15,9.37-14.22,17.21-18.02c7.98-3.87,18.98-5.88,32.67-5.96l0.9,0c12.01,0,21.16,1.51,27.17,4.49
				c5.75,2.84,8.64,6.96,8.85,12.58c0.1,2.82-0.49,5.88-1.75,9.08c-1.34,3.65-4.11,6.45-8.48,8.57c-4.47,2.17-9.91,3.28-16.15,3.32
				l-0.35,0c-6.21,0-12.53-0.99-18.79-2.95l-1-0.32l-0.27,0c-1.44,0.01-2.63,0.8-3.27,2.16c-0.92,1.97,0.07,3.3,1.21,3.84
				c10.9,4.69,19.19,9.85,24.69,15.36c5.42,5.44,8.18,11.44,8.43,18.33c0.17,4.58-0.98,9.98-3.42,16.04
				c-3.72,9.12-9.98,16-18.62,20.44c-8.76,4.51-18.5,6.83-28.93,6.89l-0.59,0c-14.36,0-25.26-3.25-32.4-9.65
				c-2.26-2.03-4.21-4.2-5.79-6.45c-0.29-0.41-0.57-0.84-0.87-1.32c-0.39,0.35-0.78,0.69-1.19,1.03
				c-5.29,4.36-11.69,8.09-19.01,11.07c-9.79,3.99-19.91,6.05-30.07,6.11l-0.56,0c-14.24,0-25.41-3.34-33.2-9.92
				c-4.95-4.19-8.34-9-10.34-14.73c-0.17-0.48-0.33-0.98-0.48-1.5c-0.34,0.39-0.69,0.78-1.04,1.17
				c-4.9,5.38-10.48,10.35-16.58,14.79c-9.51,6.91-18.92,10.45-27.97,10.5l-0.22,0c-7.25,0-12.53-2.1-16.11-6.43
				c-2.2-2.65-3.81-6-4.81-9.95c-0.13-0.5-0.24-1.01-0.35-1.53c-0.26,0.23-1.17,1.04-1.17,1.04c-2.73,2.43-5.51,4.69-8.28,6.74
				c-9.34,6.91-18.17,10.43-26.25,10.48l-0.36,0c-9.27,0-16.29-2.24-20.87-6.66c-4.71-4.54-7.14-10.42-7.42-17.95
				c-0.21-5.58,0.77-11.62,2.9-17.94c2.15-6.38,5.23-12.58,9.14-18.41l0.56,0.18l-0.49-0.28c0.62-1.1,0.9-1.99,0.87-2.8
				c-0.05-1.37-1.02-2.29-2.42-2.29c-1.28,0.01-2.37,0.99-3.08,1.72c-2.66,2.75-6.36,9.06-11.31,19.31
				c-4.84,9.49-9.13,17.33-12.77,23.32c-3.58,5.89-8,11.16-13.14,15.66c-5.03,4.4-10.31,6.55-16.14,6.59l-0.14,0
				c-12.68,0-14.53-10.37-14.82-18.16c-0.25-6.89,0.86-15.08,3.3-24.35c2.25-8.53,5.67-18.1,10.16-28.45
				c0.71-1.63,1.44-3.29,2.2-4.97c10.97-24.08,24.44-45.56,40.04-63.83c15.14-17.73,28.83-26.89,40.68-27.24 M657.17,386.53
				c-1.19,0.01-2.31,0.69-3.42,2.08c-6.32,8.4-10.88,16.82-13.56,25.06c-0.19,0.64-0.28,1.38-0.25,2.21
				c0.14,3.69,2.66,3.98,3.43,3.98c1.9-0.01,3.44-1.5,4.6-4.44l0.58,0.06l-0.54-0.17c0.98-3.11,2.61-6.81,4.85-11
				c2.25-4.21,4.77-8.27,7.5-12.08l0.09-0.12l0.06-0.14c0.46-0.99,0.61-1.48,0.59-1.96c-0.02-0.63-0.25-1.56-1.18-2.45
				C659.2,386.88,658.27,386.53,657.17,386.53L657.17,386.53z"/>
			<path class="st0" d="M495.78,314.91c-11.81,0.07-25.54,9.17-40.81,27.05c-15.57,18.23-29.01,39.66-39.96,63.69
				c-0.76,1.68-1.49,3.33-2.2,4.96c-4.51,10.39-7.89,19.86-10.13,28.37c-2.43,9.21-3.54,17.3-3.28,24.19
				c0.28,7.56,2.06,17.61,14.25,17.61l0.14,0c5.69-0.03,10.85-2.14,15.77-6.45c5.1-4.46,9.48-9.69,13.03-15.53
				c3.63-5.98,7.92-13.81,12.75-23.27c4.97-10.29,8.71-16.67,11.41-19.46c0.78-0.81,2-1.89,3.49-1.9c1.71,0,2.92,1.17,2.99,2.84
				c0.03,0.92-0.27,1.9-0.95,3.1l-0.04,0.07l-0.04,0.07c-3.89,5.79-6.94,11.94-9.07,18.28c-2.11,6.26-3.07,12.23-2.87,17.74
				c0.27,7.38,2.64,13.13,7.24,17.56c4.47,4.31,11.36,6.5,20.47,6.5l0.36,0c7.95-0.05,16.67-3.54,25.91-10.37
				c2.88-2.13,5.62-4.37,8.24-6.7c0.64-0.57,1.29-1.14,1.92-1.72c0.15,0.86,0.33,1.69,0.53,2.5c0.97,3.85,2.53,7.12,4.69,9.73
				c3.47,4.19,8.6,6.23,15.67,6.23l0.22,0c8.93-0.05,18.23-3.55,27.64-10.39c6.12-4.45,11.64-9.38,16.5-14.72
				c0.59-0.64,1.15-1.3,1.72-1.95c0.22,0.84,0.47,1.67,0.76,2.48c1.96,5.6,5.33,10.39,10.17,14.49c7.68,6.49,18.73,9.79,32.83,9.79
				l0.56,0c10.1-0.06,20.14-2.1,29.86-6.07c7.29-2.97,13.61-6.66,18.86-10.99c0.58-0.48,1.13-0.97,1.68-1.47
				c0.38,0.63,0.78,1.26,1.21,1.87c1.56,2.23,3.46,4.34,5.7,6.35c7.03,6.31,17.8,9.51,32.02,9.51l0.59,0
				c10.35-0.06,20-2.36,28.68-6.83c8.51-4.38,14.68-11.16,18.35-20.15c2.41-5.98,3.55-11.3,3.38-15.8
				c-0.25-6.74-2.95-12.61-8.27-17.95c-5.45-5.46-13.68-10.58-24.45-15.22l-0.04-0.02l-0.04-0.02c-1.47-0.7-2.5-2.4-1.48-4.59
				c0.73-1.57,2.11-2.48,3.78-2.49l0.35,0l0.34,0.11l0.74,0.24c6.2,1.94,12.47,2.92,18.62,2.92l0.35,0
				c6.16-0.04,11.51-1.14,15.9-3.27c4.23-2.05,6.91-4.75,8.2-8.26c1.24-3.15,1.81-6.11,1.71-8.85c-0.2-5.39-2.99-9.35-8.54-12.09
				c-5.94-2.94-15-4.43-26.92-4.43l-0.89,0c-13.61,0.08-24.52,2.07-32.43,5.9c-7.72,3.75-13.42,9.72-16.95,17.75
				c-1.38,2.95-2.01,5.95-1.9,8.97c0.21,5.65,3.11,11.1,8.63,16.19c5.76,5.32,13.73,10.05,23.69,14.06l0.07,0.03l0.06,0.03
				c3.18,1.52,2.44,3.89,2.25,4.35c-0.33,0.83-1.26,2.23-3.85,2.25l-0.49,0l-0.2,0l-0.19-0.03c-5.64-0.97-9.99-2.1-13.29-3.44
				c-3.23-1.31-6.45-2.97-9.55-4.94c-2.05-1.2-3.83-2.11-5.28-2.7c-1.26-0.51-3.03-0.77-5.24-0.77l-0.18,0
				c-5.47,0.03-9.89,2.6-13.51,7.84c-0.88,1.28-1.65,2.61-2.31,3.99c-0.42,0.88-0.8,1.77-1.13,2.69c-0.88,0.29-1.74,0.56-2.6,0.83
				c-10.57,3.27-19.91,4.96-27.86,5.01l-0.36,0c-7.19,0-13.39-1.35-18.43-4.02l-0.03-0.02l-0.03-0.02
				c-1.53-0.88-3.57-2.29-3.64-4.47c-0.01-0.39-0.06-1.56,0.72-2.46c0.71-0.87,1.78-1.34,3.04-1.34c1.04,0,2.26,0.32,3.73,0.96
				l0.03,0.01l0.03,0.01c3.9,1.88,9,2.83,15.14,2.83l0.37,0c8.65-0.05,16.28-2.14,22.65-6.2c6.4-4.08,11.33-9.33,14.64-15.59
				c3.31-6.26,4.86-12.82,4.61-19.49c-0.3-8.02-3.17-14.51-8.78-19.84c-5.47-5.19-13.45-7.82-23.69-7.82l-0.37,0
				c-13.29,0.08-25.71,4.44-36.92,12.96c-11.33,8.61-20.33,19.48-26.74,32.29c-1.98,3.95-3.63,7.83-4.96,11.65
				c-0.32,0.92-0.62,1.83-0.9,2.74l-0.62,1.91l-1.4,2.78c-1.58,2.53-5.03,4.61-10.4,5.67c-1.39,0.27-2.72,0.23-3.44,0.23
				c-0.34,0-0.68-0.05-1.01-0.14c-1.49-0.4-2.45-1.55-2.51-3l-0.02-0.53l0.22-0.48l0.45-0.97l0.07-0.16l0.1-0.15
				c6.38-9.39,11.83-19.23,16.19-29.25c4.28-9.84,6.33-18.07,6.09-24.48c-0.27-7.34-3.83-10.62-11.53-10.62l-0.16,0
				c-8.95,0.05-18.42,5.18-28.14,15.22c-9.97,10.3-18.15,22.82-24.32,37.21c-0.73,1.72-1.41,3.41-2.05,5.08
				c-0.38,0.99-0.75,1.98-1.1,2.96c0,0-1.21,3.52-2.18,4.1c-2.27,1.36-2.87,1.77-5.75,2.62l-2.36,0.19l-0.79,0.01l-0.1,0
				c-4.36,0-8.11-1.74-11.15-5.16c-2.97-3.34-4.55-7-4.69-10.9c-0.08-2.12,0.47-3.97,1.63-5.51c1.24-1.64,3.09-2.59,5.52-2.83
				l0.06-0.01l0.06,0c7.59-0.35,13.98-1.93,19.02-4.69c4.97-2.73,8.67-6.1,10.98-10.02c2.3-3.9,3.4-7.94,3.24-12.01
				c-0.17-4.48-1.72-8.19-4.75-11.35c-2.95-3.07-6.76-4.56-11.63-4.56l-0.14,0c-8.37,0.05-17.15,2.65-26.12,7.74
				c-9.07,5.15-17.46,11.66-24.94,19.37c-0.87,1.16-1.88,1.75-2.99,1.76c-1.61,0-2.8-1.09-2.86-2.6l-0.02-0.43l0.15-0.4l0.44-1.21
				l0.11-0.3l0.19-0.25l7.92-10.69c9.9-12.89,17.55-23.7,22.78-32.15c5.05-8.16,7.51-15,7.31-20.34c-0.11-2.99-1.2-7.15-9.37-8.74
				c-1.46-0.28-2.63-0.42-3.45-0.42 M639.65,413.5c2.71-8.32,7.29-16.78,13.62-25.19l0.02-0.03l0.02-0.03
				c1.23-1.54,2.49-2.29,3.87-2.29c0,0,0,0,0,0c1.23,0,2.31,0.41,3.14,1.19c1.07,1.03,1.32,2.11,1.35,2.84
				c0.02,0.57-0.14,1.13-0.65,2.22l-0.09,0.18l-0.12,0.17c-2.72,3.78-5.23,7.83-7.46,12.01c-2.22,4.16-3.84,7.83-4.81,10.9
				l-0.02,0.07l-0.03,0.07c-1.25,3.17-2.97,4.79-5.1,4.8h-0.01l-0.02,0c-1.85,0-3.87-1.19-4-4.52
				C639.34,415.01,639.43,414.2,639.65,413.5z"/>
		</g>
	</g>
</g>
<g>
	<path class="st1" d="M210.99,310.84v-1.01c0-2-2.25-3.23-4.34-3.23c-2.27,0-3.43,2.31-4.13,3.69l-0.1,0.22
		c-0.41,0.57-1.34,2.39-2.31,4.3c-0.76,1.49-1.54,3.02-1.81,3.42c-0.45,0.56-1.08,1.09-1.31,1.09h-8.7
		c-0.02-0.12-0.04-0.29-0.04-0.44c0-0.71,0.1-0.91,0.38-1.46c0.16-0.31,0.36-0.7,0.59-1.3c0.15-0.24,0.36-0.67,0.51-1l1.77-3.35
		c0.24-0.52,0.41-0.84,0.47-0.92l0.1-0.32v-0.35c0-2.07-3.09-3.59-4.7-3.59c-1.27,0-1.77,0.49-2.46,1.17l-0.1,0.13
		c-4.66,8.33-12.48,23.55-12.48,31.82c0,2.29,2.31,4.89,4.34,4.89c2.22,0,3.27-3.87,4.49-8.34c0.98-3.6,2.09-7.67,3.76-8.88
		c1.11-0.83,3.49-0.92,5.19-0.92c0.5,0,0.98,0.01,1.42,0.02c0.38,0.01,0.72,0.01,1.02,0.01c1.5,0,1.5,0.2,1.5,1.14
		c0,1.86-0.71,3.67-1.46,5.57c-0.81,2.04-1.64,4.16-1.64,6.5c0,2.33,2.62,4.89,5.01,4.89c1.02,0,1.48-0.5,1.9-1.31l0.04-0.11
		c2.95-10.53,7.22-21.03,13.04-32.09L210.99,310.84z"/>
	<path class="st1" d="M428.26,328.09c-1.1,0-2.3,1.17-3.98,2.78c-2.59,2.5-6.13,5.92-10.5,5.92c-1.38,0-3.57-0.39-3.57-1.44
		c0-0.13,0-0.27-0.03-0.27c0,0,0,0-0.01,0c0.04-0.04,0.21-0.12,0.39-0.21c3.89-1.03,12.78-4.2,12.78-11.6c0-3.65-3.5-4.94-6.77-4.94
		c-6.5,0-12.23,4.42-14.6,10.52c-0.86,0.74-1.54,1.93-2.25,3.17c-1.24,2.17-2.53,4.42-4.81,4.42c-1.42,0-1.5-0.08-1.5-1.45
		c0-4.53,2.5-9.07,4.92-13.46c2.49-4.51,5.06-9.18,5.06-14.01c0-2.19-3.53-3.59-5.01-3.59c-1.21,0-2.12,1.02-2.6,2.03l-4.5,12.07
		l-0.01,0.06c-0.15,0.24-0.99,0.87-1.16,0.93c-0.82,0-1.54-0.16-2.3-0.34c-0.79-0.18-1.61-0.37-2.56-0.37
		c-6.46,0-11.85,4.98-14.3,10.8c-0.69,0.74-1.29,1.78-1.91,2.86c-1.24,2.19-2.53,4.45-4.62,4.45c-1.45,0-1.86-0.39-1.86-1.75
		c0-2.28,1.15-4.46,2.26-6.57c1.1-2.09,2.24-4.25,2.24-6.51c0-1.78-2.48-3.28-4.03-3.28c-0.63,0-1.14,0.21-1.59,0.4
		c-0.4,0.17-0.75,0.31-1.15,0.31c-0.83,0-1.64-0.17-2.51-0.34c-0.86-0.18-1.76-0.36-2.66-0.36c-6.46,0-11.71,4.93-14.06,10.78
		c-0.79,0.78-1.46,1.9-2.15,3.07c-1.33,2.26-2.71,4.6-4.98,4.6c-0.72,0-1.5-0.76-1.5-1.44c0-2.18,1.13-4.07,2.32-6.07
		c1.22-2.04,2.49-4.16,2.49-6.65c0-2.66-1.98-4.59-4.7-4.59c-3.54,0-6.42,2.91-8.53,5.04c-0.17,0.17-0.33,0.34-0.49,0.49
		c-0.13-0.24-0.28-0.67-0.39-1c-0.58-1.69-1.56-4.53-5.37-4.53c-2.86,0-5.26,2.74-7.19,4.95c-1.08,1.23-2.19,2.51-2.94,2.72
		c0.14-0.6,0.41-1.26,0.69-1.96c0.48-1.17,1.01-2.49,1.01-3.83c0-1.81-2.85-2.58-3.98-2.58c-1.28,0-2.53,0.88-2.98,2.12
		c-0.34,1.18-1.62,4.47-2.87,7.66c-0.21,0.53-0.41,1.04-0.6,1.55c-1.01,0.69-1.96,1.93-3.01,3.31c-1.72,2.27-3.67,4.84-6.05,4.84
		c-0.53,0-1.2-0.1-1.5-0.58v-1.21c0-1.92,3.07-11.05,4.89-12.24c0.51-0.3,1.47-0.35,2.39-0.39c1.72-0.09,4.09-0.2,4.09-2.46
		c0-1.51-1.16-2.23-2.09-2.81c-0.85-0.53-1.37-0.89-1.37-1.51c0-0.6,0.15-1.14,0.31-1.71c0.18-0.62,0.36-1.26,0.36-2.02
		c0-2.34-2.91-3.59-5.01-3.59c-2.35,0-3.45,3.78-4.05,5.82c-0.1,0.36-0.22,0.77-0.31,0.93c-0.35,0.9-1.18,1.1-2.51,1.32
		c-1.34,0.22-3,0.5-3,2.56c0,1.02,0.58,1.73,1.1,2.36c0.52,0.63,0.97,1.17,0.97,2.02c0,1.81-0.66,3.58-1.46,5.42
		c-0.85,0.69-1.59,1.9-2.41,3.23c-1.29,2.12-2.76,4.52-4.71,4.52c-0.77,0-0.83-0.1-0.83-0.74c0-1.91,1.05-3.74,2.06-5.51
		c1.02-1.78,2.07-3.61,2.07-5.56c0-1.98-1.99-2.3-3.75-2.58c-2.68-0.43-5.22-0.84-4.84-5.11l-0.17-0.46
		c-1.2-1.17-2.11-1.17-3.5-1.17h-1.76l-0.18,0.03c-1.63,0.56-3.49,11.2-3.49,11.3c0,0.69,0.16,1.16,0.39,1.49
		c-1.55,0.23-2.56,1.98-3.63,3.86c-1.24,2.19-2.53,4.45-4.62,4.45c-1.45,0-1.86-0.39-1.86-1.75c0-2.28,1.15-4.46,2.26-6.57
		c1.1-2.09,2.24-4.25,2.24-6.51c0-1.78-2.48-3.28-4.03-3.28c-0.63,0-1.14,0.21-1.58,0.4c-0.4,0.17-0.75,0.31-1.15,0.31
		c-0.83,0-1.64-0.17-2.51-0.34c-0.86-0.18-1.76-0.36-2.66-0.36c-6.56,0-11.88,5.08-14.18,11.06c-0.48,0.42-1,0.92-1.58,1.48
		c-2.59,2.5-6.13,5.92-10.5,5.92c-1.38,0-3.57-0.39-3.57-1.44c0-0.13,0-0.27-0.03-0.27c0,0,0,0-0.01,0
		c0.04-0.04,0.21-0.12,0.39-0.21c3.89-1.03,12.78-4.2,12.78-11.6c0-3.65-3.5-4.94-6.77-4.94c-8.55,0-15.77,7.63-15.77,16.67
		c0,5.76,4.38,9.62,10.91,9.62c4.82,0,9.23-2.1,12.92-6.03v0.13l0.01,0.12c0.78,3.51,3.58,5.78,7.12,5.78
		c3.04,0,5.33-2.26,7.36-4.26l0.42-0.42h0.49c0.4,0,0.87,0.64,1.36,1.31c0.95,1.29,2.26,3.06,4.84,3.06
		c5.76,0,13.65-9.35,13.65-14.65c0-0.32-0.1-0.6-0.26-0.84c1.01-0.21,1.5-1.1,1.91-1.83c0.52-0.93,0.88-1.5,1.76-1.5
		c1.35,0,2.17,1.43,2.17,2.45c0,1.51-0.77,2.99-1.59,4.55c-0.9,1.72-1.83,3.5-1.83,5.51c0,3.48,2.71,6.3,6.05,6.3
		c2.65,0,5.74-1.85,8.34-4.35c0.92,2.65,3.27,4.35,6.34,4.35c2.99,0,5.55-1.04,7.74-2.66c0.2,1.83,2.37,2.66,3.94,2.66
		c1.18,0,1.78-0.07,2.55-1.63c0.3-0.49,0.88-1.44,1.56-2.58c1.55-2.59,3.9-6.5,4.66-7.51c1.14-2.13,4.93-7.75,6.74-7.75
		c0.42,0,0.47,0.55,0.47,0.79c0,2.73-1.48,5.31-2.91,7.81c-1.44,2.52-2.94,5.13-2.94,7.94c0,2.14,2.47,2.93,4.03,2.93
		c1.18,0,1.65-0.43,2.3-1.02l0.14-0.13l0.11-0.14c0.23-0.4,0.66-1.08,1.22-1.96l0.22-0.34l4.4-7.15c0.61-1.05,1.13-1.89,1.39-2.3
		c0.13-0.2,0.27-0.45,0.44-0.73c1.1-1.87,3.15-5.34,5.28-5.34c0.03,0,0.06,0,0.08,0c0.02,0.15,0.02,0.46,0.02,0.74
		c0,1.97-1,3.92-2.07,5.98c-1.19,2.31-2.43,4.71-2.43,7.45c0,3.35,2.31,5.6,5.74,5.6c4.29,0,7.8-2.67,10.42-5.75
		c0.9,3.29,3.59,5.4,7,5.4c3.05,0,5.34-2.27,7.36-4.27l0.42-0.41h0.49c0.4,0,0.87,0.64,1.36,1.31c0.95,1.29,2.26,3.06,4.84,3.06
		c2.8,0,6.09-2.21,8.75-5.09c0.92,2.97,3.06,5.39,6.61,5.39c3.25,0,5.66-2.26,7.78-4.33h0.49c0.46,0,1.07,0.64,1.71,1.32
		c1.14,1.2,2.56,2.7,4.8,2.7c3.43,0,7.22-2.56,9.99-5.79c1.43,3.75,5.2,6.09,10.27,6.09c7.55,0,14.1-5.12,18.45-14.41l0.05-0.24
		C430.23,328.7,429.58,328.09,428.26,328.09z M416.01,325.28c0,2.29-3.86,5.82-6.36,5.82c-0.41,0-0.47,0-0.47-1.14
		c0-2.39,2.58-5.47,5.33-5.47C414.87,324.49,416.01,324.55,416.01,325.28z M377.55,334.34c0-4.24,3.21-10.15,8.43-10.15
		c1.91,0,2.17,0.69,2.17,1.45c0,3.88-4.63,11.15-8.74,11.15C377.94,336.79,377.55,335.19,377.55,334.34z M347.41,334.34
		c0-4.15,2.98-10.15,8.38-10.15c2.53,0,2.53,1.05,2.53,1.45c0,4-4.4,11.15-8.74,11.15C348.08,336.79,347.41,335.56,347.41,334.34z
		 M236.27,334.34c0-4.15,2.98-10.15,8.38-10.15c2.54,0,2.54,1.05,2.54,1.45c0,4-4.4,11.15-8.74,11.15
		C236.94,336.79,236.27,335.56,236.27,334.34z M219.94,325.28c0,2.29-3.86,5.82-6.36,5.82c-0.41,0-0.47,0-0.47-1.14
		c0-2.39,2.58-5.47,5.33-5.47C218.79,324.49,219.94,324.55,219.94,325.28z"/>
</g>
</svg>
