<svg width="63" height="68" viewBox="0 0 63 68" fill="none" xmlns="http://www.w3.org/2000/svg">
<path d="M41.8829 65.7466C41.8829 66.7366 41.1328 67.3966 40.2228 67.3966C39.3128 67.3966 38.5529 66.7366 38.5529 65.7466C38.5529 64.7566 39.3028 64.0966 40.2128 64.0966C41.1328 64.1066 41.8829 64.7666 41.8829 65.7466ZM41.0729 66.6166C41.3029 66.3866 41.4128 66.0966 41.4128 65.7466C41.4128 65.3966 41.3029 65.1066 41.0729 64.8766C40.8529 64.6466 40.5728 64.5366 40.2228 64.5366C39.8728 64.5366 39.5929 64.6466 39.3629 64.8766C39.1429 65.1066 39.0328 65.3966 39.0328 65.7466C39.0328 66.0966 39.1429 66.3866 39.3729 66.6166C39.6029 66.8466 39.8828 66.9566 40.2328 66.9566C40.5728 66.9566 40.8529 66.8466 41.0729 66.6166ZM40.5428 66.5366L40.4929 66.1866C40.4629 65.9866 40.3929 65.9166 40.1929 65.9166H39.9828V66.5366H39.5629V64.8466H40.4429C40.7929 64.8466 40.9929 65.0366 40.9929 65.3166C40.9929 65.5366 40.8529 65.6966 40.6229 65.7566C40.8529 65.8166 40.9229 65.9566 40.9529 66.1666L41.0228 66.5366H40.5428ZM39.9728 65.2166V65.6666H40.3229C40.4929 65.6666 40.5828 65.5766 40.5828 65.4366C40.5828 65.2866 40.4929 65.2166 40.3129 65.2166H39.9728Z" fill="#311012"/>
<path d="M60.9729 8.19653C59.2329 5.06653 56.4129 3.09653 53.3629 1.72653C51.7029 0.986532 49.9529 0.536529 48.1729 0.286529C46.4929 0.0465295 44.8229 -0.0234693 43.1529 0.00653068C40.7629 0.0565307 38.3729 0.306532 35.9629 0.546532C34.2829 0.716532 32.6029 0.94653 30.9329 1.21653C29.2829 1.48653 27.6429 1.81653 26.0029 2.14653C23.6929 2.60653 21.4029 3.15652 19.1629 3.90652C17.0029 4.61652 14.9029 5.47653 12.9229 6.67653C11.3929 7.60653 10.4728 9.03652 10.0228 10.8365C9.35285 13.5465 10.4229 16.1065 12.6929 17.1765C13.3329 17.4765 14.0329 17.6265 14.7129 17.7865C15.2629 17.9165 15.4529 18.3165 15.1629 18.8365C14.9529 19.2065 14.7529 19.5765 14.5429 19.9465C12.2329 23.9665 10.1829 28.1465 8.23287 32.3765C6.83287 35.4165 5.47285 38.4765 4.15285 41.5665C2.84285 44.6365 1.64286 47.7565 0.662863 50.9665C-0.497137 54.8065 -0.2371 59.0665 2.2629 62.2065C5.6829 66.4965 10.3829 66.6065 15.2429 66.3365C18.0529 66.1865 20.8329 65.8165 23.6129 65.3165C27.5729 64.5965 31.4629 63.5665 35.2729 62.1765C38.9229 60.8465 42.4329 59.1765 45.6729 56.8965C47.9229 55.3165 49.9729 53.4865 51.6029 51.1465C53.1529 48.9065 54.1428 46.4665 53.8928 43.5665C53.7428 41.8565 53.3329 40.2765 52.3229 38.9165C51.6329 37.9865 50.8129 37.1965 49.9629 36.4465C48.7129 35.3465 47.4329 34.2965 45.9929 33.5065C45.4629 33.2165 44.9129 32.9965 44.3729 32.7365C44.0129 32.5665 43.8929 32.1365 44.1529 31.8765C44.2429 31.7865 44.3729 31.7365 44.4929 31.6865C45.8529 31.1465 47.2129 30.6365 48.5629 30.0765C50.9529 29.0765 53.3729 28.1765 55.5629 26.6665C57.6429 25.2365 59.4129 23.5065 60.6629 21.1765C61.6029 19.4365 62.3429 17.6165 62.5129 15.5865C62.7529 12.9565 62.2329 10.4765 60.9729 8.19653ZM30.9729 40.6565C29.5829 43.5265 28.1929 46.3865 26.7929 49.2465C26.5729 49.6965 26.3029 50.1265 25.9929 50.5165C25.6729 50.9165 25.2229 51.0865 24.7329 51.0865C24.1829 51.0965 23.3229 50.7965 23.3229 50.1965C23.3029 50.1865 23.3429 50.1465 23.3229 50.1365C23.3929 49.6765 23.5329 49.3565 23.7029 49.0065C25.0529 46.2565 26.4229 43.5165 27.7829 40.7765C28.0729 40.1865 28.4429 39.3565 29.0529 39.1465C29.3929 39.0265 30.0729 39.1365 30.2329 39.1465C30.6429 39.2465 31.2129 39.6565 31.1629 40.0765C31.1329 40.2765 31.0629 40.4765 30.9729 40.6565ZM40.3429 17.7865C38.9529 20.6565 37.5629 23.5165 36.1629 26.3765C35.9429 26.8265 35.6729 27.2565 35.3629 27.6465C35.0429 28.0465 34.5929 28.2165 34.1029 28.2165C33.5529 28.2265 32.6929 27.9265 32.6929 27.3265C32.6729 27.3165 32.7129 27.2765 32.6929 27.2665C32.7629 26.8065 32.9029 26.4865 33.0729 26.1365C34.4229 23.3865 35.7929 20.6465 37.1529 17.9065C37.4429 17.3165 37.8129 16.4865 38.4229 16.2765C38.7629 16.1565 39.4429 16.2665 39.6029 16.2765C40.0129 16.3765 40.5829 16.7865 40.5329 17.2065C40.5029 17.4065 40.4329 17.6065 40.3429 17.7865Z" fill="#311012"/>
</svg>
