<svg width="124" height="126" viewBox="0 0 124 126" fill="none" xmlns="http://www.w3.org/2000/svg">
<path d="M50.7963 125.491C49.6863 125.301 49.2963 124.201 49.4563 123.191C49.4863 122.971 49.4763 122.281 49.9263 122.351C49.9563 122.361 50.0063 122.361 50.0563 122.391L50.4363 122.541C50.5163 122.571 50.5863 122.581 50.6863 122.601C52.1063 122.841 52.4763 120.481 52.6263 119.461C52.7163 118.891 53.1463 116.091 52.0563 115.901L50.8363 115.691C50.7363 115.671 50.8063 115.221 50.8063 115.221C51.0363 113.751 51.2763 112.871 52.9263 113.151C55.7963 113.631 55.6163 117.641 55.2863 119.781C54.9363 122.041 53.7663 126.001 50.7963 125.491Z" fill="#320E10"/>
<path d="M43.0363 123.541C39.8363 122.511 40.4363 119.021 41.2163 116.511C41.9863 114.021 43.4063 110.541 46.5963 111.561C49.9063 112.621 49.2863 116.131 48.4763 118.731C47.6763 121.351 46.2263 124.571 43.0363 123.541ZM45.3863 119.651L46.4563 116.181C46.6563 115.531 46.7863 114.371 45.9363 114.101C45.1863 113.861 44.5663 114.731 44.3663 115.391L43.2363 119.091C43.0363 119.741 43.0563 120.821 43.8063 121.061C44.6463 121.321 45.1863 120.301 45.3863 119.651Z" fill="#320E10"/>
<path d="M36.9463 120.901L33.1264 119.041C33.0164 118.991 32.9663 118.581 33.0163 118.491C33.0663 118.381 33.2663 117.971 33.2663 117.971C33.5063 117.461 33.4563 117.301 33.8063 117.101L33.9364 117.051L35.2563 117.691L35.5963 117.481L35.9863 116.651C36.1763 116.251 34.9264 116.021 35.1264 115.611L35.8563 114.071C36.0563 113.651 37.0063 114.501 37.1963 114.101L39.4763 109.271L39.7863 109.171L41.9963 110.241L36.9463 120.901Z" fill="#320E10"/>
<path d="M30.6663 117.671L27.0763 115.381C26.9763 115.321 26.9763 114.911 27.0263 114.821C27.0863 114.721 27.3363 114.331 27.3363 114.331C27.6363 113.851 27.5963 113.691 27.9763 113.531L28.1163 113.501L29.3463 114.291L29.7063 114.121L30.1963 113.341C30.4263 112.961 29.2163 112.591 29.4563 112.201L30.3563 110.761C30.5963 110.371 31.4564 111.321 31.6864 110.951L34.5163 106.421L34.8263 106.361L36.8963 107.681L30.6663 117.671Z" fill="#320E10"/>
<path d="M24.7663 113.721L21.4663 111.021C21.3763 110.941 21.4164 110.541 21.4864 110.461C21.5664 110.371 21.8463 110.011 21.8463 110.011C22.1963 109.571 22.1763 109.411 22.5763 109.291L22.7163 109.281L23.8463 110.211L24.2263 110.081L24.8064 109.371C25.0864 109.031 23.9163 108.511 24.2063 108.151L25.2663 106.831C25.5563 106.471 26.2964 107.521 26.5664 107.171L28.4864 104.791L28.4663 104.471L27.2563 103.481C26.8163 103.121 27.4663 102.491 27.6063 102.321C27.6763 102.231 27.9663 101.871 28.0263 101.791C28.1063 101.701 28.4863 101.571 28.5763 101.651L32.1363 104.561L24.7663 113.721Z" fill="#320E10"/>
<path d="M19.0963 108.871L16.1363 105.801C16.0563 105.721 16.1463 105.321 16.2163 105.251C16.2963 105.171 16.6264 104.851 16.6264 104.851C17.0264 104.461 17.0264 104.291 17.4364 104.231H17.5763L18.5963 105.291L18.9964 105.211L19.6563 104.571C19.9763 104.261 18.8763 103.611 19.2063 103.291L20.4163 102.111C20.7463 101.791 21.3563 102.911 21.6763 102.611L23.8663 100.481L23.8863 100.161L22.7963 99.0312C22.3963 98.6212 23.1263 98.0711 23.2863 97.9211C23.3663 97.8411 23.6963 97.5211 23.7763 97.4511C23.8663 97.3711 24.2563 97.2912 24.3363 97.3712L27.5263 100.691L19.0963 108.871Z" fill="#320E10"/>
<path d="M17.8663 92.4812C17.5863 92.0212 17.0264 91.6712 16.4964 92.0012C15.2564 92.7712 15.1163 95.7612 12.9863 97.0712C11.5463 97.9612 9.6963 97.7712 8.7563 96.2512C8.1063 95.1912 8.37632 94.1112 9.52632 93.4012C9.62632 93.3412 10.0563 93.1912 10.2763 93.3312C10.3963 93.5212 10.2963 94.2312 10.4663 94.5212C10.7663 95.0112 11.1464 95.1712 11.6264 94.8812C13.5464 93.7012 13.5063 90.8112 15.4263 89.6312C17.0763 88.6212 18.8963 89.2212 19.8363 90.7412C20.1363 91.2312 20.7963 92.5312 20.1363 92.9312L18.4063 94.0012C18.3063 94.0612 18.2464 93.9812 18.1864 93.8812C18.0164 93.5812 18.0063 92.9312 17.8663 92.4812Z" fill="#320E10"/>
<path d="M16.2863 87.4511L7.27631 91.4112C7.16631 91.4612 6.89634 91.6911 6.80634 91.7311C6.80634 91.7311 6.80629 91.7312 6.69629 91.7812C6.58629 91.8312 6.40631 91.6711 6.40631 91.6711L5.44629 89.5112L5.55634 89.2212L8.4563 87.9412C8.6563 87.8512 8.56631 87.6412 8.52631 87.5412C8.42631 87.3212 8.2963 87.0211 8.0863 87.1111L4.97632 88.4811L3.92633 86.1212L13.7563 81.8011C13.8663 81.7511 14.1263 81.5112 14.2163 81.4712L14.3263 81.4211C14.4363 81.3711 14.6363 81.2812 14.7363 81.5012L15.6963 83.6612L15.5863 83.9511L10.7063 86.1012C10.6163 86.1412 10.6363 86.5012 10.6363 86.5012C10.6763 86.5912 10.8963 86.8811 11.0263 86.8311L15.9063 84.6912L16.1963 84.8011L17.2063 87.0612C17.2463 87.1512 17.0463 87.2411 17.0463 87.2411C16.7463 87.3611 16.6363 87.4111 16.2863 87.4511Z" fill="#320E10"/>
<path d="M1.55633 79.7112C0.676334 76.4612 3.94631 75.1312 6.46631 74.4712C8.97631 73.8112 12.6763 73.1912 13.5563 76.4512C14.4663 79.8212 11.1763 81.1312 8.55633 81.8212C5.93633 82.5112 2.43633 82.9612 1.55633 79.7112ZM6.11633 79.6712L9.61633 78.7612C10.2763 78.5912 11.3163 78.0912 11.0863 77.2312C10.8763 76.4712 9.8063 76.4012 9.1463 76.5712L5.41632 77.5412C4.75632 77.7112 3.85634 78.2912 4.06634 79.0612C4.29634 79.9212 5.45633 79.8412 6.11633 79.6712Z" fill="#320E10"/>
<path d="M0.416291 73.2211L0.016267 69.6611C-0.183733 67.8711 1.49627 66.6811 3.08627 66.5211C7.14627 66.1011 7.44631 69.7911 7.99631 69.7411L11.8363 69.3511L12.1163 71.8111L11.9163 72.0511L0.416291 73.2211ZM2.69626 70.2811L4.84628 70.0611C5.06628 70.0411 5.05628 69.9211 5.02628 69.7011C4.99628 69.4811 4.73627 69.0511 4.39627 69.0911L2.9263 69.2411C2.7063 69.2611 2.28632 69.6411 2.31632 69.8611C2.33632 70.0911 2.47626 70.3011 2.69626 70.2811Z" fill="#320E10"/>
<path d="M4.14628 56.9212C4.24628 55.9212 4.99627 55.3312 6.00627 55.4512C7.02627 55.5712 7.74628 56.3312 7.64628 57.3312C7.54628 58.3312 6.66629 59.0112 5.65629 58.8912C4.63629 58.7712 4.03628 57.9212 4.14628 56.9212Z" fill="#320E10"/>
<path d="M2.51627 42.8111C2.84627 41.7411 3.98628 41.5311 4.96628 41.8511C5.17628 41.9211 5.86629 42.0211 5.72629 42.4511C5.71629 42.4811 5.70629 42.5311 5.66629 42.5711L5.46628 42.9311C5.42628 43.0011 5.40631 43.0711 5.37631 43.1611C4.94631 44.5311 7.21626 45.2811 8.19626 45.6011C8.74626 45.7811 11.4463 46.6611 11.7763 45.6111L12.1463 44.4311C12.1763 44.3311 12.6163 44.4811 12.6163 44.4811C14.0263 44.9411 14.8563 45.3211 14.3563 46.9211C13.4863 49.7011 9.57626 48.8811 7.50626 48.2011C5.34626 47.4911 1.61627 45.6811 2.51627 42.8111Z" fill="#320E10"/>
<path d="M5.46629 35.4311C6.89629 32.4111 10.2563 33.5511 12.6263 34.7111C14.9763 35.8611 18.2163 37.8212 16.7863 40.8412C15.2963 43.9612 11.9363 42.8012 9.4763 41.6012C7.0163 40.3912 4.03629 38.4511 5.46629 35.4311ZM8.99632 38.3812L12.2663 39.9811C12.8863 40.2811 14.0063 40.5912 14.3863 39.7912C14.7263 39.0812 13.9463 38.3312 13.3263 38.0312L9.83629 36.3212C9.22629 36.0212 8.15633 35.8711 7.81633 36.5811C7.43633 37.3811 8.37632 38.0812 8.99632 38.3812Z" fill="#320E10"/>
<path d="M10.5763 26.5811C12.4763 23.8411 15.6163 25.5111 17.7763 27.0411C19.9163 28.5611 22.8063 31.0111 20.9063 33.7511C18.9363 36.5811 15.7963 34.8911 13.5563 33.3111C11.3163 31.7311 8.67628 29.3211 10.5763 26.5811ZM13.5863 30.0611L16.5663 32.1711C17.1263 32.5711 18.1863 33.0511 18.6863 32.3311C19.1363 31.6911 18.4863 30.8211 17.9263 30.4211L14.7463 28.1711C14.1863 27.7711 13.1563 27.4511 12.7063 28.1011C12.2163 28.8211 13.0263 29.6611 13.5863 30.0611Z" fill="#320E10"/>
<path d="M22.9463 29.4211C20.5563 27.1011 14.9563 21.5211 14.9563 21.5211V21.3811L16.4963 19.7711H16.6363C17.1263 19.9211 17.4563 20.4011 17.7863 20.7311C17.8763 20.8111 17.9563 20.7311 18.0263 20.6611L18.1063 20.5811C18.0063 20.1811 17.5863 19.4511 17.4963 19.0611C17.4063 18.9811 17.4863 18.7511 17.4863 18.7511L18.9463 17.2211C18.9463 17.2211 19.1663 17.1411 19.2563 17.2211C20.2463 18.1811 19.8463 20.2511 20.8363 21.2111C20.9063 21.2811 21.0863 21.4511 21.1563 21.5211C23.3463 22.7111 25.3763 23.9111 27.7063 24.7811C27.7963 24.8611 27.7963 24.8611 27.7963 24.8611C27.8663 24.9311 27.8063 25.1711 27.8063 25.1711L26.6563 26.3711C25.9663 27.0911 23.1863 24.8611 22.4063 25.0311L22.5763 25.3511L25.2063 27.8911L23.5163 29.6611C23.3663 29.8211 23.2063 29.6611 23.1163 29.5811C23.0263 29.5011 22.9463 29.4211 22.9463 29.4211Z" fill="#320E10"/>
<path d="M28.2063 23.5412L21.8764 15.8412C21.7964 15.7512 21.5064 15.5512 21.4364 15.4612C21.4364 15.4612 21.4363 15.4612 21.3563 15.3712C21.2763 15.2812 21.3764 15.0612 21.3764 15.0612L23.1663 13.5812L23.4763 13.6112L30.7563 22.4612L30.7363 22.7712L28.8463 24.3312C28.7663 24.3912 28.6264 24.2212 28.6264 24.2212C28.4164 23.9612 28.3463 23.8712 28.2063 23.5412Z" fill="#320E10"/>
<path d="M25.4363 11.8312L28.9363 9.49116C29.0363 9.43116 29.4063 9.59116 29.4663 9.68116C29.5363 9.78116 29.7863 10.1712 29.7863 10.1712C30.0963 10.6412 30.2663 10.6812 30.2663 11.0912L30.2363 11.2312L29.0263 12.0312L29.0363 12.4412L29.5463 13.2112C29.7963 13.5812 30.6163 12.6212 30.8663 13.0112L31.8163 14.4412C32.0763 14.8312 30.8763 15.2112 31.1263 15.5912L32.8363 18.1612L33.1463 18.2412L34.4363 17.3812C34.9063 17.0712 35.3163 17.8912 35.4363 18.0712C35.5063 18.1712 35.7563 18.5612 35.8163 18.6412C35.8863 18.7412 35.8963 19.1512 35.7963 19.2112L32.0163 21.7312L25.4363 11.8312Z" fill="#320E10"/>
<path d="M37.0863 15.9111C37.5663 15.6711 37.9463 15.1512 37.6663 14.5812C36.9963 13.2612 34.0363 12.8411 32.8863 10.5911C32.1063 9.06115 32.4264 7.22114 33.9964 6.43114C35.0964 5.87114 36.1463 6.25115 36.7663 7.47115C36.8163 7.58115 36.9363 8.02114 36.7763 8.23114C36.5863 8.33114 35.8863 8.16115 35.5863 8.31115C35.0863 8.57115 34.8963 8.93114 35.1463 9.43114C36.1763 11.4711 39.0463 11.6911 40.0763 13.7311C40.9663 15.4711 40.2363 17.2511 38.6663 18.0411C38.1563 18.2911 36.8263 18.8311 36.4663 18.1311L35.5363 16.2911C35.4863 16.1811 35.5664 16.1411 35.6764 16.0911C35.9864 15.9511 36.6263 16.0111 37.0863 15.9111Z" fill="#320E10"/>
<path d="M46.8263 6.36113C47.7963 6.11113 48.6163 6.60112 48.8863 7.60112C49.1563 8.59112 48.7163 9.54112 47.7563 9.79112C46.7863 10.0411 45.8364 9.46112 45.5664 8.46112C45.2964 7.47112 45.8663 6.61113 46.8263 6.36113Z" fill="#320E10"/>
<path d="M59.4063 0.00116114C60.5263 -0.0388389 61.1264 0.961151 61.1764 1.99115C61.1864 2.21115 61.3363 2.89115 60.8863 2.91115C60.8563 2.91115 60.8063 2.91115 60.7563 2.90115L60.3463 2.83116C60.2663 2.82116 60.1963 2.82115 60.0963 2.82115C58.6563 2.88115 58.7863 5.27115 58.8363 6.30115C58.8663 6.88115 59.0064 9.72115 60.1164 9.68115L61.3563 9.63115C61.4563 9.63115 61.4763 10.0912 61.4763 10.0912C61.5563 11.5812 61.4963 12.4911 59.8263 12.5511C56.9263 12.6611 56.2864 8.70115 56.1764 6.52115C56.0664 4.25115 56.4063 0.121161 59.4063 0.00116114Z" fill="#320E10"/>
<path d="M63.0663 11.1112L63.9563 1.23119C63.9663 1.11119 63.8963 0.761179 63.9063 0.661179C63.9063 0.661179 63.9063 0.661183 63.9163 0.541183C63.9263 0.421183 64.1563 0.341187 64.1563 0.341187L66.4863 0.581192L66.6863 0.821182L66.3963 4.01118C66.3763 4.23118 66.6063 4.26118 66.7063 4.27118C66.9363 4.29118 67.2763 4.33119 67.2863 4.11119L67.5963 0.701187L70.1463 0.961182L69.1763 11.7412C69.1663 11.8612 69.2563 12.2112 69.2463 12.3112L69.2363 12.4312C69.2263 12.5512 69.2063 12.7712 68.9763 12.7512L66.6463 12.5112L66.4463 12.2712L66.9263 6.92119C66.9363 6.82119 66.6163 6.66118 66.6163 6.66118C66.5163 6.65118 66.1563 6.70119 66.1463 6.84119L65.6663 12.1912L65.4263 12.3912L62.9763 12.1412C62.8763 12.1312 62.8963 11.9112 62.8963 11.9112C62.9263 11.5712 62.9363 11.4512 63.0663 11.1112Z" fill="#320E10"/>
<path d="M73.1763 1.55115L77.2963 2.56116C77.4063 2.59116 77.5463 2.97115 77.5263 3.07115C77.4963 3.19115 77.3963 3.63115 77.3963 3.63115C77.2663 4.18115 77.3563 4.32115 77.0563 4.60115L76.9363 4.68115L75.5163 4.33116L75.2263 4.61116L75.0163 5.51115C74.9163 5.94115 76.1863 5.90115 76.0763 6.35115L75.6963 8.01115C75.5963 8.46115 74.4863 7.84115 74.3863 8.27115L73.6963 11.2612L73.8563 11.5412L75.3763 11.9111C75.9263 12.0511 75.6163 12.9012 75.5663 13.1112C75.5363 13.2312 75.4363 13.6812 75.4163 13.7812C75.3863 13.9012 75.0963 14.1812 74.9863 14.1512L70.5363 13.0612L73.1763 1.55115Z" fill="#320E10"/>
<path d="M80.3663 3.4812L84.3463 4.9812C84.4563 5.0212 84.5463 5.42119 84.5063 5.52119C84.4663 5.63119 84.3063 6.0612 84.3063 6.0612C84.1163 6.5912 84.1863 6.7412 83.8463 6.9812L83.7163 7.0412L82.3463 6.52119L82.0263 6.7612L81.7163 7.6212C81.5663 8.0412 82.8263 8.15121 82.6763 8.58121L82.0963 10.1812C81.9363 10.6112 80.9063 9.8612 80.7563 10.2812L79.7163 13.1612L79.8363 13.4612L81.2963 14.0112C81.8263 14.2112 81.4163 15.0212 81.3363 15.2312C81.2963 15.3412 81.1363 15.7712 81.1063 15.8712C81.0663 15.9812 80.7463 16.2312 80.6363 16.1812L76.3463 14.5612L80.3663 3.4812Z" fill="#320E10"/>
<path d="M84.0363 15.3312C84.5163 15.5812 85.1663 15.6012 85.4463 15.0412C86.1063 13.7412 84.6963 11.0712 85.8263 8.85119C86.5963 7.34119 88.2663 6.54119 89.8463 7.37119C90.9463 7.95119 91.2663 9.02119 90.6563 10.2312C90.6063 10.3412 90.3063 10.6812 90.0463 10.6812C89.8563 10.5812 89.5663 9.9112 89.2763 9.7512C88.7663 9.4812 88.3663 9.54119 88.1063 10.0412C87.0763 12.0512 88.5963 14.5212 87.5663 16.5412C86.6863 18.2712 84.8263 18.6912 83.2463 17.8612C82.7363 17.5912 81.5163 16.8212 81.8663 16.1212L82.7963 14.3012C82.8463 14.1912 82.9363 14.2412 83.0463 14.3012C83.3563 14.4512 83.6863 15.0112 84.0363 15.3312Z" fill="#320E10"/>
<path d="M93.9263 9.96118L97.4263 12.3912C97.5263 12.4612 97.5163 12.8612 97.4563 12.9512C97.3863 13.0512 97.1363 13.4312 97.1363 13.4312C96.8163 13.8912 96.8463 14.0612 96.4663 14.2112L96.3263 14.2412L95.1263 13.4112L94.7563 13.5712L94.2363 14.3312C93.9863 14.7012 95.1863 15.1112 94.9363 15.4912L93.9863 16.9012C93.7263 17.2812 92.9063 16.3012 92.6563 16.6612L90.9363 19.1912L90.9863 19.5112L92.2763 20.4012C92.7463 20.7312 92.1463 21.4012 92.0163 21.5912C91.9463 21.6912 91.6863 22.0712 91.6363 22.1512C91.5663 22.2512 91.1963 22.4012 91.1063 22.3412L87.3263 19.7212L93.9263 9.96118Z" fill="#320E10"/>
<path d="M102.606 16.2411C103.446 16.9911 103.196 18.1211 102.526 18.8911C102.376 19.0611 102.026 19.6411 101.676 19.3411C101.656 19.3211 101.616 19.2811 101.586 19.2411L101.336 18.9111C101.286 18.8411 101.236 18.8011 101.156 18.7311C100.076 17.7711 98.5063 19.5511 97.8363 20.3211C97.4563 20.7511 95.5964 22.8711 96.4264 23.6111L97.3564 24.4411C97.4364 24.5111 97.1264 24.8511 97.1264 24.8511C96.1564 25.9611 95.4863 26.5711 94.2263 25.4511C92.0363 23.5011 94.3164 20.2411 95.7364 18.6211C97.2364 16.9211 100.346 14.2311 102.606 16.2411Z" fill="#320E10"/>
<path d="M96.9763 26.5111L106.496 21.1311L106.976 21.1611L108.516 22.9511C108.656 23.1211 108.406 23.4911 108.316 23.5711C107.336 24.7011 103.086 30.1511 102.116 31.2711C101.756 31.7411 101.756 31.7411 101.426 32.0211C101.336 32.1011 101.076 32.3211 100.936 32.1511L99.5463 30.5211C99.3263 30.2611 100.686 29.2511 100.796 28.8511L100.816 28.7011L100.156 27.9311C99.9363 27.6711 99.3363 28.1911 99.3363 28.1911C99.2463 28.2711 98.5763 28.6911 98.3963 28.8411L98.0863 28.8211L96.6163 27.1011C96.4763 26.9311 96.7264 26.7111 96.8164 26.6411L96.9763 26.5111ZM102.306 26.6611C102.386 26.7511 102.616 26.8411 102.786 26.6911C102.786 26.6911 103.326 26.0911 103.336 25.9311C103.116 25.6711 102.606 26.1211 102.426 26.2711C102.336 26.3311 102.166 26.4911 102.306 26.6611Z" fill="#320E10"/>
<path d="M102.036 32.7311C104.826 30.9811 111.486 26.9312 111.486 26.9312L111.626 26.9612L112.836 28.8712L112.806 29.0112C112.546 29.4512 112.006 29.6511 111.616 29.8911C111.516 29.9511 111.576 30.0511 111.636 30.1411L111.696 30.2411C112.096 30.2411 112.896 30.0212 113.306 30.0312C113.406 29.9712 113.606 30.1012 113.606 30.1012L114.746 31.9112C114.746 31.9112 114.776 32.1512 114.676 32.2112C113.526 32.9312 111.616 32.0212 110.466 32.7512C110.376 32.8012 110.176 32.9311 110.096 32.9811C108.446 34.8111 106.816 36.5011 105.446 38.5511C105.346 38.6111 105.346 38.6111 105.346 38.6111C105.256 38.6611 105.046 38.5412 105.046 38.5412L104.146 37.1111C103.606 36.2511 106.396 34.1012 106.416 33.2912L106.066 33.3712L103.006 35.2912L101.686 33.1912C101.566 33.0012 101.756 32.8912 101.856 32.8212C101.956 32.7912 102.036 32.7311 102.036 32.7311Z" fill="#320E10"/>
<path d="M116.256 34.7811L118.036 38.6611C118.086 38.7711 117.866 39.1111 117.776 39.1511C117.666 39.2011 117.246 39.3911 117.246 39.3911C116.736 39.6211 116.676 39.7811 116.266 39.7011L116.136 39.6511L115.526 38.3211L115.126 38.2611L114.296 38.6411C113.896 38.8211 114.716 39.8011 114.296 39.9911L112.756 40.6911C112.336 40.8811 112.136 39.6211 111.736 39.8011L108.956 41.0611L108.836 41.3611L109.496 42.7811C109.736 43.3011 108.866 43.5711 108.666 43.6611C108.556 43.7111 108.146 43.9011 108.046 43.9411C107.936 43.9911 107.536 43.9311 107.486 43.8211L105.566 39.6411L116.256 34.7811Z" fill="#320E10"/>
<path d="M117.316 49.9611C117.546 50.9411 117.036 51.7511 116.046 51.9711C115.046 52.1911 114.116 51.7111 113.886 50.7311C113.656 49.7511 114.256 48.8211 115.256 48.5911C116.246 48.3711 117.086 48.9711 117.316 49.9611Z" fill="#320E10"/>
<path d="M111.856 59.5612C112.096 59.5612 112.876 59.7011 112.996 59.7011L122.306 60.2011C122.306 60.2011 123.086 60.2111 123.086 60.5511L123.076 61.9911C123.076 62.4411 122.286 62.5511 122.166 62.5511C121.606 62.6411 118.876 63.3812 118.296 63.4911C118.196 63.4911 117.956 63.5912 117.956 63.8212C117.956 64.3712 122.376 64.5712 122.956 65.4712L123.056 65.6912L123.046 67.1512C123.046 67.2712 122.706 67.4811 122.606 67.4811C121.246 67.4611 114.656 67.5612 113.296 67.6612C113.176 67.6612 111.816 67.7512 111.716 67.7512H111.596C111.476 67.7512 111.256 67.7412 111.256 67.5112L111.266 65.0612L114.556 65.1212L114.896 65.0112C114.896 65.0112 114.896 65.0111 114.896 64.8911L114.456 64.6612L111.736 63.9412C111.496 63.9412 111.396 63.8212 111.396 63.6012C111.396 62.9312 114.566 63.1012 114.566 62.4312L114.226 62.3112L111.506 62.2612L111.286 62.0412L111.296 59.7912C111.296 59.5712 111.516 59.5811 111.636 59.5811C111.756 59.5611 111.856 59.5612 111.856 59.5612Z" fill="#320E10"/>
<path d="M111.996 69.3011L121.776 70.7511C121.896 70.7711 122.246 70.7211 122.346 70.7311C122.346 70.7311 122.346 70.7311 122.466 70.7511C122.586 70.7711 122.656 71.0011 122.656 71.0011L122.346 73.3311L122.096 73.5111L110.846 71.8411L110.656 71.5911L110.986 69.1511C110.996 69.0511 111.216 69.0811 111.216 69.0811C111.556 69.1311 111.666 69.1511 111.996 69.3011Z" fill="#320E10"/>
<path d="M121.686 75.9111L121.856 76.1811L121.306 78.5811C121.276 78.6911 121.066 78.6411 120.946 78.6111C120.616 78.5311 120.516 78.5011 120.206 78.3111L112.346 76.3811C112.246 76.3611 111.966 76.5111 111.936 76.6311L111.606 78.0511L109.736 77.5911C109.616 77.5611 109.456 77.2811 109.476 77.1811L110.406 73.1511L121.686 75.9111Z" fill="#320E10"/>
<path d="M109.716 78.6412C112.816 79.8212 120.126 82.7412 120.126 82.7412L120.186 82.8712L119.416 84.9712L119.286 85.0312C118.776 85.0812 118.286 84.7712 117.856 84.6112C117.746 84.5712 117.706 84.6812 117.666 84.7712L117.626 84.8812C117.876 85.2112 118.546 85.7112 118.786 86.0412C118.896 86.0812 118.916 86.3212 118.916 86.3212L118.186 88.3112C118.186 88.3112 118.016 88.4812 117.906 88.4312C116.626 87.9412 116.166 85.8712 114.896 85.3812C114.796 85.3412 114.576 85.2612 114.486 85.2212C112.016 84.9912 109.686 84.6912 107.216 84.8212C107.106 84.7812 107.106 84.7812 107.106 84.7812C107.016 84.7412 106.976 84.5012 106.976 84.5012L107.556 82.9312C107.906 81.9912 111.326 82.9412 111.966 82.4712L111.686 82.2412L108.286 80.9412L109.136 78.6312C109.216 78.4312 109.416 78.5112 109.536 78.5512C109.616 78.6012 109.716 78.6412 109.716 78.6412Z" fill="#320E10"/>
<path d="M107.856 87.7311C107.606 88.2011 107.596 88.8612 108.146 89.1612C109.436 89.8612 112.086 88.5012 114.306 89.7012C115.816 90.5112 116.596 92.2112 115.776 93.7812C115.196 94.8712 114.136 95.1712 112.926 94.5212C112.826 94.4612 112.476 94.1612 112.476 93.9012C112.576 93.7112 113.236 93.4412 113.396 93.1412C113.656 92.6412 113.606 92.2312 113.106 91.9612C111.106 90.8812 108.646 92.3412 106.646 91.2512C104.926 90.3212 104.506 88.4412 105.336 86.8712C105.596 86.3712 106.376 85.1512 107.066 85.5312L108.876 86.5112C108.986 86.5712 108.936 86.6612 108.886 86.7612C108.726 87.0612 108.176 87.3911 107.856 87.7311Z" fill="#320E10"/>
<path d="M104.346 91.5911L112.386 97.4511C112.486 97.5211 112.816 97.6411 112.906 97.7011C112.906 97.7011 112.906 97.7011 113.006 97.7711C113.106 97.8411 113.056 98.0811 113.056 98.0811L111.696 99.9811L111.386 100.021L108.796 98.1311C108.616 98.0011 108.476 98.1911 108.416 98.2711C108.276 98.4611 108.086 98.7311 108.266 98.8611L111.036 100.881L109.546 102.951L100.776 96.5511C100.676 96.4811 100.336 96.3711 100.246 96.3111L100.146 96.2411C100.046 96.1711 99.8663 96.0411 100.006 95.8511L101.366 93.9511L101.676 93.9111L106.026 97.0811C106.106 97.1411 106.396 96.9411 106.396 96.9411C106.456 96.8611 106.586 96.5211 106.476 96.4411L102.126 93.2711L102.066 92.9611L103.496 90.9711C103.556 90.8911 103.736 91.0211 103.736 91.0211C104.026 91.2411 104.126 91.3111 104.346 91.5911Z" fill="#320E10"/>
<path d="M99.8163 97.2511L106.086 106.391L106.096 106.871L104.466 108.541C104.316 108.701 103.916 108.471 103.836 108.381C102.616 107.491 96.7963 103.621 95.5963 102.741C95.0963 102.411 95.0963 102.411 94.7763 102.101C94.6963 102.021 94.4463 101.771 94.5963 101.621L96.0763 100.101C96.3063 99.8611 97.4563 101.151 97.8563 101.221L98.0163 101.231L98.7163 100.511C98.9463 100.271 98.3763 99.7011 98.3763 99.7011C98.2863 99.6211 97.8063 98.9811 97.6363 98.8111L97.6263 98.5011L99.1863 96.9011C99.3363 96.7511 99.5863 96.9911 99.6663 97.0711L99.8163 97.2511ZM100.186 102.601C100.106 102.681 100.036 102.921 100.196 103.081C100.196 103.081 100.846 103.581 101.006 103.581C101.236 103.341 100.746 102.861 100.576 102.691C100.516 102.611 100.346 102.451 100.186 102.601Z" fill="#320E10"/>
<path d="M94.1463 102.781C96.1563 105.441 100.836 111.811 100.836 111.811L100.816 111.951L99.0363 113.301L98.8963 113.281C98.4363 113.051 98.1863 112.531 97.8963 112.161C97.8263 112.061 97.7263 112.131 97.6463 112.191L97.5563 112.261C97.5863 112.671 97.8963 113.451 97.9263 113.851C97.9963 113.951 97.8863 114.161 97.8863 114.161L96.2063 115.441C96.2063 115.441 95.9663 115.491 95.8963 115.391C95.0663 114.291 95.7763 112.311 94.9463 111.211C94.8863 111.131 94.7363 110.941 94.6763 110.851C92.6963 109.331 90.8663 107.831 88.6963 106.611C88.6263 106.511 88.6264 106.511 88.6264 106.511C88.5664 106.431 88.6663 106.201 88.6663 106.201L89.9963 105.191C90.7863 104.591 93.2063 107.221 94.0063 107.181L93.8963 106.831L91.6863 103.911L93.6363 102.431C93.8063 102.301 93.9463 102.481 94.0163 102.571C94.0763 102.701 94.1463 102.781 94.1463 102.781Z" fill="#320E10"/>
<path d="M93.4963 117.191L89.8263 119.261C89.7263 119.321 89.3663 119.121 89.3163 119.031C89.2563 118.931 89.0263 118.521 89.0263 118.521C88.7463 118.031 88.5863 117.981 88.6163 117.571L88.6563 117.431L89.9163 116.721L89.9363 116.311L89.4763 115.501C89.2563 115.111 88.3663 116.011 88.1363 115.601L87.2863 114.111C87.0563 113.711 88.2863 113.411 88.0663 113.021L86.5363 110.331L86.2263 110.231L84.8763 110.991C84.3863 111.271 84.0363 110.421 83.9263 110.221C83.8663 110.121 83.6363 109.711 83.5863 109.621C83.5263 109.521 83.5463 109.111 83.6463 109.051L87.6063 106.821L93.4963 117.191Z" fill="#320E10"/>
<path d="M82.1663 112.271C81.6763 112.471 81.2463 112.971 81.4963 113.551C82.0663 114.911 84.9963 115.561 85.9663 117.891C86.6363 119.471 86.1763 121.281 84.5463 121.951C83.4063 122.421 82.3863 121.971 81.8563 120.701C81.8063 120.591 81.7263 120.141 81.8963 119.941C82.0963 119.861 82.7863 120.071 83.0863 119.951C83.6063 119.731 83.8263 119.381 83.6063 118.861C82.7263 116.751 79.8863 116.311 78.9963 114.201C78.2363 112.391 79.0963 110.681 80.7263 110.011C81.2463 109.791 82.6163 109.361 82.9263 110.091L83.7263 111.991C83.7763 112.101 83.6863 112.141 83.5763 112.181C83.2663 112.311 82.6263 112.201 82.1663 112.271Z" fill="#320E10"/>
<path d="M71.7263 121.051C70.7363 121.231 69.9563 120.671 69.7663 119.661C69.5763 118.651 70.0763 117.741 71.0663 117.561C72.0563 117.381 72.9563 118.041 73.1463 119.051C73.3363 120.061 72.7063 120.871 71.7263 121.051Z" fill="#320E10"/>
</svg>
