<svg width="147" height="147" viewBox="0 0 147 147" fill="none" xmlns="http://www.w3.org/2000/svg">
<path d="M73.17 146.34C113.581 146.34 146.34 113.581 146.34 73.17C146.34 32.7593 113.581 0 73.17 0C32.7593 0 0 32.7593 0 73.17C0 113.581 32.7593 146.34 73.17 146.34Z" fill="#E8511B"/>
<path d="M70.3899 47.2901C71.0499 47.4401 71.9499 48.18 71.5799 49L71.5 49.17C71.35 49.33 71.0299 49.62 70.6499 50L67.99 52.5201C67.6 52.9001 67.2899 53.1901 67.1299 53.3501C67.0599 53.5001 64.7199 55.92 63.7799 56.81C62.7699 57.88 61.2199 59.3501 60.6999 60.5201C60.4799 61.0201 60.3299 61.34 60.8199 61.45C61.7999 61.66 62.9199 61.5501 63.8999 61.7701C65.3699 62.0901 66.52 62.7001 65.69 64.5501C65.54 64.8701 65.32 65.3701 64.75 65.4401C62.41 65.09 59.7399 65.05 57.4599 64.56C56.3099 64.31 55.3 63.38 55.91 62.03C57.27 59.02 68.4399 46.8601 70.3899 47.2901Z" fill="white"/>
<path d="M77.62 55.2601C78.92 55.5401 80.33 56.4001 79.58 58.0701C78.16 61.2401 74 62.1401 71.25 62.2801C70.83 62.3801 70.83 62.3801 70.68 62.7001C70.31 63.5201 71.55 63.9901 72.19 64.1301C75.62 64.8801 79.85 61.0701 80.98 61.3101C81.44 61.4101 81.56 61.6301 81.35 62.1001C78.07 65.4101 73.82 68.1201 69.73 67.2301C66.97 66.6201 65.57 64.5101 66.85 61.6701C68.71 57.5301 73.54 54.3601 77.62 55.2601ZM71.51 60.8801C72.83 61.1701 75.62 59.7501 76.21 58.4301C76.43 57.9301 76.02 57.6501 75.53 57.5401C74.06 57.2201 71.99 58.6001 71.4 59.9201C71.17 60.4201 71.02 60.7701 71.51 60.8801Z" fill="white"/>
<path d="M80.88 58.36C81.33 57.36 80.49 56.82 80.87 55.97C81.54 54.47 83.2 55.93 84.28 54.72C84.6 54.43 86.36 51.69 87.51 51.95C88.32 52.13 89.39 52.91 88.94 53.91C88.64 54.58 88.1 55.01 87.79 55.69C87.34 56.69 88.98 57.05 88.47 58.2C87.87 59.55 86.04 58.41 85.01 58.73C83.73 59.19 80.18 63.51 79.74 64.51C79.66 64.69 79.52 65.01 79.44 65.18C79.44 65.54 79.71 65.79 80.19 65.89C82.47 66.39 85.7 62.35 87.16 62.68C87.82 62.83 87.82 62.83 87.6 63.32C87.53 63.47 87.38 63.82 87.38 63.82C84.74 66.53 80.88 69.52 77.3 68.74C75.49 68.34 74.97 66.75 75.78 64.93C76.91 62.42 79.84 60.68 80.88 58.36Z" fill="white"/>
<path d="M92.0699 55.6801C92.3599 55.0301 92.0899 54.42 92.3999 53.75C92.9199 52.58 94.02 52.1 95.17 52.36C96.32 52.61 96.6599 53.4001 96.1399 54.5701C95.1699 56.7401 92.08 58.07 90.12 57.64C89.8 57.57 89.6299 57.5301 89.7799 57.2101C90.2299 56.2101 91.6299 56.6801 92.0699 55.6801Z" fill="white"/>
<path d="M91.22 63.36C91.22 63.36 91.37 63.39 91.54 63.43C92.35 63.61 92.15 64.47 91.85 65.14C91.48 65.96 90.77 66.36 90.47 67.03C90.17 67.7 90.34 68.1 90.83 68.21C91.32 68.32 92.11 67.75 92.43 67.46C92.51 67.29 92.88 66.4601 92.95 66.2901C93.54 64.97 93.58 63.69 94.25 62.19C95.43 59.54 98.09 59.19 100.54 59.73C101.2 59.87 101.22 60.62 100.92 61.2901C99.88 63.6101 97.79 61.51 96.97 63.33C96.22 65 96.36 66.68 95.69 68.17C95.54 68.49 95.16 69.34 95.1 69.49C93.64 71.55 91.66 72.02 89.7 71.6C87.57 71.13 86.3 69.59 87.35 67.25C88.06 65.6 89.45 64.07 91.22 63.36Z" fill="white"/>
<path d="M47.92 61.79C48.09 61.83 49.07 62.04 49.22 62.07C52.99 62.9 56.1699 65.4 54.1499 69.89C51.3099 76.23 43.0699 81 36.8799 79.65C35.5599 79.36 32.79 78.76 33.62 76.91C34.58 74.77 45.9 61.9 47.92 61.79ZM38.75 75.85C38.92 75.89 39.4099 76 39.5799 76.03C43.3199 76.85 48.8599 73.68 50.5699 69.86C51.5399 67.69 50.6699 66.04 48.7099 65.62C48.5599 65.59 48.0699 65.48 47.8999 65.44C45.2699 66.51 40.65 72.81 38.8 74.96L38.72 75.13C38.57 75.45 38.67 75.66 38.75 75.85Z" fill="white"/>
<path d="M59.8199 70.5901C61.6099 70.9801 60.5899 72.0501 61.7599 73.0401C63.1799 74.2501 63.44 74.5001 62.55 76.5001C60.84 80.3201 55.53 83.3501 51.79 82.5301C49 81.9201 48.43 79.6001 49.54 77.1001C51.25 73.2901 55.9099 69.7401 59.8199 70.5901ZM54.25 79.4301C55.23 79.6401 57.07 79.1401 57.91 78.0401C58.5 76.7201 59.2 75.5801 59.79 74.2601C60.01 73.7601 60.06 73.2201 59.4 73.0801C57.3 72.6201 54.14 75.22 53.25 77.2101C52.81 78.2101 53.1 79.1801 54.25 79.4301Z" fill="white"/>
<path d="M60.4 79.1401C61.34 78.2501 65.1299 74.1501 65.8199 73.3901C66.6099 72.4701 67.26 72.2201 68.23 72.4401C68.72 72.5501 69.7 72.7601 69.4 73.4401C68.14 76.2601 64.37 77.8201 63.18 80.4901C63.03 80.8101 63.0599 81.1801 63.3799 81.2501C64.6999 81.5401 67.51 78.8701 68.37 78.1501C69.16 77.5801 72.36 74.8301 73.15 74.2601C73.69 73.8301 74.11 73.7301 74.6 73.8401C75.24 73.9801 76.4 74.6201 76.03 75.4401C74.99 77.7601 71.65 79.2201 70.6 81.5701C70.23 82.3901 70.4 82.7901 71.21 82.9601C73.34 83.4301 75.68 79.3901 77.15 79.7101C77.64 79.8201 77.7399 80.0001 77.5199 80.5001L77.36 80.8501C75.09 83.0901 71.52 86.7001 68.24 85.9801C65.79 85.4401 66.97 82.0301 66.31 81.8901C65.18 81.6401 62.54 84.7401 60.41 84.2701C58.8 83.9201 58.63 82.2401 59.3 80.7401C59.53 80.2301 60.01 79.6001 60.4 79.1401Z" fill="white"/>
<path d="M68.69 89.17C69.5 88.99 73.1 88.49 73.91 88.31C74.31 88.21 76.57 87.96 77.01 86.96C77.08 86.81 76.93 86.78 76.76 86.74C76.1 86.6 75.24 86.96 74.58 86.81C72.3 86.31 72.44 83.96 73.26 82.14C74.98 78.3 79.71 74.95 83.62 75.8C86.07 76.34 86.64 78.65 85.59 81C85 82.32 84.06 83.21 83.47 84.54L83.81 84.61C84.94 84.86 86.83 81.82 88.47 82.18C88.79 82.25 88.81 82.61 88.67 82.94C87.39 85.79 80.77 87.79 78.33 89.64C75.18 91.88 71.92 95.91 67.86 95.02C66.22 94.66 65.91 92.95 66.58 91.45C67.12 90.28 67.59 89.67 68.69 89.17ZM70.49 91.95C70.83 92.03 71.55 91.99 71.77 91.49C71.92 91.17 71.6 91.1 71.43 91.06C70.94 90.95 70.3 90.81 70.08 91.31C69.85 91.81 70 91.84 70.49 91.95ZM77.01 84.22C79.29 84.72 82.7 81.46 83.68 79.29C83.98 78.62 83.56 78.36 82.92 78.22C80.47 77.68 77.82 80.01 76.77 82.35C76.7 82.5 76.4 83.17 76.32 83.35C76.24 83.89 76.52 84.12 77.01 84.22Z" fill="white"/>
<path d="M89.16 87.9801C90.2 85.6601 93.2199 84.1301 94.2599 81.8101C94.4799 81.3101 94.39 81.1 93.9 80.99C90.79 80.31 84.51 89.5401 82.72 89.1501C82.06 89.0101 81.24 88.4401 81.6 87.6201L81.68 87.4501C83.63 85.1401 92.44 74.6501 94.36 72.3301C94.76 71.8701 95.67 70.6201 96.5 70.8001C97.14 70.9401 98.31 71.9101 97.93 72.7601C96.89 75.0801 93.72 76.58 92.6 79.08C92.52 79.26 92.6899 79.2901 93.0099 79.3601L93.18 79.4001C94.46 78.9401 95.95 78.3601 97.28 78.6501C98.41 78.9001 99.01 79.9301 98.49 81.1101C98.27 81.6101 98.12 81.9301 97.75 82.4001C97.1 83.0001 94.55 85.5301 93.93 86.1401C93.61 86.4301 93.5299 86.6001 93.3899 86.9301C93.1699 87.4301 93.43 88.0401 94.09 88.1801C96.37 88.6801 98.47 84.4 100.43 84.83C100.92 84.94 100.85 85.0901 100.63 85.5901C99.5099 88.0901 92.84 91.7501 90.23 91.1801C89.25 90.9701 88.4999 90.2501 88.6999 89.0101C88.7799 88.8301 89.08 88.1601 89.16 87.9801Z" fill="white"/>
<path d="M101.74 89.64C102.72 89.85 103.22 90.71 102.78 91.7C102.26 92.87 101.33 93.38 100.18 93.13C99.03 92.88 98.91 91.95 99.36 90.95C99.88 89.78 100.76 89.43 101.74 89.64ZM112.92 75.48C113.58 75.63 114.59 76.56 114.21 77.41C113.76 78.41 105.28 87.32 104.65 87.18C103.82 87 103.71 85.69 104.08 84.86C104.66 83.54 111.14 75.09 112.92 75.48Z" fill="white"/>
<path d="M63.28 134.3C62.2 134.12 61.82 133.04 61.97 132.05C62 131.84 61.99 131.16 62.43 131.23C62.46 131.24 62.51 131.24 62.56 131.27L62.94 131.42C63.02 131.45 63.08 131.46 63.18 131.48C64.57 131.71 64.93 129.41 65.08 128.42C65.17 127.86 65.59 125.12 64.53 124.94L63.34 124.74C63.24 124.72 63.31 124.28 63.31 124.28C63.53 122.84 63.7699 121.99 65.3799 122.26C68.1899 122.73 68.01 126.65 67.69 128.74C67.33 130.93 66.18 134.79 63.28 134.3Z" fill="white"/>
<path d="M55.7 132.4C52.58 131.4 53.16 127.98 53.92 125.53C54.67 123.09 56.06 119.69 59.18 120.7C62.41 121.74 61.8 125.16 61.02 127.71C60.23 130.25 58.82 133.4 55.7 132.4ZM58 128.59L59.04 125.2C59.23 124.56 59.36 123.43 58.53 123.17C57.8 122.94 57.19 123.79 57 124.43L55.89 128.04C55.69 128.68 55.71 129.73 56.45 129.97C57.27 130.23 57.8 129.23 58 128.59Z" fill="white"/>
<path d="M49.75 129.82L46.01 128C45.91 127.95 45.86 127.56 45.9 127.46C45.95 127.36 46.14 126.95 46.14 126.95C46.37 126.45 46.32 126.3 46.67 126.1L46.8 126.05L48.09 126.68L48.42 126.47L48.8 125.66C48.98 125.27 47.76 125.05 47.96 124.64L48.67 123.14C48.86 122.73 49.8 123.56 49.98 123.17L52.21 118.45L52.51 118.35L54.67 119.4L49.75 129.82Z" fill="white"/>
<path d="M43.61 126.66L40.1 124.42C40 124.36 40 123.96 40.05 123.88C40.11 123.78 40.35 123.4 40.35 123.4C40.64 122.94 40.6 122.77 40.98 122.62L41.12 122.59L42.33 123.36L42.69 123.19L43.17 122.43C43.4 122.06 42.21 121.7 42.45 121.32L43.33 119.91C43.57 119.53 44.4 120.46 44.63 120.09L47.39 115.67L47.7 115.61L49.72 116.9L43.61 126.66Z" fill="white"/>
<path d="M37.85 122.8L34.62 120.16C34.53 120.09 34.5699 119.69 34.6399 119.62C34.7099 119.53 34.99 119.18 34.99 119.18C35.33 118.75 35.3199 118.59 35.6999 118.48L35.84 118.47L36.9499 119.38L37.3199 119.26L37.8799 118.56C38.1499 118.22 37.01 117.72 37.29 117.37L38.3299 116.08C38.6099 115.73 39.33 116.75 39.6 116.41L41.47 114.08L41.4499 113.76L40.2599 112.79C39.8299 112.44 40.47 111.82 40.6 111.66C40.67 111.57 40.9499 111.22 41.0199 111.14C41.0899 111.05 41.47 110.93 41.56 111L45.04 113.85L37.85 122.8Z" fill="white"/>
<path d="M32.31 118.06L29.42 115.06C29.34 114.98 29.43 114.59 29.5 114.52C29.58 114.44 29.9 114.13 29.9 114.13C30.29 113.75 30.3 113.58 30.69 113.52H30.83L31.82 114.55L32.21 114.47L32.85 113.85C33.16 113.55 32.09 112.91 32.41 112.6L33.6 111.44C33.92 111.13 34.52 112.23 34.83 111.93L36.97 109.85L36.99 109.53L35.93 108.43C35.54 108.03 36.25 107.5 36.41 107.35C36.49 107.27 36.81 106.96 36.88 106.89C36.96 106.81 37.35 106.73 37.43 106.82L40.55 110.06L32.31 118.06Z" fill="white"/>
<path d="M31.11 102.04C30.83 101.59 30.29 101.25 29.77 101.57C28.56 102.32 28.42 105.25 26.34 106.53C24.93 107.4 23.12 107.22 22.2 105.73C21.56 104.69 21.83 103.64 22.95 102.94C23.05 102.88 23.47 102.74 23.69 102.87C23.8 103.05 23.71 103.75 23.88 104.03C24.17 104.51 24.54 104.67 25.01 104.38C26.89 103.22 26.84 100.41 28.72 99.2501C30.33 98.2601 32.11 98.84 33.03 100.33C33.32 100.81 33.97 102.07 33.32 102.47L31.63 103.51C31.53 103.57 31.48 103.49 31.42 103.39C31.25 103.12 31.24 102.48 31.11 102.04Z" fill="white"/>
<path d="M29.56 97.13L20.7599 101C20.6599 101.05 20.39 101.27 20.3 101.31C20.3 101.31 20.3 101.31 20.19 101.36C20.08 101.41 19.91 101.25 19.91 101.25L18.97 99.14L19.08 98.86L21.92 97.61C22.12 97.52 22.02 97.31 21.98 97.22C21.89 97.01 21.75 96.71 21.55 96.8L18.52 98.13L17.5 95.83L27.1 91.6C27.21 91.55 27.46 91.31 27.55 91.27L27.66 91.22C27.77 91.17 27.96 91.09 28.06 91.3L29 93.41L28.89 93.69L24.1299 95.79C24.0399 95.83 24.0699 96.18 24.0699 96.18C24.1099 96.27 24.33 96.55 24.45 96.5L29.21 94.4L29.49 94.51L30.47 96.72C30.51 96.81 30.31 96.9 30.31 96.9C30.01 97.04 29.9 97.08 29.56 97.13Z" fill="white"/>
<path d="M15.1599 89.5601C14.2999 86.3801 17.4899 85.0901 19.9599 84.4401C22.4199 83.8001 26.0299 83.1901 26.8899 86.3701C27.7799 89.6601 24.57 90.9401 22 91.6101C19.44 92.2901 16.0199 92.7401 15.1599 89.5601ZM19.62 89.5201L23.04 88.6301C23.68 88.4601 24.6999 87.9701 24.4699 87.1301C24.2699 86.3801 23.2199 86.3201 22.5799 86.4801L18.94 87.4301C18.3 87.6001 17.42 88.1701 17.62 88.9101C17.84 89.7601 18.98 89.6901 19.62 89.5201Z" fill="white"/>
<path d="M14.05 83.22L13.66 79.74C13.46 77.99 15.1 76.83 16.66 76.67C20.63 76.26 20.92 79.87 21.46 79.81L25.21 79.43L25.48 81.83L25.29 82.06L14.05 83.22ZM16.28 80.34L18.38 80.13C18.59 80.11 18.58 79.99 18.56 79.78C18.54 79.57 18.27 79.15 17.94 79.18L16.5 79.33C16.29 79.35 15.88 79.72 15.9 79.94C15.92 80.17 16.06 80.37 16.28 80.34Z" fill="white"/>
<path d="M17.69 67.29C17.79 66.31 18.5199 65.73 19.5099 65.85C20.4999 65.96 21.21 66.71 21.11 67.69C21.01 68.67 20.15 69.33 19.16 69.22C18.18 69.1 17.59 68.27 17.69 67.29Z" fill="white"/>
<path d="M16.1 53.5C16.43 52.45 17.54 52.25 18.49 52.56C18.7 52.63 19.37 52.73 19.23 53.15C19.22 53.18 19.21 53.23 19.18 53.27L18.98 53.62C18.94 53.69 18.92 53.76 18.89 53.85C18.47 55.19 20.69 55.92 21.64 56.23C22.18 56.41 24.82 57.27 25.14 56.24L25.5 55.08C25.53 54.99 25.96 55.13 25.96 55.13C27.34 55.58 28.15 55.95 27.66 57.51C26.81 60.23 22.98 59.42 20.97 58.76C18.87 58.07 15.22 56.31 16.1 53.5Z" fill="white"/>
<path d="M18.99 46.29C20.39 43.34 23.67 44.46 25.99 45.59C28.29 46.71 31.45 48.63 30.05 51.58C28.6 54.63 25.31 53.5 22.9 52.32C20.5 51.14 17.58 49.24 18.99 46.29ZM22.43 49.17L25.6299 50.74C26.2299 51.03 27.3299 51.33 27.6999 50.55C28.0299 49.86 27.27 49.12 26.67 48.83L23.2599 47.16C22.6599 46.87 21.62 46.72 21.29 47.41C20.91 48.2 21.83 48.88 22.43 49.17Z" fill="white"/>
<path d="M23.98 37.64C25.84 34.96 28.91 36.6 31.01 38.09C33.1 39.57 35.93 41.97 34.07 44.65C32.15 47.42 29.08 45.76 26.89 44.22C24.7 42.68 22.12 40.32 23.98 37.64ZM26.92 41.04L29.83 43.1C30.38 43.49 31.42 43.96 31.91 43.25C32.35 42.62 31.71 41.77 31.16 41.39L28.06 39.19C27.51 38.8 26.51 38.49 26.07 39.12C25.58 39.83 26.38 40.65 26.92 41.04Z" fill="white"/>
<path d="M36.06 40.42C33.72 38.15 28.2599 32.7 28.2599 32.7V32.56L29.77 30.98H29.91C30.39 31.13 30.71 31.6 31.04 31.91C31.12 31.99 31.2 31.91 31.27 31.84L31.35 31.76C31.25 31.37 30.85 30.66 30.75 30.27C30.67 30.19 30.74 29.97 30.74 29.97L32.17 28.48C32.17 28.48 32.39 28.4 32.47 28.48C33.43 29.41 33.0499 31.44 34.0099 32.38C34.0799 32.45 34.2499 32.61 34.3199 32.68C36.4599 33.84 38.44 35.02 40.72 35.87C40.8 35.95 40.8 35.95 40.8 35.95C40.87 36.02 40.81 36.25 40.81 36.25L39.68 37.43C39.01 38.14 36.28 35.95 35.52 36.12L35.68 36.44L38.25 38.93L36.6 40.66C36.45 40.81 36.3 40.66 36.21 40.58C36.13 40.49 36.06 40.42 36.06 40.42Z" fill="white"/>
<path d="M41.2 34.6701L35.02 27.1501C34.95 27.0601 34.66 26.8601 34.59 26.7801C34.59 26.7801 34.59 26.7801 34.52 26.6901C34.44 26.6001 34.54 26.3901 34.54 26.3901L36.29 24.9401L36.59 24.9701L43.7 33.6201L43.68 33.9201L41.84 35.4401C41.76 35.5001 41.63 35.3301 41.63 35.3301C41.41 35.0801 41.34 34.9901 41.2 34.6701Z" fill="white"/>
<path d="M38.5 23.23L41.92 20.94C42.01 20.88 42.38 21.04 42.43 21.12C42.49 21.22 42.75 21.6 42.75 21.6C43.06 22.06 43.22 22.1 43.21 22.5L43.19 22.64L42.0099 23.4301L42.02 23.83L42.52 24.58C42.76 24.94 43.56 24 43.81 24.38L44.74 25.78C44.99 26.16 43.82 26.54 44.06 26.9L45.74 29.42L46.05 29.5L47.31 28.66C47.77 28.35 48.17 29.16 48.29 29.34C48.35 29.44 48.6 29.82 48.66 29.9C48.72 30 48.73 30.39 48.64 30.46L44.95 32.9301L38.5 23.23Z" fill="white"/>
<path d="M49.88 27.22C50.35 26.99 50.72 26.47 50.44 25.92C49.79 24.63 46.89 24.22 45.77 22.02C45.01 20.52 45.32 18.73 46.86 17.95C47.93 17.41 48.96 17.77 49.57 18.97C49.62 19.07 49.73 19.51 49.58 19.72C49.39 19.82 48.71 19.65 48.42 19.8C47.93 20.05 47.74 20.41 47.99 20.9C49 22.89 51.8 23.11 52.81 25.1C53.68 26.8 52.97 28.54 51.43 29.31C50.94 29.56 49.63 30.09 49.28 29.4L48.37 27.6C48.32 27.5 48.4 27.45 48.51 27.4C48.81 27.26 49.44 27.31 49.88 27.22Z" fill="white"/>
<path d="M59.41 17.8801C60.35 17.6301 61.16 18.1201 61.42 19.0901C61.68 20.0601 61.26 20.9901 60.31 21.2301C59.36 21.4801 58.43 20.9001 58.17 19.9301C57.91 18.9701 58.46 18.1301 59.41 17.8801Z" fill="white"/>
<path d="M71.6999 11.67C72.7899 11.63 73.38 12.61 73.43 13.61C73.44 13.83 73.59 14.49 73.15 14.51C73.12 14.51 73.07 14.51 73.02 14.5L72.62 14.43C72.54 14.42 72.47 14.42 72.37 14.42C70.97 14.48 71.0899 16.82 71.1399 17.82C71.1699 18.39 71.3099 21.16 72.3899 21.12L73.6 21.07C73.7 21.07 73.72 21.52 73.72 21.52C73.79 22.97 73.74 23.86 72.11 23.93C69.27 24.04 68.65 20.16 68.54 18.04C68.43 15.82 68.7599 11.79 71.6999 11.67Z" fill="white"/>
<path d="M75.2799 22.53L76.1499 12.88C76.1599 12.76 76.09 12.42 76.1 12.32C76.1 12.32 76.1 12.32 76.11 12.2C76.12 12.08 76.3399 12.01 76.3399 12.01L78.62 12.24L78.81 12.48L78.5299 15.59C78.5099 15.81 78.7399 15.83 78.8399 15.84C79.0699 15.86 79.39 15.9 79.41 15.68L79.7099 12.35L82.1999 12.61L81.2599 23.15C81.2499 23.27 81.3299 23.61 81.3199 23.71L81.31 23.83C81.3 23.95 81.28 24.16 81.05 24.14L78.7699 23.91L78.5799 23.67L79.05 18.44C79.06 18.34 78.74 18.19 78.74 18.19C78.64 18.18 78.2899 18.23 78.2799 18.36L77.81 23.59L77.5799 23.78L75.19 23.53C75.09 23.52 75.11 23.3 75.11 23.3C75.14 22.97 75.1499 22.85 75.2799 22.53Z" fill="white"/>
<path d="M85.15 13.1801L89.18 14.17C89.29 14.2 89.42 14.57 89.4 14.67C89.37 14.78 89.27 15.22 89.27 15.22C89.15 15.76 89.23 15.9 88.93 16.17L88.81 16.2401L87.43 15.9L87.15 16.17L86.95 17.05C86.85 17.47 88.09 17.43 87.99 17.87L87.61 19.4901C87.51 19.9301 86.42 19.3201 86.33 19.7401L85.66 22.66L85.81 22.94L87.29 23.3C87.83 23.43 87.52 24.27 87.47 24.48C87.44 24.59 87.3399 25.0301 87.3199 25.1301C87.2899 25.2401 87.01 25.5201 86.9 25.4901L82.55 24.4301L85.15 13.1801Z" fill="white"/>
<path d="M92.18 15.0601L96.0699 16.5201C96.1799 16.5601 96.26 16.9501 96.23 17.0401C96.19 17.1501 96.04 17.5701 96.04 17.5701C95.85 18.0901 95.92 18.2401 95.59 18.4701L95.46 18.5301L94.12 18.0301L93.81 18.2701L93.5 19.1201C93.35 19.5301 94.59 19.6401 94.43 20.0601L93.86 21.6301C93.71 22.0501 92.7 21.3201 92.55 21.7201L91.53 24.5401L91.65 24.8301L93.08 25.3701C93.6 25.5701 93.19 26.3601 93.12 26.5601C93.08 26.6701 92.93 27.0901 92.89 27.1901C92.85 27.3001 92.54 27.5401 92.43 27.5001L88.24 25.9201L92.18 15.0601Z" fill="white"/>
<path d="M95.7699 26.64C96.2299 26.88 96.8699 26.9 97.1499 26.35C97.7999 25.08 96.4199 22.47 97.5299 20.3C98.2799 18.82 99.9199 18.04 101.46 18.86C102.54 19.43 102.85 20.47 102.25 21.66C102.2 21.76 101.91 22.1 101.66 22.1C101.47 22 101.19 21.35 100.9 21.2C100.41 20.94 100.01 20.99 99.7599 21.48C98.7599 23.45 100.24 25.86 99.23 27.83C98.37 29.52 96.5499 29.93 95.0099 29.12C94.5099 28.86 93.3199 28.1 93.6599 27.42L94.5699 25.64C94.6199 25.54 94.71 25.58 94.81 25.64C95.1 25.79 95.4299 26.33 95.7699 26.64Z" fill="white"/>
<path d="M105.43 21.4L108.85 23.77C108.94 23.84 108.93 24.23 108.88 24.31C108.82 24.41 108.56 24.78 108.56 24.78C108.25 25.23 108.28 25.4 107.91 25.54L107.77 25.57L106.59 24.75L106.23 24.9L105.73 25.64C105.49 26 106.66 26.41 106.41 26.78L105.48 28.15C105.23 28.52 104.43 27.56 104.19 27.92L102.51 30.39L102.55 30.7L103.81 31.57C104.27 31.89 103.68 32.55 103.56 32.73C103.49 32.83 103.24 33.2 103.19 33.28C103.12 33.38 102.76 33.53 102.67 33.46L98.98 30.9L105.43 21.4Z" fill="white"/>
<path d="M113.92 27.54C114.75 28.27 114.49 29.38 113.84 30.13C113.7 30.29 113.35 30.87 113.01 30.57C112.99 30.55 112.95 30.52 112.92 30.47L112.68 30.15C112.63 30.08 112.58 30.04 112.51 29.97C111.45 29.03 109.92 30.78 109.26 31.52C108.89 31.94 107.07 34.01 107.88 34.74L108.79 35.55C108.86 35.62 108.57 35.95 108.57 35.95C107.62 37.04 106.96 37.63 105.73 36.54C103.59 34.64 105.82 31.45 107.21 29.86C108.67 28.2 111.7 25.57 113.92 27.54Z" fill="white"/>
<path d="M108.41 37.5701L117.72 32.3101L118.19 32.3401L119.69 34.0901C119.83 34.2501 119.58 34.6201 119.49 34.7001C118.54 35.8001 114.37 41.1301 113.43 42.2301C113.08 42.6901 113.08 42.6901 112.75 42.9701C112.66 43.0501 112.41 43.2601 112.27 43.1001L110.91 41.5101C110.7 41.2601 112.03 40.2701 112.13 39.8701L112.15 39.7201L111.51 38.9701C111.29 38.7201 110.71 39.2301 110.71 39.2301C110.62 39.3101 109.97 39.7201 109.79 39.8701L109.49 39.8501L108.05 38.1701C107.91 38.0101 108.16 37.7901 108.25 37.7201L108.41 37.5701ZM113.62 37.7201C113.7 37.8101 113.92 37.8901 114.09 37.7501C114.09 37.7501 114.62 37.1701 114.63 37.0001C114.42 36.7501 113.91 37.1801 113.74 37.3301C113.65 37.4001 113.48 37.5501 113.62 37.7201Z" fill="white"/>
<path d="M113.36 43.65C116.08 41.94 122.6 37.98 122.6 37.98L122.74 38.01L123.92 39.88L123.89 40.02C123.63 40.45 123.11 40.65 122.73 40.88C122.63 40.94 122.69 41.04 122.75 41.12L122.81 41.22C123.2 41.22 123.99 41.01 124.38 41.01C124.48 40.95 124.68 41.08 124.68 41.08L125.8 42.85C125.8 42.85 125.83 43.08 125.73 43.15C124.61 43.86 122.74 42.97 121.61 43.67C121.53 43.72 121.33 43.85 121.25 43.9C119.64 45.69 118.05 47.34 116.71 49.34C116.61 49.4 116.61 49.4 116.61 49.4C116.53 49.45 116.31 49.33 116.31 49.33L115.43 47.93C114.9 47.09 117.63 44.99 117.64 44.2L117.3 44.28L114.31 46.16L113.02 44.11C112.91 43.93 113.09 43.81 113.19 43.75C113.27 43.71 113.36 43.65 113.36 43.65Z" fill="white"/>
<path d="M127.25 45.65L128.99 49.44C129.04 49.54 128.83 49.88 128.74 49.92C128.63 49.97 128.23 50.15 128.23 50.15C127.73 50.38 127.67 50.53 127.28 50.46L127.15 50.41L126.55 49.11L126.16 49.05L125.34 49.42C124.95 49.6 125.75 50.55 125.34 50.74L123.83 51.43C123.42 51.62 123.22 50.39 122.83 50.56L120.11 51.79L119.99 52.08L120.63 53.47C120.86 53.98 120.02 54.24 119.82 54.33C119.72 54.38 119.31 54.56 119.22 54.6C119.12 54.65 118.72 54.59 118.68 54.49L116.8 50.4L127.25 45.65Z" fill="white"/>
<path d="M128.29 60.49C128.51 61.45 128.02 62.24 127.04 62.46C126.07 62.68 125.16 62.21 124.93 61.24C124.71 60.28 125.3 59.37 126.27 59.15C127.24 58.93 128.06 59.52 128.29 60.49Z" fill="white"/>
<path d="M122.95 69.8701C123.18 69.8701 123.95 70.0001 124.06 70.0001L133.16 70.4801C133.16 70.4801 133.92 70.4901 133.92 70.8201L133.91 72.2301C133.91 72.6701 133.14 72.7801 133.03 72.7701C132.48 72.8601 129.81 73.5801 129.25 73.6901C129.15 73.6901 128.92 73.7801 128.92 74.0101C128.92 74.5501 133.24 74.7401 133.8 75.6201L133.9 75.8301L133.89 77.2601C133.89 77.3701 133.56 77.5801 133.46 77.5801C132.13 77.5601 125.69 77.6601 124.36 77.7501C124.24 77.7501 122.91 77.8401 122.81 77.8401H122.69C122.57 77.8401 122.36 77.8301 122.36 77.6001L122.37 75.2001L125.58 75.2501L125.91 75.1401C125.91 75.1401 125.91 75.1401 125.91 75.0301L125.48 74.8101L122.82 74.1101C122.59 74.1101 122.49 73.9901 122.49 73.7801C122.49 73.1201 125.59 73.2901 125.59 72.6301L125.26 72.5101L122.6 72.4601L122.39 72.2401L122.4 70.0401C122.4 69.8301 122.62 69.8301 122.73 69.8301C122.85 69.8701 122.95 69.8701 122.95 69.8701Z" fill="white"/>
<path d="M123.09 79.38L132.65 80.8C132.77 80.82 133.11 80.77 133.21 80.78C133.21 80.78 133.21 80.78 133.33 80.8C133.45 80.82 133.51 81.04 133.51 81.04L133.2 83.31L132.96 83.49L121.97 81.86L121.78 81.62L122.1 79.23C122.11 79.13 122.33 79.16 122.33 79.16C122.66 79.22 122.77 79.24 123.09 79.38Z" fill="white"/>
<path d="M132.56 85.85L132.72 86.11L132.18 88.45C132.15 88.56 131.94 88.51 131.83 88.48C131.51 88.4 131.41 88.38 131.11 88.19L123.43 86.31C123.33 86.29 123.06 86.44 123.03 86.55L122.71 87.94L120.88 87.49C120.77 87.46 120.61 87.19 120.63 87.09L121.54 83.15L132.56 85.85Z" fill="white"/>
<path d="M120.86 88.51C123.89 89.67 131.03 92.52 131.03 92.52L131.09 92.65L130.34 94.71L130.21 94.77C129.71 94.82 129.23 94.52 128.81 94.36C128.7 94.32 128.66 94.43 128.63 94.52L128.59 94.63C128.83 94.95 129.48 95.44 129.72 95.76C129.83 95.8 129.85 96.04 129.85 96.04L129.13 97.99C129.13 97.99 128.96 98.15 128.85 98.11C127.6 97.63 127.15 95.61 125.9 95.13C125.81 95.09 125.59 95.01 125.5 94.97C123.09 94.75 120.81 94.46 118.4 94.58C118.29 94.54 118.29 94.54 118.29 94.54C118.2 94.5 118.16 94.26 118.16 94.26L118.72 92.73C119.06 91.81 122.4 92.74 123.03 92.28L122.76 92.05L119.44 90.78L120.27 88.52C120.35 88.32 120.55 88.4 120.66 88.44C120.76 88.48 120.86 88.51 120.86 88.51Z" fill="white"/>
<path d="M119.04 97.4C118.8 97.86 118.78 98.5 119.33 98.8C120.59 99.49 123.18 98.16 125.35 99.33C126.82 100.13 127.59 101.79 126.79 103.32C126.23 104.39 125.19 104.68 124.01 104.04C123.91 103.98 123.57 103.69 123.57 103.43C123.67 103.24 124.32 102.98 124.47 102.69C124.73 102.2 124.67 101.8 124.19 101.54C122.23 100.48 119.84 101.91 117.88 100.85C116.2 99.94 115.79 98.1 116.6 96.57C116.86 96.08 117.61 94.89 118.29 95.26L120.06 96.22C120.16 96.28 120.12 96.36 120.07 96.46C119.9 96.75 119.35 97.06 119.04 97.4Z" fill="white"/>
<path d="M115.61 101.18L123.47 106.91C123.56 106.98 123.89 107.1 123.97 107.16C123.97 107.16 123.97 107.16 124.06 107.23C124.16 107.3 124.11 107.53 124.11 107.53L122.78 109.38L122.48 109.42L119.95 107.57C119.77 107.44 119.64 107.63 119.58 107.71C119.45 107.9 119.26 108.16 119.43 108.29L122.14 110.27L120.69 112.3L112.12 106.05C112.02 105.98 111.69 105.88 111.61 105.82L111.52 105.75C111.42 105.68 111.25 105.55 111.38 105.37L112.71 103.52L113.01 103.48L117.26 106.58C117.34 106.64 117.63 106.44 117.63 106.44C117.69 106.36 117.82 106.03 117.71 105.95L113.46 102.85L113.41 102.55L114.81 100.6C114.87 100.52 115.04 100.65 115.04 100.65C115.3 100.83 115.4 100.9 115.61 101.18Z" fill="white"/>
<path d="M111.19 106.7L117.32 115.64L117.33 116.11L115.74 117.74C115.59 117.89 115.2 117.67 115.12 117.59C113.93 116.72 108.24 112.94 107.07 112.08C106.58 111.76 106.58 111.76 106.27 111.46C106.19 111.38 105.95 111.14 106.09 110.99L107.53 109.51C107.76 109.28 108.87 110.54 109.27 110.61L109.42 110.62L110.1 109.92C110.33 109.69 109.77 109.13 109.77 109.13C109.69 109.05 109.22 108.42 109.05 108.26L109.04 107.96L110.56 106.4C110.71 106.25 110.95 106.48 111.03 106.57L111.19 106.7ZM111.55 111.93C111.47 112.01 111.41 112.25 111.56 112.4C111.56 112.4 112.19 112.88 112.35 112.88C112.58 112.65 112.1 112.18 111.93 112.01C111.87 111.95 111.7 111.78 111.55 111.93Z" fill="white"/>
<path d="M105.64 112.11C107.61 114.71 112.18 120.94 112.18 120.94L112.16 121.08L110.42 122.4L110.28 122.38C109.83 122.16 109.58 121.65 109.31 121.28C109.24 121.19 109.15 121.26 109.07 121.31L108.98 121.38C109.01 121.78 109.31 122.54 109.34 122.94C109.41 123.03 109.3 123.24 109.3 123.24L107.66 124.49C107.66 124.49 107.43 124.54 107.36 124.44C106.55 123.37 107.24 121.43 106.43 120.36C106.37 120.28 106.23 120.09 106.17 120.01C104.23 118.53 102.45 117.06 100.32 115.87C100.25 115.78 100.25 115.78 100.25 115.78C100.19 115.7 100.29 115.48 100.29 115.48L101.59 114.5C102.37 113.91 104.72 116.49 105.51 116.44L105.4 116.1L103.24 113.25L105.14 111.8C105.31 111.67 105.44 111.85 105.51 111.94C105.58 112.03 105.64 112.11 105.64 112.11Z" fill="white"/>
<path d="M105.01 126.19L101.43 128.21C101.33 128.27 100.98 128.08 100.93 127.99C100.87 127.89 100.65 127.49 100.65 127.49C100.38 127.01 100.22 126.96 100.25 126.56L100.29 126.42L101.52 125.72L101.54 125.32L101.09 124.53C100.87 124.15 100.01 125.03 99.78 124.63L98.9499 123.17C98.7299 122.77 99.93 122.48 99.71 122.1L98.22 119.47L97.92 119.37L96.6 120.11C96.12 120.38 95.78 119.55 95.67 119.36C95.61 119.26 95.39 118.86 95.34 118.78C95.28 118.68 95.3 118.28 95.4 118.23L99.27 116.05L105.01 126.19Z" fill="white"/>
<path d="M93.93 121.38C93.45 121.58 93.03 122.06 93.27 122.63C93.83 123.96 96.69 124.59 97.64 126.87C98.29 128.42 97.85 130.18 96.25 130.84C95.14 131.3 94.14 130.86 93.62 129.62C93.57 129.51 93.5 129.07 93.66 128.88C93.86 128.8 94.53 129.01 94.83 128.89C95.34 128.68 95.55 128.34 95.34 127.83C94.48 125.77 91.7 125.34 90.84 123.28C90.1 121.51 90.93 119.84 92.53 119.18C93.04 118.97 94.38 118.54 94.68 119.25L95.46 121.11C95.51 121.22 95.42 121.26 95.31 121.3C95.01 121.42 94.39 121.32 93.93 121.38Z" fill="white"/>
<path d="M83.74 129.96C82.78 130.13 82.01 129.59 81.82 128.6C81.63 127.61 82.13 126.72 83.09 126.55C84.05 126.38 84.94 127.02 85.12 128C85.31 128.99 84.7 129.78 83.74 129.96Z" fill="white"/>
</svg>
