<svg width="124" height="126" viewBox="0 0 124 126" fill="none" xmlns="http://www.w3.org/2000/svg">
<path d="M58.0763 36.4412C58.7563 36.5912 59.6763 37.3512 59.2963 38.1912L59.2162 38.3712C59.0662 38.5312 58.7363 38.8312 58.3463 39.2212L55.6263 41.7912C55.2263 42.1812 54.9063 42.4712 54.7463 42.6412C54.6763 42.7912 52.2763 45.2712 51.3163 46.1812C50.2763 47.2712 48.6963 48.7812 48.1563 49.9812C47.9263 50.4912 47.7762 50.8212 48.2762 50.9312C49.2762 51.1512 50.4263 51.0412 51.4263 51.2612C52.9263 51.5912 54.1063 52.2112 53.2563 54.1012C53.1063 54.4312 52.8763 54.9412 52.2963 55.0112C49.8963 54.6512 47.1663 54.6212 44.8363 54.1112C43.6563 53.8512 42.6263 52.9012 43.2463 51.5212C44.6463 48.4512 56.0763 36.0112 58.0763 36.4412Z" fill="#320E10"/>
<path d="M65.4763 44.6011C66.8063 44.8911 68.2563 45.7711 67.4863 47.4811C66.0363 50.7211 61.7763 51.6411 58.9563 51.7811C58.5263 51.8811 58.5263 51.8811 58.3763 52.2111C57.9963 53.0511 59.2663 53.5311 59.9163 53.6711C63.4263 54.4411 67.7563 50.5311 68.9063 50.7911C69.3863 50.8911 69.5063 51.1211 69.2863 51.6011C65.9263 54.9911 61.5763 57.7611 57.3963 56.8511C54.5663 56.2311 53.1463 54.0711 54.4463 51.1611C56.3563 46.9211 61.2963 43.6811 65.4763 44.6011ZM59.2163 50.3511C60.5663 50.6511 63.4163 49.1911 64.0263 47.8411C64.2563 47.3311 63.8363 47.0411 63.3363 46.9311C61.8363 46.6011 59.7163 48.0211 59.1063 49.3711C58.8763 49.8811 58.7163 50.2411 59.2163 50.3511Z" fill="#320E10"/>
<path d="M68.8063 47.7712C69.2663 46.7512 68.4062 46.2012 68.7962 45.3312C69.4862 43.8012 71.1762 45.2912 72.2862 44.0512C72.6062 43.7612 74.4162 40.9512 75.5962 41.2112C76.4262 41.3912 77.5163 42.1912 77.0663 43.2112C76.7563 43.9012 76.2063 44.3412 75.8963 45.0312C75.4363 46.0512 77.1163 46.4212 76.5863 47.5912C75.9663 48.9712 74.0962 47.8012 73.0462 48.1312C71.7362 48.6012 68.1063 53.0212 67.6463 54.0412C67.5663 54.2212 67.4163 54.5512 67.3363 54.7312C67.3363 55.0912 67.6062 55.3512 68.1062 55.4612C70.4362 55.9712 73.7363 51.8412 75.2463 52.1712C75.9263 52.3212 75.9263 52.3212 75.6963 52.8312C75.6263 52.9812 75.4662 53.3412 75.4662 53.3412C72.7662 56.1112 68.8062 59.1712 65.1562 58.3712C63.3062 57.9612 62.7662 56.3312 63.6062 54.4712C64.7462 51.9312 67.7463 50.1412 68.8063 47.7712Z" fill="#320E10"/>
<path d="M80.2663 45.0312C80.5663 44.3712 80.2963 43.7512 80.5963 43.0612C81.1363 41.8612 82.2563 41.3812 83.4363 41.6312C84.6163 41.8912 84.9663 42.6912 84.4263 43.8912C83.4263 46.1112 80.2663 47.4712 78.2663 47.0312C77.9363 46.9612 77.7663 46.9211 77.9163 46.5911C78.3663 45.5711 79.8063 46.0512 80.2663 45.0312Z" fill="#320E10"/>
<path d="M79.3863 52.8912C79.3863 52.8912 79.5362 52.9212 79.7162 52.9612C80.5462 53.1412 80.3363 54.0212 80.0363 54.7112C79.6563 55.5512 78.9263 55.9512 78.6163 56.6412C78.3063 57.3312 78.4863 57.7312 78.9863 57.8412C79.4863 57.9512 80.2963 57.3711 80.6163 57.0811C80.6963 56.9011 81.0762 56.0612 81.1562 55.8812C81.7662 54.5312 81.7963 53.2212 82.4863 51.6812C83.6963 48.9712 86.4163 48.6112 88.9163 49.1612C89.5963 49.3112 89.6063 50.0712 89.2963 50.7612C88.2363 53.1412 86.0863 50.9812 85.2563 52.8512C84.4863 54.5612 84.6263 56.2712 83.9463 57.8112C83.7963 58.1412 83.4063 59.0112 83.3363 59.1612C81.8363 61.2712 79.8163 61.7512 77.8063 61.3112C75.6263 60.8312 74.3263 59.2612 75.3963 56.8612C76.1563 55.1812 77.5763 53.6112 79.3863 52.8912Z" fill="#320E10"/>
<path d="M35.0763 51.2911C35.2463 51.3311 36.2563 51.5511 36.4063 51.5811C40.2663 52.4211 43.5163 54.9911 41.4563 59.5911C38.5463 66.0811 30.1263 70.9611 23.7863 69.5711C22.4363 69.2711 19.6063 68.6511 20.4463 66.7611C21.4263 64.5711 33.0163 51.4011 35.0763 51.2911ZM25.6963 65.6711C25.8763 65.7111 26.3763 65.8211 26.5463 65.8611C30.3763 66.7011 36.0363 63.4511 37.7863 59.5411C38.7763 57.3211 37.8863 55.6411 35.8763 55.2011C35.7263 55.1711 35.2263 55.0611 35.0463 55.0211C32.3563 56.1111 27.6263 62.5711 25.7363 64.7611L25.6563 64.9411C25.5163 65.2611 25.6063 65.4811 25.6963 65.6711Z" fill="#320E10"/>
<path d="M47.2563 60.2912C49.0863 60.6912 48.0463 61.7812 49.2363 62.8012C50.6863 64.0412 50.9563 64.3012 50.0463 66.3412C48.2963 70.2512 42.8663 73.3512 39.0363 72.5112C36.1763 71.8812 35.5963 69.5112 36.7363 66.9612C38.4863 63.0612 43.2563 59.4212 47.2563 60.2912ZM41.5563 69.3412C42.5563 69.5612 44.4363 69.0512 45.2963 67.9212C45.9063 66.5712 46.6163 65.4012 47.2263 64.0512C47.4563 63.5412 47.5063 62.9912 46.8363 62.8412C44.6863 62.3712 41.4563 65.0312 40.5463 67.0712C40.0863 68.0912 40.3863 69.0812 41.5563 69.3412Z" fill="#320E10"/>
<path d="M47.8563 69.0312C48.8163 68.1212 52.6963 63.9212 53.4063 63.1512C54.2163 62.2112 54.8763 61.9612 55.8763 62.1812C56.3763 62.2912 57.3763 62.5112 57.0663 63.2012C55.7763 66.0912 51.9263 67.6812 50.6963 70.4212C50.5463 70.7512 50.5763 71.1212 50.8963 71.1912C52.2463 71.4912 55.1263 68.7512 56.0063 68.0212C56.8163 67.4412 60.0863 64.6212 60.8963 64.0412C61.4463 63.6012 61.8863 63.5012 62.3863 63.6112C63.0363 63.7512 64.2263 64.4112 63.8563 65.2512C62.7963 67.6312 59.3763 69.1212 58.2963 71.5212C57.9163 72.3612 58.0963 72.7712 58.9163 72.9512C61.0963 73.4312 63.4963 69.3012 64.9963 69.6312C65.4963 69.7412 65.6063 69.9312 65.3763 70.4412L65.2163 70.8012C62.8963 73.1012 59.2363 76.7812 55.8863 76.0512C53.3863 75.5012 54.5863 72.0112 53.9163 71.8612C52.7663 71.6112 50.0563 74.7712 47.8763 74.3012C46.2263 73.9412 46.0563 72.2212 46.7463 70.6912C46.9663 70.1612 47.4463 69.5012 47.8563 69.0312Z" fill="#320E10"/>
<path d="M56.3363 79.3012C57.1663 79.1212 60.8563 78.6112 61.6763 78.4212C62.0863 78.3112 64.3963 78.0612 64.8563 77.0412C64.9263 76.8912 64.7763 76.8512 64.5963 76.8212C63.9163 76.6712 63.0363 77.0412 62.3663 76.8912C60.0363 76.3812 60.1763 73.9712 61.0163 72.1112C62.7763 68.1812 67.6163 64.7512 71.6163 65.6212C74.1163 66.1712 74.7063 68.5412 73.6363 70.9412C73.0263 72.2912 72.0763 73.2112 71.4663 74.5612L71.8163 74.6412C72.9663 74.8912 74.9063 71.7812 76.5863 72.1512C76.9163 72.2212 76.9363 72.5912 76.7863 72.9212C75.4863 75.8312 68.7063 77.8812 66.2063 79.7812C62.9763 82.0712 59.6463 86.2012 55.4963 85.2912C53.8163 84.9212 53.5063 83.1712 54.1863 81.6412C54.7263 80.4412 55.2063 79.8112 56.3363 79.3012ZM58.1763 82.1512C58.5263 82.2312 59.2563 82.1912 59.4863 81.6812C59.6363 81.3512 59.3063 81.2812 59.1363 81.2412C58.6363 81.1312 57.9863 80.9912 57.7563 81.5012C57.5163 82.0012 57.6763 82.0412 58.1763 82.1512ZM64.8463 74.2412C67.1763 74.7512 70.6763 71.4212 71.6663 69.2012C71.9763 68.5112 71.5463 68.2512 70.8963 68.1012C68.3963 67.5512 65.6763 69.9312 64.6063 72.3312C64.5363 72.4812 64.2263 73.1712 64.1463 73.3512C64.0663 73.9012 64.3463 74.1312 64.8463 74.2412Z" fill="#320E10"/>
<path d="M77.2862 78.0912C78.3462 75.7112 81.4463 74.1512 82.5063 71.7712C82.7363 71.2612 82.6363 71.0412 82.1363 70.9312C78.9563 70.2312 72.5263 79.6812 70.6963 79.2812C70.0163 79.1312 69.1763 78.5612 69.5563 77.7112L69.6363 77.5312C71.6363 75.1612 80.6462 64.4312 82.6162 62.0612C83.0162 61.5912 83.9563 60.3112 84.8063 60.4912C85.4563 60.6312 86.6662 61.6312 86.2762 62.4912C85.2162 64.8712 81.9663 66.4012 80.8263 68.9512C80.7463 69.1312 80.9263 69.1712 81.2463 69.2412L81.4262 69.2812C82.7362 68.8112 84.2662 68.2212 85.6162 68.5212C86.7662 68.7712 87.3962 69.8312 86.8562 71.0312C86.6262 71.5412 86.4762 71.8712 86.1062 72.3512C85.4462 72.9612 82.8263 75.5612 82.1963 76.1812C81.8763 76.4712 81.7963 76.6512 81.6463 76.9812C81.4163 77.4912 81.6862 78.1112 82.3662 78.2612C84.6962 78.7712 86.8462 74.3912 88.8562 74.8312C89.3562 74.9412 89.2862 75.0912 89.0562 75.6012C87.9163 78.1512 81.0862 81.9112 78.4062 81.3212C77.4062 81.1012 76.6362 80.3712 76.8462 79.1012C76.8962 78.9512 77.2062 78.2612 77.2862 78.0912Z" fill="#320E10"/>
<path d="M90.1563 79.7811C91.1563 80.0011 91.6763 80.8712 91.2163 81.8912C90.6763 83.0912 89.7263 83.6111 88.5563 83.3511C87.3763 83.0911 87.2563 82.1411 87.7163 81.1211C88.2463 79.9311 89.1563 79.5611 90.1563 79.7811ZM101.596 65.2912C102.276 65.4412 103.306 66.3912 102.916 67.2612C102.456 68.2812 93.7863 77.4012 93.1263 77.2612C92.2763 77.0712 92.1663 75.7312 92.5363 74.8912C93.1463 73.5412 99.7663 64.8912 101.596 65.2912Z" fill="#320E10"/>
<path d="M50.7962 125.491C49.6862 125.301 49.2963 124.201 49.4563 123.191C49.4863 122.971 49.4763 122.281 49.9263 122.351C49.9563 122.361 50.0063 122.361 50.0563 122.391L50.4363 122.541C50.5163 122.571 50.5863 122.581 50.6863 122.601C52.1063 122.841 52.4763 120.481 52.6263 119.461C52.7163 118.891 53.1463 116.091 52.0563 115.901L50.8363 115.691C50.7363 115.671 50.8063 115.221 50.8063 115.221C51.0363 113.751 51.2763 112.871 52.9263 113.151C55.7963 113.631 55.6162 117.641 55.2862 119.781C54.9362 122.031 53.7662 125.991 50.7962 125.491Z" fill="#320E10"/>
<path d="M43.0363 123.531C39.8363 122.501 40.4362 119.011 41.2162 116.501C41.9862 114.011 43.4063 110.531 46.5963 111.551C49.9063 112.611 49.2863 116.121 48.4763 118.721C47.6763 121.341 46.2263 124.561 43.0363 123.531ZM45.3963 119.641L46.4662 116.171C46.6662 115.521 46.7963 114.361 45.9463 114.091C45.1963 113.851 44.5763 114.721 44.3763 115.381L43.2463 119.081C43.0463 119.731 43.0663 120.811 43.8163 121.051C44.6463 121.321 45.1963 120.291 45.3963 119.641Z" fill="#320E10"/>
<path d="M36.9463 120.901L33.1263 119.041C33.0163 118.991 32.9663 118.581 33.0163 118.491C33.0663 118.381 33.2663 117.971 33.2663 117.971C33.5063 117.461 33.4563 117.301 33.8063 117.101L33.9363 117.051L35.2563 117.691L35.5963 117.481L35.9863 116.651C36.1763 116.251 34.9263 116.021 35.1263 115.611L35.8563 114.071C36.0563 113.651 37.0063 114.501 37.1963 114.101L39.4763 109.271L39.7863 109.171L41.9963 110.241L36.9463 120.901Z" fill="#320E10"/>
<path d="M30.6662 117.661L27.0763 115.371C26.9763 115.311 26.9762 114.901 27.0262 114.811C27.0862 114.711 27.3363 114.321 27.3363 114.321C27.6363 113.841 27.5962 113.681 27.9762 113.521L28.1163 113.491L29.3462 114.281L29.7063 114.111L30.1963 113.331C30.4263 112.951 29.2163 112.581 29.4563 112.191L30.3562 110.751C30.5962 110.361 31.4563 111.311 31.6863 110.941L34.5163 106.411L34.8263 106.351L36.8963 107.671L30.6662 117.661Z" fill="#320E10"/>
<path d="M24.7663 113.711L21.4663 111.011C21.3763 110.931 21.4163 110.531 21.4863 110.451C21.5663 110.361 21.8463 110.001 21.8463 110.001C22.1963 109.561 22.1763 109.401 22.5763 109.281L22.7163 109.271L23.8463 110.201L24.2263 110.071L24.8063 109.361C25.0863 109.021 23.9163 108.501 24.2063 108.141L25.2663 106.821C25.5563 106.461 26.2963 107.511 26.5663 107.161L28.4863 104.781L28.4663 104.461L27.2563 103.471C26.8163 103.111 27.4663 102.481 27.6063 102.311C27.6763 102.221 27.9663 101.861 28.0263 101.781C28.1063 101.691 28.4863 101.561 28.5763 101.641L32.1363 104.551L24.7663 113.711Z" fill="#320E10"/>
<path d="M19.0963 108.861L16.1363 105.791C16.0563 105.711 16.1463 105.311 16.2163 105.241C16.2963 105.161 16.6263 104.841 16.6263 104.841C17.0263 104.451 17.0263 104.281 17.4363 104.221H17.5763L18.5963 105.281L18.9963 105.201L19.6563 104.561C19.9763 104.251 18.8763 103.601 19.2063 103.281L20.4163 102.101C20.7463 101.781 21.3563 102.901 21.6763 102.601L23.8663 100.471L23.8863 100.151L22.7963 99.0211C22.3963 98.6111 23.1263 98.0611 23.2863 97.9111C23.3663 97.8311 23.6963 97.5111 23.7763 97.4411C23.8663 97.3611 24.2563 97.2811 24.3363 97.3611L27.5263 100.681L19.0963 108.861Z" fill="#320E10"/>
<path d="M17.8763 92.4712C17.5963 92.0112 17.0363 91.6612 16.5063 91.9912C15.2663 92.7612 15.1262 95.7512 12.9962 97.0612C11.5562 97.9512 9.70627 97.7612 8.76627 96.2412C8.11627 95.1812 8.38623 94.1012 9.53623 93.3912C9.63623 93.3312 10.0662 93.1812 10.2862 93.3212C10.4062 93.5112 10.3062 94.2212 10.4762 94.5112C10.7762 95.0012 11.1563 95.1612 11.6363 94.8712C13.5563 93.6912 13.5163 90.8012 15.4363 89.6212C17.0863 88.6112 18.9062 89.2112 19.8462 90.7312C20.1462 91.2212 20.8063 92.5212 20.1463 92.9212L18.4162 93.9912C18.3162 94.0512 18.2563 93.9712 18.1963 93.8712C18.0163 93.5812 18.0163 92.9212 17.8763 92.4712Z" fill="#320E10"/>
<path d="M16.2863 87.4411L7.27625 91.4011C7.16625 91.4511 6.89627 91.6811 6.80627 91.7211C6.80627 91.7211 6.80629 91.7211 6.69629 91.7711C6.58629 91.8211 6.40625 91.6611 6.40625 91.6611L5.44629 89.5011L5.55627 89.2111L8.4563 87.9311C8.6563 87.8411 8.56625 87.6311 8.52625 87.5311C8.42625 87.3111 8.2963 87.0111 8.0863 87.1011L4.97626 88.4711L3.92627 86.1112L13.7563 81.7911C13.8663 81.7411 14.1262 81.5011 14.2162 81.4611L14.3263 81.4111C14.4363 81.3611 14.6363 81.2711 14.7363 81.4911L15.6963 83.6511L15.5863 83.9411L10.7063 86.0911C10.6163 86.1311 10.6363 86.4911 10.6363 86.4911C10.6763 86.5811 10.8962 86.8711 11.0262 86.8211L15.9062 84.6811L16.1963 84.7911L17.2063 87.0511C17.2463 87.1411 17.0463 87.2312 17.0463 87.2312C16.7463 87.3512 16.6463 87.4011 16.2863 87.4411Z" fill="#320E10"/>
<path d="M1.55627 79.7012C0.676273 76.4512 3.94625 75.1212 6.46625 74.4612C8.97625 73.8012 12.6763 73.1812 13.5563 76.4412C14.4663 79.8112 11.1763 81.1212 8.55627 81.8112C5.93627 82.5012 2.43627 82.9612 1.55627 79.7012ZM6.11627 79.6612L9.61627 78.7512C10.2763 78.5812 11.3163 78.0812 11.0863 77.2212C10.8763 76.4612 9.8063 76.3912 9.1463 76.5612L5.41626 77.5312C4.75626 77.7012 3.85628 78.2812 4.06628 79.0512C4.30628 79.9112 5.45627 79.8312 6.11627 79.6612Z" fill="#320E10"/>
<path d="M0.41623 73.2111L0.016267 69.6511C-0.183733 67.8611 1.49627 66.6711 3.08627 66.5111C7.14627 66.0911 7.44625 69.7811 7.99625 69.7311L11.8363 69.3411L12.1162 71.8011L11.9162 72.0411L0.41623 73.2111ZM2.69626 70.2711L4.84622 70.0511C5.06622 70.0311 5.05622 69.9111 5.02622 69.6911C4.99622 69.4711 4.73627 69.0411 4.39627 69.0811L2.92624 69.2311C2.70624 69.2511 2.28625 69.6311 2.31625 69.8511C2.33625 70.0911 2.47626 70.2911 2.69626 70.2711Z" fill="#320E10"/>
<path d="M4.14632 56.9112C4.24632 55.9112 4.99631 55.3212 6.00631 55.4412C7.02631 55.5612 7.74632 56.3212 7.64632 57.3212C7.54632 58.3212 6.66627 59.0012 5.65627 58.8812C4.64627 58.7612 4.04632 57.9112 4.14632 56.9112Z" fill="#320E10"/>
<path d="M2.51627 42.8011C2.84627 41.7311 3.98622 41.5211 4.96622 41.8411C5.17622 41.9111 5.86623 42.0111 5.72623 42.4411C5.71623 42.4711 5.70623 42.5211 5.66623 42.5611L5.46622 42.9212C5.42622 42.9912 5.40625 43.0611 5.37625 43.1511C4.94625 44.5211 7.21626 45.2711 8.19626 45.5911C8.74626 45.7711 11.4462 46.6511 11.7762 45.6011L12.1463 44.4212C12.1763 44.3212 12.6162 44.4711 12.6162 44.4711C14.0262 44.9311 14.8562 45.3111 14.3562 46.9111C13.4862 49.6911 9.57626 48.8711 7.50626 48.1911C5.34626 47.4811 1.61627 45.6711 2.51627 42.8011Z" fill="#320E10"/>
<path d="M5.47623 35.4211C6.90623 32.4011 10.2663 33.5411 12.6363 34.7011C14.9863 35.8511 18.2262 37.8111 16.7962 40.8311C15.3062 43.9511 11.9462 42.7911 9.48624 41.5911C7.01624 40.3811 4.03623 38.4411 5.47623 35.4211ZM8.99625 38.3711L12.2663 39.9711C12.8863 40.2711 14.0063 40.5811 14.3863 39.7811C14.7263 39.0711 13.9463 38.3211 13.3263 38.0211L9.83628 36.3111C9.22628 36.0111 8.15626 35.8611 7.81626 36.5711C7.44626 37.3711 8.37625 38.0711 8.99625 38.3711Z" fill="#320E10"/>
<path d="M10.5763 26.5711C12.4763 23.8311 15.6162 25.5011 17.7762 27.0311C19.9162 28.5511 22.8062 31.0011 20.9062 33.7411C18.9362 36.5711 15.7963 34.8811 13.5563 33.3011C11.3163 31.7211 8.67629 29.3111 10.5763 26.5711ZM13.5962 30.0511L16.5763 32.1611C17.1363 32.5611 18.1963 33.0411 18.6963 32.3211C19.1463 31.6811 18.4963 30.8111 17.9363 30.4111L14.7563 28.1611C14.1963 27.7611 13.1662 27.4411 12.7162 28.0911C12.2162 28.8111 13.0362 29.6511 13.5962 30.0511Z" fill="#320E10"/>
<path d="M22.9463 29.4211C20.5563 27.1011 14.9563 21.5211 14.9563 21.5211V21.3811L16.4963 19.7711H16.6363C17.1263 19.9211 17.4563 20.4011 17.7863 20.7311C17.8763 20.8111 17.9562 20.7311 18.0262 20.6611L18.1063 20.5811C18.0063 20.1811 17.5863 19.4511 17.4963 19.0611C17.4063 18.9811 17.4863 18.7511 17.4863 18.7511L18.9463 17.2211C18.9463 17.2211 19.1663 17.1411 19.2563 17.2211C20.2463 18.1811 19.8463 20.2511 20.8363 21.2111C20.9063 21.2811 21.0862 21.4511 21.1562 21.5211C23.3463 22.7111 25.3763 23.9111 27.7063 24.7811C27.7963 24.8611 27.7963 24.8611 27.7963 24.8611C27.8663 24.9311 27.8063 25.1711 27.8063 25.1711L26.6562 26.3711C25.9663 27.0911 23.1862 24.8611 22.4062 25.0311L22.5763 25.3511L25.2063 27.8911L23.5163 29.6611C23.3663 29.8211 23.2063 29.6611 23.1163 29.5811C23.0263 29.5011 22.9463 29.4211 22.9463 29.4211Z" fill="#320E10"/>
<path d="M28.2063 23.5312L21.8763 15.8312C21.7963 15.7412 21.5063 15.5412 21.4363 15.4512C21.4363 15.4512 21.4363 15.4512 21.3563 15.3612C21.2763 15.2712 21.3763 15.0512 21.3763 15.0512L23.1663 13.5712L23.4763 13.6012L30.7563 22.4512L30.7363 22.7612L28.8463 24.3212C28.7663 24.3812 28.6263 24.2112 28.6263 24.2112C28.4263 23.9512 28.3463 23.8612 28.2063 23.5312Z" fill="#320E10"/>
<path d="M25.4363 11.8212L28.9363 9.48115C29.0363 9.42115 29.4062 9.58115 29.4662 9.67115C29.5362 9.77115 29.7863 10.1612 29.7863 10.1612C30.0963 10.6312 30.2663 10.6712 30.2663 11.0812L30.2363 11.2212L29.0262 12.0212L29.0363 12.4312L29.5463 13.2011C29.7963 13.5711 30.6163 12.6112 30.8663 13.0012L31.8163 14.4312C32.0763 14.8212 30.8763 15.2012 31.1263 15.5812L32.8363 18.1511L33.1463 18.2311L34.4363 17.3711C34.9063 17.0611 35.3163 17.8811 35.4363 18.0611C35.5063 18.1611 35.7563 18.5512 35.8163 18.6312C35.8863 18.7312 35.8963 19.1411 35.7963 19.2011L32.0163 21.7212L25.4363 11.8212Z" fill="#320E10"/>
<path d="M37.0863 15.9111C37.5663 15.6711 37.9462 15.1511 37.6662 14.5811C36.9962 13.2611 34.0363 12.8411 32.8863 10.5911C32.1063 9.06113 32.4263 7.22114 33.9963 6.43114C35.0963 5.87114 36.1463 6.25114 36.7663 7.47114C36.8163 7.58114 36.9362 8.02113 36.7762 8.23113C36.5862 8.33113 35.8863 8.16113 35.5863 8.31113C35.0863 8.57113 34.8963 8.93114 35.1463 9.43114C36.1763 11.4711 39.0463 11.6911 40.0763 13.7311C40.9663 15.4711 40.2362 17.2511 38.6662 18.0411C38.1562 18.2911 36.8262 18.8311 36.4662 18.1311L35.5362 16.2911C35.4862 16.1811 35.5663 16.1411 35.6763 16.0911C35.9863 15.9411 36.6363 16.0011 37.0863 15.9111Z" fill="#320E10"/>
<path d="M46.8363 6.36113C47.8063 6.11113 48.6263 6.60114 48.8963 7.60114C49.1663 8.59114 48.7263 9.54114 47.7663 9.79114C46.7963 10.0411 45.8463 9.46114 45.5763 8.46114C45.3063 7.46114 45.8663 6.61113 46.8363 6.36113Z" fill="#320E10"/>
<path d="M59.4163 0.00116113C60.5363 -0.0388389 61.1363 0.961167 61.1863 1.99117C61.1963 2.21117 61.3463 2.89116 60.8963 2.91116C60.8663 2.91116 60.8163 2.91115 60.7663 2.90115L60.3563 2.83116C60.2763 2.82116 60.2063 2.82117 60.1063 2.82117C58.6663 2.88117 58.7963 5.27116 58.8463 6.30116C58.8763 6.88116 59.0163 9.72117 60.1263 9.68117L61.3663 9.63117C61.4663 9.63117 61.4863 10.0912 61.4863 10.0912C61.5663 11.5812 61.5063 12.4912 59.8363 12.5512C56.9363 12.6612 56.2963 8.70117 56.1863 6.52117C56.0663 4.24117 56.4063 0.121161 59.4163 0.00116113Z" fill="#320E10"/>
<path d="M63.0763 11.1112L63.9662 1.23119C63.9762 1.11119 63.9062 0.761194 63.9162 0.661194C63.9162 0.661194 63.9163 0.661199 63.9263 0.541199C63.9363 0.421199 64.1662 0.341187 64.1662 0.341187L66.4963 0.581192L66.6963 0.821198L66.4062 4.01118C66.3862 4.23118 66.6162 4.26119 66.7162 4.27119C66.9462 4.29119 67.2862 4.33119 67.2962 4.11119L67.6062 0.701187L70.1562 0.961197L69.1863 11.7412C69.1763 11.8612 69.2663 12.2112 69.2563 12.3112L69.2463 12.4312C69.2363 12.5512 69.2162 12.7712 68.9862 12.7512L66.6562 12.5112L66.4563 12.2712L66.9363 6.92119C66.9463 6.82119 66.6263 6.66119 66.6263 6.66119C66.5263 6.65119 66.1662 6.70119 66.1562 6.84119L65.6763 12.1912L65.4363 12.3912L62.9862 12.1412C62.8862 12.1312 62.9062 11.9112 62.9062 11.9112C62.9362 11.5612 62.9463 11.4412 63.0763 11.1112Z" fill="#320E10"/>
<path d="M73.1763 1.54114L77.2963 2.55113C77.4063 2.58113 77.5462 2.96113 77.5262 3.06113C77.4962 3.18113 77.3963 3.62112 77.3963 3.62112C77.2663 4.17112 77.3563 4.31113 77.0563 4.59113L76.9363 4.67113L75.5163 4.32114L75.2263 4.60114L75.0163 5.50113C74.9163 5.93113 76.1863 5.89113 76.0763 6.34113L75.6963 8.00113C75.5963 8.45113 74.4863 7.83112 74.3863 8.26112L73.6963 11.2511L73.8563 11.5311L75.3763 11.9011C75.9263 12.0411 75.6163 12.8911 75.5663 13.1011C75.5363 13.2211 75.4363 13.6711 75.4163 13.7711C75.3863 13.8911 75.0963 14.1711 74.9863 14.1411L70.5363 13.0511L73.1763 1.54114Z" fill="#320E10"/>
<path d="M80.3663 3.47119L84.3463 4.97119C84.4563 5.01119 84.5463 5.41118 84.5063 5.51118C84.4663 5.62118 84.3063 6.05119 84.3063 6.05119C84.1163 6.58119 84.1863 6.73119 83.8463 6.97119L83.7162 7.03119L82.3463 6.51118L82.0262 6.75119L81.7162 7.61119C81.5662 8.03119 82.8263 8.1412 82.6763 8.5712L82.0963 10.1712C81.9363 10.6012 80.9063 9.85119 80.7563 10.2712L79.7162 13.1512L79.8363 13.4512L81.2963 14.0012C81.8263 14.2012 81.4163 15.0112 81.3363 15.2212C81.2963 15.3312 81.1363 15.7612 81.1063 15.8612C81.0663 15.9712 80.7463 16.2212 80.6363 16.1712L76.3463 14.5512L80.3663 3.47119Z" fill="#320E10"/>
<path d="M84.0463 15.3212C84.5263 15.5712 85.1763 15.5912 85.4563 15.0312C86.1163 13.7312 84.7063 11.0612 85.8363 8.84118C86.6063 7.33118 88.2763 6.53118 89.8563 7.36118C90.9563 7.94118 91.2763 9.01118 90.6663 10.2212C90.6163 10.3312 90.3163 10.6712 90.0563 10.6712C89.8663 10.5712 89.5763 9.90119 89.2863 9.74119C88.7763 9.47119 88.3763 9.53118 88.1163 10.0312C87.0863 12.0412 88.6063 14.5112 87.5763 16.5312C86.6963 18.2612 84.8363 18.6812 83.2563 17.8512C82.7463 17.5812 81.5263 16.8112 81.8763 16.1112L82.8063 14.2912C82.8563 14.1812 82.9463 14.2312 83.0563 14.2912C83.3563 14.4412 83.6963 15.0012 84.0463 15.3212Z" fill="#320E10"/>
<path d="M93.9263 9.95117L97.4263 12.3812C97.5263 12.4512 97.5163 12.8512 97.4563 12.9412C97.3863 13.0412 97.1363 13.4212 97.1363 13.4212C96.8163 13.8812 96.8462 14.0512 96.4662 14.2012L96.3263 14.2312L95.1263 13.4012L94.7563 13.5612L94.2363 14.3212C93.9863 14.6912 95.1863 15.1012 94.9363 15.4812L93.9863 16.8912C93.7263 17.2712 92.9062 16.2912 92.6562 16.6512L90.9363 19.1812L90.9863 19.5012L92.2762 20.3912C92.7462 20.7212 92.1463 21.3912 92.0163 21.5812C91.9463 21.6812 91.6863 22.0612 91.6363 22.1412C91.5663 22.2412 91.1963 22.3912 91.1063 22.3312L87.3263 19.7112L93.9263 9.95117Z" fill="#320E10"/>
<path d="M102.616 16.2411C103.456 16.9911 103.206 18.1211 102.536 18.8911C102.386 19.0611 102.036 19.6411 101.686 19.3411C101.666 19.3211 101.626 19.2811 101.596 19.2411L101.346 18.9111C101.296 18.8411 101.246 18.8011 101.166 18.7311C100.086 17.7711 98.5163 19.5511 97.8463 20.3211C97.4663 20.7511 95.6063 22.8711 96.4363 23.6111L97.3663 24.4411C97.4463 24.5111 97.1363 24.8511 97.1363 24.8511C96.1663 25.9611 95.4963 26.5711 94.2363 25.4511C92.0463 23.5011 94.3263 20.2411 95.7463 18.6211C97.2463 16.9111 100.346 14.2211 102.616 16.2411Z" fill="#320E10"/>
<path d="M96.9763 26.5011L106.496 21.1211L106.976 21.1511L108.516 22.9411C108.656 23.1111 108.406 23.4811 108.316 23.5611C107.336 24.6911 103.086 30.1411 102.116 31.2611C101.756 31.7311 101.756 31.7311 101.426 32.0111C101.336 32.0911 101.076 32.3111 100.936 32.1411L99.5463 30.5111C99.3263 30.2511 100.686 29.2411 100.796 28.8411L100.816 28.6911L100.156 27.9211C99.9363 27.6611 99.3363 28.1811 99.3363 28.1811C99.2463 28.2611 98.5763 28.6811 98.3963 28.8311L98.0863 28.8111L96.6163 27.0911C96.4763 26.9211 96.7263 26.7011 96.8163 26.6311L96.9763 26.5011ZM102.306 26.6511C102.386 26.7411 102.616 26.8311 102.786 26.6811C102.786 26.6811 103.326 26.0811 103.336 25.9211C103.116 25.6611 102.606 26.1111 102.426 26.2611C102.346 26.3311 102.166 26.4811 102.306 26.6511Z" fill="#320E10"/>
<path d="M102.036 32.7311C104.826 30.9811 111.486 26.9312 111.486 26.9312L111.626 26.9612L112.836 28.8711L112.806 29.0111C112.546 29.4511 112.006 29.6511 111.616 29.8911C111.516 29.9511 111.576 30.0511 111.636 30.1411L111.696 30.2411C112.096 30.2411 112.896 30.0211 113.306 30.0311C113.406 29.9711 113.606 30.1012 113.606 30.1012L114.746 31.9111C114.746 31.9111 114.776 32.1512 114.676 32.2112C113.526 32.9312 111.616 32.0211 110.466 32.7511C110.376 32.8011 110.176 32.9311 110.096 32.9811C108.446 34.8111 106.816 36.5011 105.446 38.5511C105.346 38.6111 105.346 38.6112 105.346 38.6112C105.256 38.6612 105.046 38.5412 105.046 38.5412L104.146 37.1111C103.606 36.2511 106.396 34.1012 106.416 33.2912L106.066 33.3711L103.006 35.2912L101.686 33.1911C101.566 33.0011 101.756 32.8912 101.856 32.8212C101.956 32.7812 102.036 32.7311 102.036 32.7311Z" fill="#320E10"/>
<path d="M116.256 34.7711L118.036 38.6511C118.086 38.7611 117.866 39.1011 117.776 39.1411C117.666 39.1911 117.246 39.3811 117.246 39.3811C116.736 39.6111 116.676 39.7711 116.266 39.6911L116.136 39.6411L115.526 38.3111L115.126 38.2511L114.296 38.6311C113.896 38.8111 114.716 39.7911 114.296 39.9811L112.756 40.6811C112.336 40.8711 112.136 39.6111 111.736 39.7911L108.956 41.0511L108.836 41.3511L109.496 42.7711C109.736 43.2911 108.866 43.5611 108.666 43.6511C108.556 43.7011 108.146 43.8911 108.046 43.9311C107.936 43.9811 107.536 43.9211 107.486 43.8111L105.566 39.6311L116.256 34.7711Z" fill="#320E10"/>
<path d="M117.316 49.9511C117.546 50.9311 117.036 51.7411 116.046 51.9611C115.046 52.1811 114.116 51.7011 113.886 50.7211C113.656 49.7411 114.256 48.8111 115.256 48.5811C116.256 48.3611 117.086 48.9711 117.316 49.9511Z" fill="#320E10"/>
<path d="M111.856 59.5612C112.096 59.5612 112.876 59.7012 112.996 59.7012L122.306 60.2012C122.306 60.2012 123.086 60.2112 123.086 60.5512L123.076 61.9912C123.076 62.4412 122.286 62.5512 122.166 62.5512C121.606 62.6412 118.876 63.3812 118.296 63.4912C118.196 63.4912 117.956 63.5912 117.956 63.8212C117.956 64.3712 122.376 64.5712 122.956 65.4712L123.056 65.6912L123.046 67.1512C123.046 67.2712 122.706 67.4812 122.606 67.4812C121.246 67.4612 114.656 67.5612 113.296 67.6612C113.176 67.6612 111.816 67.7512 111.716 67.7512H111.596C111.476 67.7512 111.256 67.7412 111.256 67.5112L111.266 65.0612L114.556 65.1212L114.896 65.0112C114.896 65.0112 114.896 65.0112 114.896 64.8912L114.456 64.6612L111.736 63.9412C111.496 63.9412 111.396 63.8212 111.396 63.6012C111.396 62.9312 114.566 63.1012 114.566 62.4312L114.226 62.3112L111.506 62.2612L111.286 62.0412L111.296 59.7912C111.296 59.5712 111.516 59.5812 111.636 59.5812C111.756 59.5512 111.856 59.5612 111.856 59.5612Z" fill="#320E10"/>
<path d="M111.996 69.2911L121.776 70.7411C121.896 70.7611 122.246 70.7111 122.346 70.7211C122.346 70.7211 122.346 70.7211 122.466 70.7411C122.586 70.7611 122.656 70.9911 122.656 70.9911L122.346 73.3211L122.096 73.5011L110.846 71.8311L110.656 71.5811L110.986 69.1411C110.996 69.0411 111.216 69.0711 111.216 69.0711C111.556 69.1211 111.676 69.1411 111.996 69.2911Z" fill="#320E10"/>
<path d="M121.686 75.9011L121.856 76.1711L121.306 78.5711C121.276 78.6811 121.066 78.6311 120.946 78.6011C120.616 78.5211 120.516 78.4911 120.206 78.3011L112.346 76.3711C112.246 76.3511 111.966 76.5011 111.936 76.6211L111.606 78.0411L109.736 77.5811C109.616 77.5511 109.456 77.2711 109.476 77.1711L110.406 73.1411L121.686 75.9011Z" fill="#320E10"/>
<path d="M109.716 78.6312C112.816 79.8112 120.126 82.7312 120.126 82.7312L120.186 82.8612L119.416 84.9612L119.286 85.0212C118.776 85.0712 118.286 84.7612 117.856 84.6012C117.746 84.5612 117.706 84.6712 117.666 84.7612L117.626 84.8712C117.876 85.2012 118.546 85.7012 118.786 86.0312C118.896 86.0712 118.916 86.3112 118.916 86.3112L118.186 88.3012C118.186 88.3012 118.016 88.4712 117.906 88.4212C116.626 87.9312 116.166 85.8612 114.896 85.3712C114.796 85.3312 114.576 85.2512 114.486 85.2112C112.016 84.9812 109.686 84.6812 107.216 84.8112C107.106 84.7712 107.106 84.7712 107.106 84.7712C107.016 84.7312 106.976 84.4912 106.976 84.4912L107.556 82.9212C107.906 81.9812 111.326 82.9312 111.966 82.4612L111.686 82.2312L108.286 80.9312L109.136 78.6212C109.216 78.4212 109.416 78.5012 109.536 78.5412C109.616 78.5912 109.716 78.6312 109.716 78.6312Z" fill="#320E10"/>
<path d="M107.856 87.7212C107.606 88.1912 107.596 88.8512 108.146 89.1512C109.436 89.8512 112.086 88.4912 114.306 89.6912C115.816 90.5012 116.596 92.2012 115.776 93.7712C115.196 94.8612 114.136 95.1612 112.926 94.5112C112.826 94.4512 112.476 94.1512 112.476 93.8912C112.576 93.7012 113.236 93.4312 113.396 93.1312C113.656 92.6312 113.606 92.2212 113.106 91.9512C111.106 90.8712 108.646 92.3312 106.646 91.2412C104.926 90.3112 104.506 88.4312 105.336 86.8612C105.596 86.3612 106.376 85.1412 107.066 85.5212L108.876 86.5012C108.986 86.5612 108.936 86.6512 108.886 86.7512C108.736 87.0512 108.176 87.3812 107.856 87.7212Z" fill="#320E10"/>
<path d="M104.346 91.5911L112.386 97.4511C112.486 97.5211 112.816 97.6411 112.906 97.7011C112.906 97.7011 112.906 97.7011 113.006 97.7711C113.106 97.8411 113.056 98.0811 113.056 98.0811L111.696 99.9811L111.386 100.021L108.796 98.1311C108.616 98.0011 108.476 98.1911 108.416 98.2711C108.276 98.4611 108.086 98.7311 108.266 98.8611L111.036 100.881L109.546 102.951L100.776 96.5511C100.676 96.4811 100.336 96.3711 100.246 96.3111L100.146 96.2411C100.046 96.1711 99.8663 96.0411 100.006 95.8511L101.366 93.9511L101.676 93.9111L106.026 97.0811C106.106 97.1411 106.396 96.9411 106.396 96.9411C106.456 96.8611 106.586 96.5211 106.476 96.4411L102.126 93.2711L102.066 92.9611L103.496 90.9711C103.556 90.8911 103.736 91.0211 103.736 91.0211C104.026 91.2311 104.126 91.3011 104.346 91.5911Z" fill="#320E10"/>
<path d="M99.8163 97.2412L106.086 106.381L106.096 106.861L104.466 108.531C104.316 108.691 103.916 108.461 103.836 108.371C102.616 107.481 96.7963 103.611 95.5963 102.731C95.0963 102.401 95.0962 102.401 94.7762 102.091C94.6962 102.011 94.4463 101.761 94.5963 101.611L96.0763 100.091C96.3063 99.8512 97.4563 101.141 97.8563 101.211L98.0163 101.221L98.7162 100.501C98.9462 100.261 98.3763 99.6912 98.3763 99.6912C98.2863 99.6112 97.8063 98.9712 97.6363 98.8012L97.6263 98.4912L99.1863 96.8912C99.3363 96.7412 99.5863 96.9812 99.6663 97.0612L99.8163 97.2412ZM100.196 102.591C100.116 102.671 100.046 102.911 100.206 103.071C100.206 103.071 100.856 103.571 101.016 103.571C101.246 103.331 100.756 102.851 100.586 102.681C100.516 102.611 100.346 102.441 100.196 102.591Z" fill="#320E10"/>
<path d="M94.1463 102.771C96.1563 105.431 100.836 111.801 100.836 111.801L100.816 111.941L99.0363 113.291L98.8963 113.271C98.4363 113.041 98.1863 112.521 97.8963 112.151C97.8263 112.051 97.7263 112.121 97.6463 112.181L97.5563 112.251C97.5863 112.661 97.8963 113.441 97.9263 113.841C97.9963 113.941 97.8863 114.151 97.8863 114.151L96.2063 115.431C96.2063 115.431 95.9663 115.481 95.8963 115.381C95.0663 114.281 95.7763 112.301 94.9463 111.201C94.8863 111.121 94.7363 110.931 94.6763 110.841C92.6963 109.321 90.8663 107.821 88.6963 106.601C88.6263 106.501 88.6263 106.501 88.6263 106.501C88.5663 106.421 88.6663 106.191 88.6663 106.191L89.9963 105.181C90.7863 104.581 93.2063 107.211 94.0063 107.171L93.8963 106.821L91.6863 103.901L93.6363 102.421C93.8063 102.291 93.9463 102.471 94.0163 102.561C94.0863 102.691 94.1463 102.771 94.1463 102.771Z" fill="#320E10"/>
<path d="M93.5063 117.181L89.8363 119.251C89.7363 119.311 89.3763 119.111 89.3263 119.021C89.2663 118.921 89.0363 118.511 89.0363 118.511C88.7563 118.021 88.5963 117.971 88.6263 117.561L88.6663 117.421L89.9263 116.711L89.9463 116.301L89.4863 115.491C89.2663 115.101 88.3763 116.001 88.1463 115.591L87.2963 114.101C87.0663 113.701 88.2963 113.401 88.0763 113.011L86.5463 110.321L86.2363 110.221L84.8863 110.981C84.3963 111.261 84.0463 110.411 83.9363 110.211C83.8763 110.111 83.6463 109.701 83.5963 109.611C83.5363 109.511 83.5562 109.101 83.6562 109.041L87.6163 106.811L93.5063 117.181Z" fill="#320E10"/>
<path d="M82.1663 112.261C81.6763 112.461 81.2463 112.961 81.4963 113.541C82.0663 114.901 84.9962 115.551 85.9662 117.881C86.6362 119.461 86.1763 121.271 84.5463 121.941C83.4063 122.411 82.3863 121.961 81.8563 120.691C81.8063 120.581 81.7263 120.131 81.8963 119.931C82.0963 119.851 82.7863 120.061 83.0863 119.941C83.6063 119.721 83.8263 119.371 83.6063 118.851C82.7263 116.741 79.8863 116.301 78.9963 114.191C78.2363 112.381 79.0963 110.671 80.7263 110.001C81.2463 109.781 82.6163 109.351 82.9263 110.081L83.7263 111.981C83.7763 112.091 83.6863 112.131 83.5763 112.171C83.2663 112.301 82.6263 112.201 82.1663 112.261Z" fill="#320E10"/>
<path d="M71.7262 121.041C70.7362 121.221 69.9563 120.661 69.7663 119.651C69.5763 118.641 70.0763 117.731 71.0663 117.551C72.0563 117.371 72.9563 118.031 73.1463 119.041C73.3363 120.051 72.7162 120.861 71.7262 121.041Z" fill="#320E10"/>
</svg>
