<svg width="83" height="49" viewBox="0 0 83 49" fill="none" xmlns="http://www.w3.org/2000/svg">
<path d="M24.5763 17.6814C26.9063 18.1914 29.6363 18.2314 32.0363 18.5814C32.6163 18.5114 32.8463 18.0014 32.9963 17.6714C33.8463 15.7814 32.6663 15.1614 31.1663 14.8314C30.1663 14.6114 29.0163 14.7214 28.0163 14.5014C27.5163 14.3914 27.6663 14.0614 27.8963 13.5514C28.4363 12.3514 30.0163 10.8414 31.0563 9.7514C32.0163 8.8414 34.4163 6.36139 34.4863 6.21139C34.6463 6.05139 34.9663 5.75138 35.3663 5.36138L38.0863 2.79138C38.4763 2.40138 38.8063 2.1114 38.9563 1.9414L39.0363 1.76138C39.4163 0.921378 38.4963 0.151378 37.8163 0.0113778C35.8163 -0.428622 24.3863 12.0214 23.0063 15.0814C22.3663 16.4614 23.3963 17.4214 24.5763 17.6814Z" fill="#320E10"/>
<path d="M34.1663 14.7314C32.8663 17.6414 34.2863 19.8014 37.1163 20.4214C39.0663 20.8514 41.0463 20.4715 42.9463 19.6015C42.9263 20.7615 43.5563 21.6614 44.8663 21.9514C48.5263 22.7514 52.4763 19.6914 55.1763 16.9214C55.1763 16.9214 55.3363 16.5615 55.4063 16.4115C55.6363 15.9015 55.6363 15.9015 54.9563 15.7515C53.4563 15.4215 50.1463 19.5514 47.8163 19.0414C47.3163 18.9314 47.0463 18.6715 47.0463 18.3115C47.1263 18.1315 47.2763 17.8015 47.3563 17.6215C47.8163 16.6015 51.4463 12.1814 52.7563 11.7114C53.8163 11.3814 55.6763 12.5514 56.2963 11.1714C56.8263 10.0014 55.1463 9.63144 55.6063 8.61144C55.9163 7.92144 56.4663 7.48144 56.7763 6.79144C57.2363 5.77144 56.1363 4.97144 55.3063 4.79144C54.1263 4.53144 52.3263 7.33146 51.9963 7.63146C50.8863 8.87146 49.1963 7.38146 48.5063 8.91146C48.1163 9.78146 48.9663 10.3315 48.5163 11.3515C47.7163 13.1415 45.8263 14.5914 44.4463 16.2914C42.9163 17.0214 41.1963 17.6014 39.6363 17.2614C38.9863 17.1214 37.7163 16.6414 38.0963 15.8014C38.2463 15.4714 38.2463 15.4715 38.6763 15.3715C41.4863 15.2315 45.7463 14.3115 47.2063 11.0715C47.9763 9.36146 46.5263 8.48146 45.1963 8.19146C41.0063 7.25146 36.0663 10.4914 34.1663 14.7314ZM38.8163 12.9415C39.4263 11.5915 41.5363 10.1715 43.0463 10.5015C43.5463 10.6115 43.9663 10.9015 43.7363 11.4115C43.1263 12.7615 40.2763 14.2214 38.9263 13.9214C38.4263 13.8114 38.5863 13.4515 38.8163 12.9415Z" fill="#320E10"/>
<path d="M57.9762 10.6014C59.9762 11.0414 63.1463 9.68136 64.1363 7.46136C64.6763 6.26136 64.3163 5.45135 63.1463 5.20135C61.9663 4.94135 60.8462 5.43138 60.3062 6.63138C59.9962 7.32138 60.2662 7.94138 59.9762 8.60138C59.5162 9.62138 58.0863 9.14137 57.6263 10.1614C57.4763 10.4914 57.6562 10.5314 57.9762 10.6014Z" fill="#320E10"/>
<path d="M62.1963 15.2613C61.5063 16.7913 61.4763 18.1013 60.8663 19.4613C60.7863 19.6413 60.4063 20.4814 60.3263 20.6614C59.9963 20.9514 59.1963 21.5313 58.6963 21.4213C58.1963 21.3113 58.0163 20.9114 58.3263 20.2214C58.6363 19.5314 59.3663 19.1313 59.7463 18.2913C60.0563 17.6013 60.2563 16.7213 59.4263 16.5413C59.2463 16.5013 59.0963 16.4713 59.0963 16.4713C57.2863 17.2014 55.8663 18.7613 55.1163 20.4513C54.0363 22.8513 55.3463 24.4313 57.5263 24.9013C59.5263 25.3413 61.5563 24.8613 63.0563 22.7513C63.1263 22.6013 63.5163 21.7313 63.6663 21.4013C64.3563 19.8713 64.2163 18.1514 64.9763 16.4414C65.8063 14.5814 67.9563 16.7314 69.0163 14.3514C69.3263 13.6614 69.3063 12.9013 68.6363 12.7513C66.1263 12.1913 63.4063 12.5513 62.1963 15.2613Z" fill="#320E10"/>
<path d="M21.1663 23.1514C23.2263 18.5514 19.9763 15.9914 16.1163 15.1414C15.9663 15.1114 14.9663 14.8914 14.7863 14.8514C12.7263 14.9614 1.13634 28.1314 0.156337 30.3214C-0.693663 32.2114 2.1363 32.8314 3.4963 33.1314C9.8363 34.5214 18.2663 29.6414 21.1663 23.1514ZM17.5063 23.1014C15.7563 27.0114 10.0963 30.2614 6.26632 29.4214C6.08632 29.3814 5.58629 29.2714 5.41629 29.2314C5.33629 29.0414 5.23632 28.8314 5.38632 28.4914L5.46633 28.3114C7.35633 26.1214 12.0863 19.6614 14.7763 18.5714C14.9563 18.6114 15.4563 18.7214 15.6063 18.7514C17.5963 19.2014 18.4963 20.8814 17.5063 23.1014Z" fill="#320E10"/>
<path d="M68.7463 39.1814C68.9763 38.6714 69.0463 38.5214 68.5463 38.4114C66.5463 37.9714 64.3863 42.3514 62.0563 41.8414C61.3763 41.6914 61.1063 41.0714 61.3363 40.5614C61.4863 40.2314 61.5663 40.0513 61.8863 39.7613C62.5163 39.1413 65.1363 36.5514 65.7963 35.9314C66.1763 35.4514 66.3263 35.1214 66.5463 34.6114C67.0863 33.4114 66.4563 32.3514 65.3063 32.1014C63.9563 31.8014 62.4263 32.3914 61.1163 32.8614L60.9363 32.8214C60.6063 32.7514 60.4363 32.7114 60.5163 32.5314C61.6563 29.9814 64.9063 28.4414 65.9663 26.0714C66.3563 25.2014 65.1463 24.2114 64.4963 24.0714C63.6463 23.8814 62.7163 25.1713 62.3063 25.6413C60.8063 27.4513 55.2163 34.1113 51.7563 38.2313C51.6663 38.2413 51.5863 38.2413 51.5063 38.2313L51.1563 38.1514C51.7663 36.8014 52.7263 35.8814 53.3263 34.5314C54.4063 32.1314 53.8163 29.7614 51.3063 29.2114C47.2963 28.3314 42.4663 31.7613 40.7063 35.7013C40.6663 35.7813 40.6363 35.8713 40.5963 35.9513C39.9363 36.3913 39.2563 36.6714 38.5963 36.5314C37.7663 36.3514 37.5963 35.9514 37.9763 35.1014C39.0563 32.7014 42.4663 31.2014 43.5363 28.8314C43.9163 27.9914 42.7163 27.3314 42.0663 27.1914C41.5663 27.0814 41.1363 27.1814 40.5763 27.6214C39.7663 28.2014 36.4963 31.0214 35.6863 31.6014C34.8063 32.3314 31.9363 35.0714 30.5763 34.7714C30.2463 34.7014 30.2263 34.3314 30.3763 34.0014C31.5963 31.2714 35.4463 29.6714 36.7463 26.7814C37.0563 26.0914 36.0563 25.8713 35.5563 25.7613C34.5563 25.5413 33.8963 25.7913 33.0863 26.7313C32.6163 27.2513 30.6963 29.3214 29.2063 30.9014C29.4063 30.5814 29.5863 30.2613 29.7363 29.9213C30.6563 27.8813 30.3763 27.6214 28.9263 26.3814C27.7363 25.3614 28.7663 24.2714 26.9463 23.8714C22.9363 22.9914 18.1763 26.6313 16.4263 30.5413C15.2863 33.0913 15.8663 35.4714 18.7263 36.0914C21.2363 36.6414 24.4363 35.4914 26.8363 33.5314C26.6663 33.7814 26.5163 34.0214 26.4263 34.2414C25.7363 35.7714 25.9063 37.4914 27.5563 37.8514C29.7363 38.3314 32.4463 35.1614 33.5963 35.4114C34.2763 35.5614 33.0663 39.0514 35.5663 39.6014C37.0863 39.9314 38.6763 39.3514 40.1763 38.4114C40.2863 39.3914 40.8163 40.1914 42.0563 40.4614C42.7363 40.6114 43.6163 40.2414 44.2863 40.3913C44.4563 40.4314 44.6163 40.4614 44.5463 40.6114C44.0863 41.6314 41.7763 41.8814 41.3663 41.9914C40.5463 42.1714 36.8463 42.6814 36.0263 42.8714C34.8963 43.3814 34.4163 44.0013 33.8763 45.2013C33.1863 46.7313 33.5063 48.4814 35.1863 48.8514C39.3463 49.7614 42.6763 45.6414 45.8963 43.3414C46.6763 42.7514 47.8563 42.1513 49.1663 41.5113C49.0363 42.2213 49.7663 42.7014 50.3763 42.8414C52.2063 43.2414 58.6363 33.7914 61.8163 34.4914C62.3163 34.6014 62.4163 34.8214 62.1863 35.3314C61.1263 37.7114 58.0263 39.2714 56.9663 41.6514C56.8863 41.8314 56.5763 42.5213 56.5063 42.6713C56.2963 43.9413 57.0663 44.6714 58.0663 44.8913C60.7863 45.4813 67.6063 41.7314 68.7463 39.1814ZM21.2763 32.9114C20.0963 32.6514 19.7963 31.6613 20.2563 30.6413C21.1763 28.6013 24.3963 25.9414 26.5463 26.4114C27.2263 26.5614 27.1663 27.1114 26.9363 27.6214C26.3263 28.9714 25.6163 30.1414 25.0063 31.4914C24.1563 32.6114 22.2763 33.1214 21.2763 32.9114ZM39.1963 45.2414C38.9663 45.7514 38.2363 45.7914 37.8863 45.7114C37.3863 45.6014 37.2363 45.5714 37.4663 45.0614C37.6963 44.5514 38.3463 44.6914 38.8463 44.8014C39.0263 44.8414 39.3463 44.9114 39.1963 45.2414ZM44.5663 37.8114C44.0663 37.7014 43.7863 37.4714 43.8563 36.9314C43.9363 36.7514 44.2463 36.0614 44.3163 35.9114C45.3963 33.5114 48.1063 31.1314 50.6063 31.6814C51.2563 31.8214 51.6863 32.0914 51.3763 32.7814C50.3863 34.9914 46.8963 38.3214 44.5663 37.8114Z" fill="#320E10"/>
<path d="M69.8763 43.3514C68.8763 43.1314 67.9663 43.4914 67.4263 44.6914C66.9663 45.7114 67.0963 46.6614 68.2663 46.9214C69.4463 47.1814 70.3863 46.6614 70.9263 45.4614C71.3963 44.4414 70.8763 43.5714 69.8763 43.3514Z" fill="#320E10"/>
<path d="M81.3063 28.8613C79.4763 28.4613 72.8563 37.1113 72.2463 38.4613C71.8663 39.3013 71.9863 40.6513 72.8363 40.8313C73.4863 40.9713 82.1663 31.8513 82.6263 30.8313C83.0163 29.9613 81.9863 29.0113 81.3063 28.8613Z" fill="#320E10"/>
</svg>
