<svg width="568" height="170" viewBox="0 0 568 170" fill="none" xmlns="http://www.w3.org/2000/svg">
<path d="M544.719 53.6323C545.259 53.8123 545.669 53.9723 546.099 54.0923C549.919 55.2223 553.429 56.9823 556.639 59.3223C560.199 61.9223 561.449 66.1123 560.029 70.2723C557.619 77.3323 552.339 80.9423 545.279 82.0423C540.699 82.7523 536.039 83.0323 531.399 83.3023C528.209 83.4823 526.009 84.8323 524.589 87.6823C521.709 93.4323 518.739 99.1323 515.819 104.862C513.949 108.512 512.089 112.172 510.229 115.832C510.059 116.162 509.919 116.522 509.859 116.882C509.609 118.252 510.129 119.552 511.079 120.042C512.299 120.682 513.709 120.402 514.979 119.332C517.229 117.422 519.389 115.402 521.769 113.672C525.599 110.882 529.809 108.742 534.549 108.122C536.969 107.802 539.549 107.942 541.959 108.392C545.409 109.042 547.359 112.182 547.549 116.272C547.779 121.192 546.149 125.572 543.789 129.742C536.429 142.752 525.619 152.172 512.749 159.422C506.419 162.992 499.679 165.562 492.619 167.212C487.209 168.482 481.689 168.612 476.139 168.242C473.429 168.062 470.759 167.782 468.229 166.782C461.999 164.312 458.669 159.542 457.629 153.102C457.219 150.572 457.309 147.972 457.029 145.422C456.949 144.682 456.579 143.732 456.019 143.352C455.279 142.842 454.419 143.272 453.689 143.942C449.459 147.802 445.249 151.692 440.909 155.422C434.799 160.662 427.449 163.522 419.889 165.902C415.919 167.152 411.889 168.132 407.709 168.262C402.059 168.452 396.659 167.712 392.199 163.772C390.009 161.832 388.379 159.512 387.479 156.712C387.329 156.242 387.169 155.762 386.999 155.302C386.039 152.622 383.599 151.962 381.349 153.692C378.019 156.232 374.729 158.862 371.249 161.192C365.679 164.932 359.589 167.562 352.899 168.542C345.899 169.572 339.109 168.702 332.739 165.592C326.579 162.592 323.299 157.332 321.799 150.802C320.369 144.572 321.379 138.522 323.099 132.512C325.589 123.812 329.469 115.792 334.589 108.342C335.099 107.602 335.519 106.772 335.839 105.922C336.389 104.462 336.029 103.122 334.959 102.182C333.899 101.262 332.429 100.992 331.149 101.842C330.079 102.562 328.999 103.482 328.339 104.572C325.349 109.502 322.429 114.482 319.619 119.512C313.919 129.692 308.559 140.062 301.879 149.642C297.289 156.222 291.869 161.982 284.839 166.002C280.569 168.442 275.919 169.292 271.009 168.622C265.689 167.902 261.989 164.462 260.709 158.842C260.279 156.962 260.139 155.002 259.949 153.082C259.849 152.082 259.529 151.332 258.559 150.922C257.559 150.502 256.799 150.912 256.069 151.542C251.729 155.242 247.239 158.732 242.329 161.642C236.419 165.152 230.139 167.672 223.279 168.572C216.679 169.442 210.509 168.592 205.249 164.062C202.439 161.642 200.489 158.652 199.279 155.172C198.429 152.722 197.279 152.362 195.209 153.852C185.019 161.162 173.709 165.782 161.359 167.922C154.649 169.082 147.909 169.552 141.129 168.872C132.009 167.962 123.239 165.862 115.879 160.002C108.619 154.212 104.469 146.602 103.429 137.382C103.109 134.552 103.199 131.662 103.209 128.802C103.209 127.642 102.849 126.842 101.789 126.462C100.769 126.102 100.069 126.682 99.4694 127.452C94.8994 133.332 90.1194 139.022 84.6794 144.142C74.4394 153.762 62.9694 161.402 49.5094 165.762C41.2794 168.432 32.7894 169.572 24.1794 168.582C13.1094 167.312 5.78937 161.072 2.14937 150.612C-0.0106256 144.402 -0.300624 137.922 0.229376 131.422C1.26938 118.672 5.43938 106.812 10.8594 95.3523C20.2794 75.4323 31.3594 56.5123 44.8994 39.0823C52.8494 28.8523 61.4194 19.1923 71.6894 11.1723C77.1894 6.87232 83.0194 3.17227 89.8494 1.31227C95.1294 -0.127727 100.339 -0.157688 105.489 1.85231C110.199 3.68231 111.969 7.1023 110.909 12.0323C109.739 17.4823 106.969 22.1023 103.729 26.5223C99.2894 32.5823 94.9094 38.6923 90.5294 44.8023C90.0294 45.5023 89.5794 46.2823 89.3094 47.0923C88.5894 49.2123 89.8094 50.9323 92.0294 50.8323C93.8494 50.7523 95.6494 50.4523 97.4594 50.2023C101.829 49.6023 106.209 49.3223 110.319 51.2223C116.319 53.9923 119.429 59.1023 120.669 65.3223C121.309 68.5123 121.249 71.8423 121.499 75.1123C121.569 76.1023 121.569 77.1023 121.679 78.0923C121.819 79.4123 122.879 79.9423 124.009 79.2223C124.659 78.8123 125.259 78.2723 125.779 77.6923C133.019 69.5123 141.089 62.3323 150.779 57.1323C160.949 51.6823 171.779 49.1923 183.299 49.8823C190.359 50.3023 196.989 52.0323 202.509 56.8023C208.179 61.7023 211.079 67.9323 211.869 75.3123C213.929 94.6223 198.409 115.092 178.839 119.372C171.239 121.032 163.589 121.182 156.029 119.002C153.849 118.372 151.749 117.442 149.579 116.752C147.869 116.212 146.389 116.852 145.649 118.262C144.909 119.662 145.249 121.212 146.549 122.412C148.899 124.592 151.759 125.882 154.789 126.622C165.159 129.142 175.419 129.082 185.449 124.932C197.819 119.812 207.479 111.572 214.249 100.032C218.259 93.1923 222.079 86.2523 225.969 79.3423C229.029 73.9023 232.279 68.5923 236.439 63.9023C242.139 57.4823 248.959 52.7623 257.319 50.5023C261.709 49.3123 266.119 49.4623 270.429 51.0223C275.049 52.6923 277.549 56.3623 277.749 61.2723C278.049 68.5323 276.069 75.2623 273.439 81.9223C269.369 92.2623 263.679 101.702 257.779 111.032C256.399 113.202 254.999 115.362 253.699 117.582C252.669 119.352 253.099 121.132 254.639 122.032C256.219 122.952 258.109 122.492 259.219 120.902C265.949 111.202 272.019 101.102 277.659 90.7423C287.079 73.4323 297.299 56.6223 309.199 40.8923C315.139 33.0423 321.399 25.4323 327.839 17.9823C333.589 11.3223 340.449 5.85229 348.609 2.39229C355.269 -0.43771 362.239 -0.897705 369.129 1.77229C372.759 3.18229 375.399 5.74227 375.399 9.93227C375.399 12.1423 374.949 14.3923 374.389 16.5423C373.169 21.2123 370.789 25.3523 368.229 29.4023C361.549 39.9423 353.889 49.7723 346.219 59.6023C342.009 65.0023 337.839 70.4423 333.649 75.8723C333.549 76.0023 333.449 76.1323 333.349 76.2723C331.909 78.3423 331.959 80.3723 333.489 81.5023C335.549 83.0123 337.959 82.6423 339.519 80.5923C341.649 77.7823 343.779 74.9623 345.949 72.1723C351.809 64.6323 358.569 58.1723 367.409 54.1723C374.879 50.7923 382.589 48.8023 390.909 49.0523C401.049 49.3523 406.269 55.5523 407.609 61.9923C408.909 68.2423 407.749 74.1823 403.989 79.4123C398.889 86.5223 391.839 90.7523 383.359 92.5423C379.879 93.2723 376.289 93.4723 372.769 94.0223C368.689 94.6623 366.549 96.5623 366.259 100.662C365.729 108.092 368.019 114.632 373.799 119.572C376.299 121.712 379.379 122.462 382.679 121.672C385.049 121.102 386.619 119.422 388.049 117.632C392.579 111.972 396.079 105.652 399.629 99.3623C405.339 89.2523 410.389 78.7723 417.079 69.2323C420.459 64.4123 424.099 59.7823 428.759 56.1823C434.689 51.6023 441.259 48.4023 449.039 48.8823C451.389 49.0323 453.759 49.3623 456.029 49.9723C460.909 51.2823 463.819 55.4423 463.949 60.5023C464.059 64.7323 462.589 68.5523 461.279 72.4323C458.409 80.9123 453.749 88.4823 449.179 96.0923C445.469 102.272 441.679 108.412 437.979 114.602C437.459 115.462 437.109 116.502 436.969 117.502C436.689 119.462 437.289 120.552 439.219 120.892C441.439 121.282 443.769 121.502 445.989 121.242C453.869 120.302 459.659 115.842 464.389 109.762C470.089 102.442 474.219 94.3023 477.059 85.4823C477.949 82.7123 476.979 80.6923 474.289 79.5423C473.489 79.2023 472.659 78.9223 471.869 78.5523C467.819 76.6923 466.259 72.5323 468.039 68.4523C469.239 65.7123 471.379 63.8323 473.759 62.1723C477.559 59.5223 481.839 58.1423 486.389 57.5823C488.939 57.2723 491.519 57.1723 494.089 57.0623C495.699 56.9923 496.839 56.3523 497.859 55.0523C505.959 44.6523 514.889 35.0423 525.469 27.0923C530.019 23.6723 534.969 21.0123 540.599 19.7823C544.309 18.9723 547.879 19.4023 551.279 21.0223C555.539 23.0523 556.949 26.7923 555.639 32.0823C554.299 37.5223 551.449 42.2523 548.689 47.0323C547.419 49.2223 546.089 51.3623 544.719 53.6323ZM77.7594 84.5923C78.0094 83.1323 77.5194 81.8123 75.5294 80.9623C73.9794 80.3023 72.2894 80.5823 71.1694 81.7723C70.5994 82.3723 70.1094 83.0523 69.6394 83.7323C64.7094 90.8023 60.4294 98.2623 56.9194 106.132C54.9794 110.482 53.2094 114.922 51.5994 119.402C50.6294 122.112 52.9494 124.592 55.8194 124.242C57.9694 123.982 59.0394 122.552 59.7094 120.682C62.1494 113.862 65.0294 107.192 68.4194 100.792C70.1194 97.5923 71.9394 94.4623 73.8994 91.4123C74.9594 89.7323 77.3494 86.9823 77.7594 84.5923ZM157.229 102.242C157.229 102.412 157.239 102.572 157.259 102.742C157.429 104.152 158.219 105.522 159.589 106.032C161.209 106.642 162.699 106.282 163.779 104.802C164.499 103.812 165.029 102.662 165.599 101.562C168.089 96.7423 170.429 91.8323 173.079 87.1023C174.879 83.8823 177.179 80.9523 179.109 77.8023C180.649 75.2823 178.949 72.5623 175.949 72.4923C174.069 72.4423 172.969 73.6123 171.959 74.9023C167.139 81.0323 162.939 87.5523 159.799 94.7023C158.929 96.6923 157.229 99.8923 157.229 102.242Z" fill="#320E10"/>
<path d="M464.409 10.5423C469.519 10.4223 474.229 11.5823 478.229 14.9123C484.359 20.0123 484.909 28.6823 479.499 34.6023C476.029 38.4023 471.589 40.3023 466.589 40.9223C464.049 41.2423 461.459 41.5322 458.929 41.3722C456.479 41.2122 453.979 40.7122 451.639 39.9322C442.129 36.7322 439.189 25.6022 445.729 17.9922C449.319 13.8122 453.929 11.6122 459.319 10.9322C461.009 10.7222 462.709 10.6723 464.409 10.5423Z" fill="#320E10"/>
<path d="M278.429 10.6822C282.759 10.3822 286.899 11.4723 290.629 14.0423C297.899 19.0423 298.859 28.5623 292.759 34.9223C290.859 36.9023 288.659 38.4723 286.079 39.3923C280.009 41.5623 273.779 42.1622 267.459 40.6922C262.139 39.4522 258.049 36.5722 256.469 31.1322C254.699 25.0522 256.609 19.6123 262.069 15.3023C266.099 12.1223 270.779 10.9722 275.759 10.6922C276.579 10.6422 277.409 10.6822 278.429 10.6822Z" fill="#320E10"/>
<path d="M567.149 17.7422C567.149 19.6922 565.669 20.9922 563.869 20.9922C562.069 20.9922 560.589 19.6922 560.589 17.7422C560.589 15.7922 562.069 14.4922 563.869 14.4922C565.679 14.4922 567.149 15.7922 567.149 17.7422ZM565.549 19.4522C565.999 19.0022 566.219 18.4322 566.219 17.7422C566.219 17.0422 565.999 16.4722 565.549 16.0322C565.119 15.5822 564.559 15.3622 563.869 15.3622C563.189 15.3622 562.629 15.5822 562.179 16.0322C561.749 16.4822 561.519 17.0522 561.519 17.7422C561.519 18.4422 561.739 19.0122 562.179 19.4522C562.629 19.9022 563.189 20.1222 563.869 20.1222C564.559 20.1222 565.119 19.9022 565.549 19.4522ZM564.509 19.2922L564.409 18.6122C564.349 18.2122 564.209 18.0822 563.819 18.0822H563.399V19.3022H562.569V15.9722H564.299C564.979 15.9722 565.379 16.3422 565.379 16.9022C565.379 17.3322 565.089 17.6622 564.649 17.7722C565.109 17.8822 565.229 18.1722 565.299 18.5822L565.439 19.3022H564.509V19.2922ZM563.389 16.6822V17.5722H564.069C564.399 17.5722 564.579 17.4022 564.579 17.1122C564.579 16.8222 564.409 16.6822 564.049 16.6822H563.389Z" fill="#320E10"/>
</svg>
