<svg width="144" height="114" viewBox="0 0 144 114" fill="none" xmlns="http://www.w3.org/2000/svg">
<path d="M116.335 112.893L9.54463 84.073C6.18463 83.163 3.39465 81.003 1.68465 77.983C-0.025353 74.963 -0.455355 71.453 0.494645 68.113L4.78462 52.923C2.71462 49.123 2.17464 44.603 3.30464 40.413L4.65462 35.423L4.79463 34.893C6.11463 29.973 10.2247 26.273 15.2547 25.473L24.5446 23.963C26.6946 23.613 29.1747 23.253 31.5647 22.903C33.9047 22.563 36.3247 22.203 38.3847 21.873C40.5747 21.523 42.4946 21.173 44.3546 20.833C46.2946 20.483 48.2846 20.123 50.6046 19.743L75.1146 15.773C76.4046 15.563 77.5947 14.903 78.4447 13.923C82.3847 9.38298 90.7446 1.55298 102.465 0.112982C108.595 -0.637018 114.565 2.39298 117.675 7.83298L141.995 50.433C143.995 53.933 144.515 58.003 143.465 61.903L132.155 103.803C130.295 110.673 123.205 114.753 116.335 112.893Z" fill="#FFFDFD"/>
<path d="M97.2646 47.4928C97.5346 47.9328 97.9546 48.2328 98.4246 48.3528C98.9246 48.4928 99.4846 48.4228 99.9646 48.1328C100.885 47.5628 101.175 46.3628 100.605 45.4428L88.9046 26.4428C88.3346 25.5228 87.1346 25.2328 86.2146 25.8028C85.2946 26.3728 85.0046 27.5728 85.5746 28.4928L97.2646 47.4928Z" fill="#E8511B"/>
<path d="M138.105 52.6629L113.785 10.0629C111.575 6.19292 107.345 4.03292 103.005 4.56292C92.7746 5.81292 85.3346 12.8029 81.8146 16.8629C80.2746 18.6329 78.1447 19.8129 75.8247 20.1929L51.3146 24.1629C49.0446 24.5329 47.0746 24.8829 45.1746 25.2329C43.2846 25.5729 41.3346 25.9229 39.1046 26.2929C37.0346 26.6329 34.5846 26.9929 32.2246 27.3329C29.8446 27.6829 27.3746 28.0429 25.2746 28.3829L15.9646 29.8929C12.6746 30.4129 9.98463 32.8329 9.11463 36.0629L8.9646 36.6029L7.61463 41.5929C6.73463 44.8529 7.23462 48.3829 8.98462 51.2829C9.17462 51.6029 9.40461 51.8829 9.65461 52.1329L4.78461 69.3429C4.16461 71.5329 4.44464 73.8229 5.56464 75.7929C6.68464 77.7729 8.50466 79.1829 10.7047 79.7729L117.495 108.593C121.985 109.803 126.615 107.133 127.835 102.653L139.145 60.7529C139.875 58.0029 139.515 55.1329 138.105 52.6629ZM12.7746 49.4629C12.5846 49.4929 12.4347 49.4229 12.3347 49.2529C11.1347 47.2729 10.7947 44.8429 11.3947 42.6029L12.7446 37.6129L12.8947 37.0729C13.3647 35.3429 14.8047 34.0329 16.5847 33.7529L25.8947 32.2429C27.9747 31.9029 30.4246 31.5429 32.7946 31.1929C35.1746 30.8429 37.6346 30.4829 39.7346 30.1429C42.0046 29.7729 43.9746 29.4229 45.8746 29.0729C47.7646 28.7329 49.7146 28.3829 51.9446 28.0129L76.4547 24.0429C79.6847 23.5229 82.6346 21.8729 84.7746 19.4129C87.9246 15.7829 94.5546 9.52292 103.485 8.43292C106.255 8.09292 108.975 9.49291 110.395 11.9829L131.735 49.3729C123.455 49.1429 115.535 53.0229 111.205 55.6029C109.705 56.5029 107.865 56.7529 106.145 56.2929L71.8347 47.2329L60.6746 44.2229C52.7146 42.0729 44.5446 41.5629 36.3846 42.6829L35.8546 42.7629C32.4146 43.4329 29.6046 46.0529 28.6846 49.4329L25.0246 63.0029C24.4846 65.0029 22.5447 64.6029 22.3247 64.5529C21.8547 64.4429 20.3546 63.9329 20.7246 62.1129C20.7546 61.9729 20.7847 61.8429 20.8247 61.7029L23.4547 51.9629C24.2047 49.1929 23.7146 46.2229 22.1246 43.8429C21.1446 42.3729 19.4447 41.6429 17.7047 41.9429C15.9647 42.2429 14.6046 43.4829 14.1646 45.2029L13.1546 49.1229C13.0846 49.3229 12.9646 49.4329 12.7746 49.4629ZM124.055 101.633C123.405 104.043 120.925 105.473 118.515 104.823L11.7246 76.0029C10.5446 75.6829 9.57461 74.9329 8.97461 73.8729C8.37461 72.8129 8.22463 71.5829 8.55463 70.4129L13.3846 53.3329C15.1046 53.0629 16.4946 51.8029 16.9246 50.1229L17.9346 46.2029C18.0046 45.9329 18.1946 45.8529 18.3446 45.8229C18.4946 45.7929 18.7046 45.8129 18.8546 46.0429C19.8246 47.4929 20.1146 49.2929 19.6646 50.9729L17.0346 60.7129C16.9746 60.9329 16.9246 61.1429 16.8846 61.3629C16.1246 65.0929 18.5946 67.7229 21.4146 68.3829C24.3146 69.0729 27.7746 67.8029 28.7846 64.0429L32.4446 50.4729C32.9646 48.5329 34.5646 47.0329 36.5346 46.6329L36.8947 46.5829C44.5347 45.5229 52.1846 46.0129 59.6346 48.0229L71.9547 51.3429V51.3329L105.125 60.0829C107.845 60.8129 110.785 60.4129 113.195 58.9729C117.575 56.3629 125.995 52.2729 134.075 53.5129L134.695 54.6029C135.585 56.1729 135.825 57.9929 135.355 59.7329L124.055 101.633Z" fill="#E8511B"/>
</svg>
