<svg width="141" height="92" viewBox="0 0 141 92" fill="none" xmlns="http://www.w3.org/2000/svg">
<path d="M120.023 4.82019C118.813 4.81019 117.653 5.40021 116.933 6.40021C111.823 13.4502 106.423 14.7602 102.783 14.6302C98.4535 14.4702 94.2234 12.0702 92.0235 8.52021C91.4035 7.52021 90.3934 6.86022 89.2534 6.69022C88.1334 6.53022 87.0035 6.88021 86.1635 7.65021C85.0135 8.70021 83.7034 9.51019 82.2634 10.0702C79.2334 11.2402 75.8435 11.1402 72.7135 9.8002C70.8235 8.9902 68.6235 9.57021 67.3535 11.2102C66.3035 12.5702 65.3435 14.0202 64.4735 15.5302C57.3735 10.5102 48.8235 8.09022 40.1235 8.72022C30.6035 9.41022 21.7435 13.6902 15.1735 20.7702C0.703475 36.3702 1.33345 61.1102 16.5834 75.9102C31.8334 90.7102 56.0035 90.0702 70.4735 74.4702C72.4635 72.3302 74.1935 69.9602 75.6635 67.4202C90.8935 78.1502 112.104 76.0302 124.974 62.1502C125.014 62.1102 125.044 62.0702 125.084 62.0302C125.744 61.2802 141.213 43.5102 134.063 22.4302C132.383 17.4802 129.443 12.8102 125.553 8.90021L122.943 6.28022C122.243 5.36022 121.183 4.83019 120.023 4.82019ZM19.2835 73.0102C5.59346 59.7202 5.03345 37.5202 18.0235 23.5102C23.9235 17.1502 31.8735 13.3102 40.4135 12.6902C48.9035 12.0802 57.2435 14.6902 63.9135 20.0302C64.7935 20.7302 65.6234 21.4702 66.3934 22.2102C73.5534 29.1602 77.2434 38.8502 77.0034 48.5702C76.9834 48.7702 76.9735 48.9702 76.9735 49.1702C76.7735 54.0902 75.5735 59.0002 73.2935 63.5502C71.7935 66.5402 69.9034 69.2802 67.6434 71.7102C54.6734 85.7202 32.9735 86.3002 19.2835 73.0102ZM81.0134 49.6902C80.9434 49.5402 80.8934 49.3902 80.8834 49.2302C80.8834 49.1402 80.8834 49.0502 80.8934 48.9502C80.9035 48.8702 80.9135 48.8002 80.9435 48.7302L82.3634 44.2402C82.4234 44.0602 82.5135 43.9002 82.6434 43.7602C82.7434 43.6602 82.8534 43.5702 82.9834 43.5002C83.2734 43.3502 83.6135 43.3202 83.9235 43.4202L88.3135 44.8702C88.9635 45.0802 89.3135 45.8002 89.1035 46.4602L87.6835 50.9502C87.5835 51.2702 87.3635 51.5302 87.0735 51.6802C86.7835 51.8302 86.4434 51.8602 86.1334 51.7602L81.7434 50.3002C81.4234 50.2102 81.1634 49.9902 81.0134 49.6902ZM122.834 11.7402C126.294 15.2202 128.903 19.3602 130.393 23.7302C136.773 42.5402 122.353 59.1702 122.233 59.3102C122.203 59.3402 122.173 59.3802 122.133 59.4102C110.483 71.9702 91.1934 73.7902 77.4934 63.8402C78.9034 60.6802 79.8635 57.3902 80.4035 54.0502C80.4435 54.0702 80.4835 54.0802 80.5335 54.1002L84.9135 55.5602C86.2135 55.9902 87.6135 55.8802 88.8335 55.2402C89.3635 54.9602 89.8334 54.6002 90.2334 54.1802C90.7534 53.6202 91.1535 52.9402 91.3934 52.1802L92.8135 47.6902C93.6835 44.9302 92.2034 41.9602 89.5134 41.0702L85.1234 39.6202C83.8234 39.1902 82.4235 39.3002 81.2035 39.9402C80.8635 40.1202 80.5635 40.3302 80.2735 40.5702C78.8435 32.6202 75.0435 25.1202 69.0735 19.3202C68.6035 18.8602 68.1035 18.4102 67.5935 17.9602C68.4335 16.4502 69.3835 15.0102 70.4135 13.6702C70.6035 13.4302 70.9135 13.3502 71.1935 13.4702C75.2435 15.2102 79.6634 15.3202 83.6234 13.7902C85.5134 13.0602 87.2335 11.9902 88.7135 10.6502C91.5835 15.2802 97.0434 18.4002 102.623 18.6102C109.053 18.8502 115.214 15.4002 119.974 8.87021L122.834 11.7402Z" fill="#EEF4E7"/>
<path d="M128.423 65.4802C115.153 79.7802 93.8435 83.0602 77.0935 73.9602C76.1035 75.3102 75.0435 76.5902 73.9235 77.8102C57.6535 95.3502 30.4734 96.0702 13.3334 79.4302C-3.80656 62.7802 -4.51652 34.9702 11.7535 17.4402C19.1435 9.47023 29.1035 4.66021 39.8035 3.89021C47.8835 3.31021 55.9835 5.1002 63.0635 8.9802C63.2535 8.7202 63.4434 8.47023 63.6334 8.22023C66.2134 4.87023 70.7035 3.70023 74.5435 5.35023C76.5535 6.21023 78.6935 6.28021 80.5835 5.55021C81.4735 5.21021 82.2834 4.70022 82.9934 4.06022C84.8734 2.34022 87.3934 1.56021 89.8934 1.92021C92.4134 2.28021 94.6434 3.75021 96.0134 5.95021C97.3834 8.16021 100.163 9.71022 102.943 9.81022C106.523 9.94022 110.033 7.7802 113.113 3.5402C114.743 1.3002 117.323 -0.0197759 120.043 0.000224059C122.513 0.0202241 124.823 1.11022 126.433 3.00022L128.883 5.46022C133.283 9.88022 136.633 15.2102 138.543 20.8602C146.613 44.6302 129.334 64.4802 128.594 65.3102L128.423 65.4802Z" fill="#FFFDFD"/>
<path d="M120.243 4.79016C119.033 4.78016 117.873 5.37018 117.153 6.37018C112.043 13.4202 106.643 14.7302 103.003 14.6002C98.6734 14.4402 94.4434 12.0402 92.2434 8.49018C91.6234 7.49018 90.6135 6.83019 89.4735 6.66019C88.3535 6.50019 87.2234 6.85018 86.3834 7.62018C85.2334 8.67018 83.9234 9.48016 82.4834 10.0402C79.4534 11.2102 76.0635 11.1102 72.9335 9.77017C71.0435 8.96018 68.8435 9.54018 67.5735 11.1802C66.5235 12.5402 65.5635 13.9902 64.6935 15.5002C57.5935 10.4802 49.0434 8.06019 40.3434 8.69019C30.8234 9.38019 21.9634 13.6602 15.3934 20.7402C0.923416 36.3402 1.55345 61.0802 16.8035 75.8802C32.0535 90.6802 56.2235 90.0402 70.6935 74.4402C72.6835 72.3002 74.4134 69.9302 75.8834 67.3902C91.1134 78.1202 112.323 76.0002 125.193 62.1202C125.233 62.0802 125.263 62.0402 125.303 62.0002C125.963 61.2502 141.433 43.4802 134.283 22.4002C132.603 17.4502 129.663 12.7802 125.773 8.87018L123.163 6.25019C122.453 5.32019 121.403 4.79016 120.243 4.79016ZM19.5035 72.9802C5.81346 59.6902 5.25345 37.4902 18.2435 23.4802C24.1435 17.1202 32.0935 13.2802 40.6335 12.6602C49.1235 12.0502 57.4634 14.6602 64.1334 20.0002C65.0134 20.7002 65.8434 21.4402 66.6134 22.1802C73.7734 29.1302 77.4635 38.8202 77.2235 48.5402C77.2035 48.7402 77.1935 48.9402 77.2035 49.1402C77.0035 54.0602 75.8034 58.9702 73.5234 63.5202C72.0234 66.5102 70.1334 69.2502 67.8734 71.6802C54.8834 85.6902 33.1835 86.2702 19.5035 72.9802ZM81.2334 49.6502C81.1634 49.5002 81.1135 49.3502 81.1035 49.1902C81.1035 49.1002 81.1034 49.0102 81.1134 48.9102C81.1234 48.8302 81.1334 48.7602 81.1634 48.6902L82.5835 44.2002C82.6435 44.0202 82.7334 43.8602 82.8634 43.7202C82.9634 43.6202 83.0735 43.5302 83.2035 43.4602C83.4935 43.3102 83.8334 43.2802 84.1434 43.3802L88.5334 44.8302C89.1834 45.0402 89.5335 45.7602 89.3235 46.4202L87.9034 50.9102C87.8034 51.2302 87.5834 51.4902 87.2934 51.6402C87.0034 51.7902 86.6635 51.8202 86.3535 51.7202L81.9635 50.2602C81.6335 50.1802 81.3834 49.9502 81.2334 49.6502ZM123.053 11.7102C126.513 15.1902 129.123 19.3302 130.613 23.7002C136.993 42.5102 122.573 59.1402 122.453 59.2802C122.423 59.3102 122.394 59.3502 122.354 59.3802C110.703 71.9402 91.4135 73.7602 77.7135 63.8102C79.1235 60.6502 80.0834 57.3602 80.6234 54.0202C80.6634 54.0402 80.7034 54.0502 80.7434 54.0702L85.1234 55.5302C86.4234 55.9602 87.8234 55.8502 89.0434 55.2102C89.5734 54.9302 90.0435 54.5702 90.4435 54.1502C90.9635 53.5902 91.3635 52.9102 91.6035 52.1502L93.0234 47.6602C93.8934 44.9002 92.4135 41.9302 89.7235 41.0402L85.3335 39.5902C84.0335 39.1602 82.6334 39.2702 81.4134 39.9102C81.0734 40.0902 80.7734 40.3002 80.4834 40.5402C79.0534 32.6002 75.2534 25.0902 69.2834 19.2902C68.8134 18.8302 68.3134 18.3802 67.8035 17.9302C68.6435 16.4202 69.5934 14.9802 70.6234 13.6402C70.8134 13.4002 71.1234 13.3202 71.4034 13.4402C75.4534 15.1802 79.8735 15.2902 83.8335 13.7602C85.7235 13.0302 87.4434 11.9602 88.9234 10.6202C91.7934 15.2502 97.2535 18.3702 102.833 18.5802C109.263 18.8202 115.423 15.3702 120.183 8.84018L123.053 11.7102Z" fill="#E8511B"/>
<path d="M23.2535 43.01L19.9134 45.0901C17.4934 46.6001 16.7334 49.8401 18.2034 52.3101L20.2434 55.73C21.7134 58.2 24.8834 58.99 27.3034 57.48L30.6434 55.4001C31.0434 55.1501 31.3935 54.8601 31.6935 54.5301C33.2535 52.8501 33.5834 50.2501 32.3534 48.1801L30.3135 44.77C28.8435 42.29 25.6735 41.5 23.2535 43.01ZM26.9834 46.8401L29.0234 50.2501C29.3734 50.8401 29.1934 51.62 28.6134 51.98L25.2734 54.0601C24.6934 54.4201 23.9334 54.23 23.5834 53.64L21.5534 50.2201C21.2534 49.7201 21.3334 49.1001 21.7134 48.6901C21.7834 48.6101 21.8734 48.54 21.9634 48.48L25.3034 46.4001C25.8634 46.0601 26.6234 46.2401 26.9834 46.8401Z" fill="#E8511B"/>
<path d="M36.4435 31.2701L38.1135 30.2301C38.5035 29.9801 38.8635 29.6901 39.1735 29.3601C39.7835 28.7001 40.2135 27.8901 40.4335 26.9901C40.7535 25.6301 40.5435 24.2201 39.8235 23.0201L38.8035 21.3101C38.0935 20.1101 36.9635 19.2701 35.6335 18.9401C34.3035 18.6101 32.9235 18.8301 31.7535 19.5601L30.0834 20.6001C28.9134 21.3301 28.0934 22.4801 27.7634 23.8501C27.4434 25.2101 27.6535 26.6201 28.3735 27.8201L29.3934 29.5301C30.8534 31.9901 34.0235 32.7801 36.4435 31.2701ZM32.7134 27.4401L31.6935 25.7301C31.3935 25.2301 31.4735 24.6101 31.8535 24.2001C31.9235 24.1201 32.0135 24.0501 32.1035 23.9901L33.7734 22.9501C34.0534 22.7701 34.3834 22.7201 34.7034 22.8001C35.0234 22.8801 35.2934 23.0801 35.4634 23.3701L36.4835 25.0801C36.8335 25.6701 36.6535 26.4501 36.0735 26.8101L34.4034 27.8501C33.8234 28.2201 33.0634 28.0401 32.7134 27.4401Z" fill="#E8511B"/>
<path d="M71.5835 57.7202C73.1435 56.0402 73.4734 53.4401 72.2434 51.3701L69.8435 47.3402C69.1335 46.1402 68.0035 45.3002 66.6735 44.9702C65.3435 44.6402 63.9635 44.8602 62.7935 45.5902L58.8535 48.0501C56.4335 49.5601 55.6735 52.8001 57.1435 55.2701L59.5435 59.3001C60.2535 60.5001 61.3835 61.3401 62.7135 61.6701C64.0435 62.0001 65.4235 61.7801 66.5935 61.0501L70.5335 58.5902C70.9335 58.3402 71.2835 58.0502 71.5835 57.7202ZM63.6334 57.7901C63.3134 57.7101 63.0434 57.5102 62.8734 57.2202L60.4735 53.1902C60.1235 52.6002 60.3034 51.8201 60.8834 51.4601L64.8235 49.0002C65.1035 48.8202 65.4334 48.7702 65.7534 48.8502C66.0734 48.9302 66.3434 49.1301 66.5134 49.4201L68.9135 53.4501C69.2635 54.0401 69.0834 54.8201 68.5034 55.1801L64.5635 57.6401C64.2835 57.8101 63.9534 57.8701 63.6334 57.7901Z" fill="#E8511B"/>
<path d="M40.5934 66.1301L37.7234 67.9201C36.9734 68.3901 36.4435 69.1301 36.2435 70.0001C36.0335 70.8701 36.1735 71.7701 36.6335 72.5401L38.3835 75.4801C38.8435 76.2501 39.5634 76.7801 40.4134 77.0001C41.2634 77.2101 42.1434 77.0701 42.8934 76.6001L45.7634 74.8101C46.0134 74.6501 46.2435 74.4601 46.4335 74.2601C47.4335 73.1901 47.6434 71.5201 46.8534 70.2001L45.1034 67.2601C44.6434 66.4901 43.9235 65.9601 43.0735 65.7401C42.2335 65.5201 41.3434 65.6601 40.5934 66.1301ZM43.2134 71.7301L41.3934 72.8601L40.2834 71.0001L42.1034 69.8701L43.2134 71.7301Z" fill="#E8511B"/>
<path d="M51.1935 48.1802C51.5835 47.7602 51.8634 47.2402 51.9934 46.6602C52.2034 45.7902 52.0635 44.8802 51.6035 44.1202L49.8534 41.1802C49.3934 40.4102 48.6735 39.8802 47.8235 39.6602C46.9735 39.4502 46.0934 39.5902 45.3434 40.0602L42.4734 41.8502C41.7234 42.3202 41.1935 43.0602 40.9935 43.9302C40.7835 44.8002 40.9235 45.7102 41.3835 46.4702L43.1335 49.4102C43.5935 50.1802 44.3134 50.7102 45.1634 50.9302C46.0134 51.1402 46.8934 51.0002 47.6434 50.5302L50.5134 48.7402C50.7734 48.5902 51.0035 48.4002 51.1935 48.1802ZM45.0334 44.9402L46.8534 43.8102L47.9634 45.6702L46.1434 46.8002L45.0334 44.9402Z" fill="#E8511B"/>
<path d="M120.084 25.6703C118.784 25.2403 117.384 25.3503 116.164 25.9903C114.944 26.6303 114.033 27.7103 113.613 29.0503L112.404 32.8603C111.534 35.6203 113.014 38.5803 115.704 39.4803L119.424 40.7103C120.724 41.1403 122.124 41.0303 123.344 40.3903C123.874 40.1103 124.343 39.7503 124.743 39.3303C125.263 38.7703 125.664 38.0903 125.904 37.3403L127.113 33.5303C127.983 30.7703 126.504 27.8103 123.814 26.9103L120.084 25.6703ZM123.393 32.2903L122.184 36.1003C122.084 36.4203 121.864 36.6803 121.574 36.8303C121.284 36.9803 120.943 37.0103 120.633 36.9103L116.914 35.6803C116.264 35.4703 115.913 34.7503 116.123 34.0903L117.334 30.2803C117.394 30.1003 117.483 29.9403 117.613 29.8003C117.713 29.7003 117.824 29.6103 117.954 29.5403C118.244 29.3903 118.583 29.3603 118.893 29.4603L122.613 30.6903C123.243 30.9203 123.603 31.6303 123.393 32.2903Z" fill="#E8511B"/>
<path d="M93.7434 22.7802C92.9134 22.5002 92.0233 22.5702 91.2333 22.9802C90.4533 23.3902 89.8735 24.0802 89.6035 24.9402L88.5634 28.2102C88.0034 29.9702 88.9534 31.8702 90.6734 32.4402L93.8734 33.5002C94.7034 33.7802 95.5934 33.7002 96.3834 33.3002C96.7234 33.1202 97.0234 32.8902 97.2734 32.6202C97.6034 32.2602 97.8634 31.8302 98.0134 31.3402L99.0534 28.0702C99.3234 27.2202 99.2535 26.3102 98.8535 25.5102C98.4535 24.7102 97.7734 24.1202 96.9434 23.8402L93.7434 22.7802ZM94.4934 29.5202L92.4735 28.8502L93.1334 26.7802L95.1534 27.4502L94.4934 29.5202Z" fill="#E8511B"/>
<path d="M106.733 45.7202C105.903 45.4402 105.013 45.5202 104.223 45.9202C103.433 46.3202 102.863 47.0202 102.593 47.8802L101.553 51.1502C101.283 52.0002 101.353 52.9102 101.753 53.7102C102.153 54.5102 102.833 55.1002 103.663 55.3802L106.863 56.4402C107.693 56.7202 108.583 56.6502 109.373 56.2402C109.713 56.0602 110.013 55.8302 110.263 55.5602C110.593 55.2002 110.853 54.7702 111.003 54.2802L112.043 51.0102C112.603 49.2502 111.653 47.3502 109.933 46.7802L106.733 45.7202ZM107.493 52.4602L105.473 51.7902L106.133 49.7202L108.153 50.3902L107.493 52.4602Z" fill="#E8511B"/>
</svg>
