<svg width="86" height="157" viewBox="0 0 86 157" fill="none" xmlns="http://www.w3.org/2000/svg">
<path d="M80.21 44.6139C80.21 44.5339 80.22 44.4439 80.22 44.3639C80.22 34.5239 76.07 26.6739 68.23 21.6639C63.28 18.5039 56.98 16.5639 49.45 15.8539C49.48 15.5939 49.4999 15.3439 49.4999 15.0739V14.6639L57.3799 13.5639C61.0999 13.0439 63.71 9.59387 63.19 5.87387C62.67 2.15387 59.2299 -0.446132 55.4999 0.0638677L46.2399 1.35391C40.0299 2.21391 35.8599 6.17388 35.8599 11.2039V15.0739C35.8599 15.3239 35.88 15.5739 35.9 15.8239C28.3 16.4839 21.97 18.2839 17.02 21.2239C8.85996 26.0639 4.54999 33.8439 4.54999 43.7139C4.54999 44.0839 4.58995 44.4339 4.63995 44.7839C1.92995 45.8639 0 48.5039 0 51.6039V61.5139C0 65.3939 3.02998 68.5839 6.84998 68.8339L14.18 143.184C14.9 150.514 21 156.034 28.36 156.034H55.4C62.49 156.034 68.56 150.734 69.52 143.704L79.73 68.6439C82.95 67.8639 85.34 64.9639 85.34 61.5139V51.6039C85.35 48.3339 83.18 45.5439 80.21 44.6139Z" fill="white"/>
<path d="M78.0099 48.894H7.32996C5.82996 48.894 4.62 50.1141 4.62 51.6041V61.514C4.62 63.014 5.83996 64.2241 7.32996 64.2241H11.03L18.77 142.724C19.26 147.674 23.38 151.404 28.35 151.404H55.39C60.18 151.404 64.28 147.824 64.93 143.074L75.66 64.2241H77.9999C79.4999 64.2241 80.71 63.004 80.71 61.514V51.6041C80.73 50.1141 79.5099 48.894 78.0099 48.894ZM60.59 142.494C60.24 145.084 58 147.034 55.4 147.034H28.36C25.65 147.034 23.41 145.004 23.14 142.304L15.44 64.2341H71.2399L60.59 142.494ZM76.34 59.8541H76.27H10.6H9V53.2841H76.34V59.8541Z" fill="#E8511B"/>
<path d="M11.36 45.9141C12.57 45.9141 13.55 44.9341 13.55 43.7241C13.55 27.8841 29.39 24.554 42.67 24.554C51.39 24.554 58.5499 26.184 63.3799 29.254C68.5799 32.574 71.21 37.6541 71.21 44.3541C71.21 45.5641 72.19 46.5441 73.4 46.5441C74.61 46.5441 75.59 45.5641 75.59 44.3541C75.59 36.0541 72.27 29.734 65.73 25.554C60.12 21.974 52.36 20.1641 42.66 20.1641C32.83 20.1641 24.99 21.864 19.36 25.204C12.59 29.224 9.14996 35.4541 9.14996 43.7241C9.16996 44.9341 10.15 45.9141 11.36 45.9141Z" fill="#E8511B"/>
<path d="M50.5299 28.9239C49.3299 28.8339 48.28 29.7339 48.18 30.9439C48.09 32.1439 48.99 33.2039 50.19 33.3039C50.57 33.3339 59.4699 34.1539 62.2799 42.3239C62.5899 43.2339 63.44 43.8039 64.35 43.8039C64.59 43.8039 64.83 43.7639 65.06 43.6839C66.2 43.2939 66.81 42.0439 66.42 40.8939C62.66 29.9539 51.0199 28.9639 50.5299 28.9239Z" fill="#E8511B"/>
<path d="M31.09 87.7939L35.9601 89.1139C36.4601 89.2539 36.9701 89.3139 37.4801 89.3139C38.4801 89.3139 39.4601 89.0539 40.3501 88.5439C41.6901 87.7739 42.64 86.5339 43.05 85.0439L44.37 80.1739C44.77 78.6839 44.57 77.1339 43.8 75.7939C43.03 74.4539 41.79 73.5039 40.3 73.0939L35.43 71.7739C32.36 70.9439 29.18 72.7639 28.35 75.8439L27.03 80.7139C26.2 83.7839 28.02 86.9639 31.09 87.7939ZM31.26 81.8539L32.58 76.9839C32.75 76.3639 33.31 75.9639 33.92 75.9639C34.04 75.9639 34.16 75.9839 34.28 76.0139L39.15 77.3339C39.51 77.4339 39.81 77.6639 39.99 77.9839C40.17 78.3039 40.22 78.6739 40.13 79.0339L38.81 83.9039C38.71 84.2639 38.48 84.5639 38.16 84.7439C37.84 84.9239 37.47 84.9739 37.11 84.8839L32.24 83.5639C31.5 83.3539 31.06 82.5939 31.26 81.8539Z" fill="#E8511B"/>
<path d="M28.16 109.474L30.79 110.184C31.29 110.324 31.8 110.384 32.31 110.384C33.31 110.384 34.29 110.124 35.18 109.614C36.52 108.844 37.4699 107.604 37.8799 106.114L38.59 103.484C38.99 101.994 38.7899 100.444 38.0199 99.1041C37.2499 97.7641 36.0099 96.8141 34.5199 96.4041L31.8899 95.694C30.3999 95.294 28.85 95.4941 27.51 96.2641C26.17 97.0341 25.22 98.2741 24.81 99.7641L24.1 102.394C23.26 105.464 25.09 108.644 28.16 109.474ZM28.3299 103.544L29.04 100.914C29.14 100.554 29.37 100.254 29.69 100.074C29.9 99.954 30.14 99.8941 30.38 99.8941C30.5 99.8941 30.62 99.914 30.74 99.944L33.37 100.654C33.73 100.754 34.03 100.984 34.21 101.304C34.39 101.624 34.44 101.994 34.35 102.354L33.6399 104.984C33.5399 105.344 33.31 105.644 32.99 105.824C32.67 106.004 32.3 106.054 31.94 105.964L29.31 105.254C28.57 105.044 28.1299 104.274 28.3299 103.544Z" fill="#E8511B"/>
<path d="M48.3999 105.964L54.07 107.494C54.57 107.634 55.08 107.694 55.57 107.694C58.11 107.694 60.4499 105.994 61.1399 103.424L62.6699 97.754C63.0699 96.264 62.87 94.714 62.1 93.374C61.33 92.034 60.09 91.084 58.6 90.674L52.9299 89.144C51.4399 88.744 49.8899 88.944 48.5499 89.714C47.2099 90.484 46.26 91.724 45.85 93.214L44.32 98.884C43.5 101.964 45.3299 105.134 48.3999 105.964ZM48.57 100.034L50.1 94.364C50.2 94.004 50.4299 93.704 50.7499 93.524C50.9599 93.404 51.2 93.344 51.44 93.344C51.56 93.344 51.6799 93.364 51.7999 93.394L57.47 94.924C57.83 95.024 58.13 95.254 58.31 95.574C58.49 95.894 58.54 96.264 58.45 96.624L56.9199 102.294C56.8199 102.654 56.5899 102.954 56.2699 103.134C55.9499 103.314 55.57 103.364 55.22 103.274L49.5499 101.744C48.8099 101.534 48.37 100.774 48.57 100.034Z" fill="#E8511B"/>
<path d="M45.9 114.534L41.88 113.444C40.93 113.184 39.9301 113.314 39.0801 113.804C38.2201 114.294 37.61 115.094 37.36 116.044L36.27 120.064C35.74 122.024 36.91 124.054 38.87 124.594L42.89 125.684C43.21 125.774 43.5301 125.814 43.8501 125.814C45.4801 125.814 46.97 124.724 47.42 123.084L48.51 119.064C49.03 117.094 47.86 115.064 45.9 114.534ZM43.36 121.264L40.68 120.544L41.4 117.864L44.0801 118.584L43.36 121.264Z" fill="#E8511B"/>
<path d="M42.67 17.274C43.88 17.274 44.8599 16.294 44.8599 15.084V11.324C45.0299 11.114 45.78 10.514 47.47 10.284L56.73 8.99398C57.93 8.82398 58.77 7.71401 58.6 6.52401C58.43 5.32401 57.3199 4.49401 56.1299 4.65401L46.8699 5.94399C43.0399 6.47399 40.47 8.59401 40.47 11.214V15.084C40.48 16.284 41.46 17.274 42.67 17.274Z" fill="#E8511B"/>
</svg>
