<svg width="87" height="159" viewBox="0 0 87 159" fill="none" xmlns="http://www.w3.org/2000/svg">
<path d="M82.23 2.81994C79.8 0.73994 76.71 -0.240079 73.54 0.0499206C70.36 0.329921 67.5 1.84994 65.47 4.31994L56.81 14.9C55.2 13.68 53.41 12.5299 51.42 11.4999C41.54 6.37993 29.75 6.36992 19.87 11.4899C0.229996 21.6499 0 42.58 0 43.47C0 45.23 0.640002 46.85 1.69 48.1C0.570002 49.77 0.0100147 51.7899 0.140015 53.8199C0.520015 59.6999 1.68997 75.2799 4.40997 92.8199C7.48997 112.7 11.53 128.57 16.43 140.08L15.69 140.88C12.88 143.9 12.15 148.13 13.8 151.92C15.45 155.71 19.04 158.06 23.17 158.06H48.62C52.83 158.06 56.55 155.54 58.11 151.63C59.67 147.72 58.7 143.33 55.65 140.43L54.96 139.78C59.8 128.29 63.79 112.53 66.84 92.8299C69.56 75.2899 70.73 59.7199 71.11 53.8299C71.24 51.7999 70.68 49.7799 69.56 48.1099C70.61 46.8499 71.25 45.24 71.25 43.47C71.25 43.13 71.22 39.7899 70.04 35.2399C71.4 34.7799 72.61 33.9199 73.49 32.7599L83.97 18.8899C87.72 13.9099 86.95 6.85994 82.23 2.81994Z" fill="white"/>
<path d="M48.61 153.15H23.16C21.01 153.15 19.15 151.93 18.29 149.96C17.43 147.99 17.81 145.79 19.27 144.22L22.22 141.05C16.9 129.79 12.54 113.32 9.25001 92.08C6.56001 74.73 5.39998 59.33 5.02998 53.52C4.94998 52.34 5.37001 51.1699 6.18001 50.3099C6.99001 49.4499 8.13001 48.95 9.31001 48.95H61.94C63.12 48.95 64.26 49.4399 65.07 50.3099C65.88 51.1699 66.3 52.34 66.22 53.52C65.85 59.33 64.69 74.73 62 92.08C58.72 113.27 54.37 129.69 49.07 140.96L52.27 144C53.86 145.51 54.36 147.79 53.55 149.82C52.74 151.84 50.8 153.15 48.61 153.15ZM9.70003 53.6C10.42 64.52 14.35 114.92 27.1 140.42L27.82 141.86L22.68 147.38C22.44 147.64 22.48 147.91 22.56 148.09C22.64 148.27 22.81 148.49 23.16 148.49H48.61C48.98 148.49 49.15 148.26 49.22 148.08C49.3 147.89 49.33 147.61 49.06 147.36L43.37 141.96L44.14 140.42C56.89 114.92 60.82 64.51 61.54 53.6H9.70003Z" fill="#E8511B"/>
<path d="M64.02 45.7899C62.74 45.7899 61.69 44.7499 61.69 43.4699C61.69 42.7899 61.43 27.4699 47.01 19.9899C39.89 16.2999 31.38 16.2899 24.25 19.9799C9.79 27.4599 9.54999 42.8199 9.54999 43.4699C9.53999 44.7499 8.49997 45.7899 7.21997 45.7899C7.21997 45.7899 7.22002 45.7899 7.21002 45.7899C5.93002 45.7899 4.89001 44.7499 4.89001 43.4699C4.89001 42.7099 5.08998 24.6599 22.11 15.8499C30.58 11.4699 40.69 11.4699 49.15 15.8599C66.15 24.6799 66.34 42.7099 66.34 43.4699C66.35 44.7499 65.3 45.7899 64.02 45.7899Z" fill="#E8511B"/>
<path d="M50.48 34.6399C49.65 34.6399 48.85 34.1999 48.43 33.4199C46.17 29.2299 40.74 26.5999 40.68 26.5799C39.52 26.0299 39.03 24.6399 39.58 23.4799C40.13 22.3199 41.51 21.8199 42.67 22.3699C42.95 22.4999 49.53 25.6599 52.53 31.2099C53.14 32.3399 52.72 33.7499 51.58 34.3599C51.23 34.5499 50.85 34.6399 50.48 34.6399Z" fill="#E8511B"/>
<path d="M49.93 94.0999C49.83 94.0999 49.73 94.0899 49.63 94.0799C48.36 93.9199 47.45 92.7499 47.62 91.4799C49.54 76.4199 49.56 76.1999 50.2 64.7899L50.4 61.2199C50.47 59.9399 51.55 58.9599 52.86 59.0299C54.14 59.0999 55.12 60.1999 55.05 61.4899L54.85 65.0499C54.2 76.6199 54.19 76.8399 52.24 92.0699C52.09 93.2399 51.09 94.0999 49.93 94.0999Z" fill="#E8511B"/>
<path d="M67.71 30.71C67.22 30.71 66.73 30.56 66.31 30.24C65.28 29.46 65.08 28.01 65.86 26.98L76.34 13.1C77.04 12.17 76.9 10.84 76.01 10.08C75.55 9.68998 74.97 9.50996 74.38 9.55996C73.78 9.60996 73.24 9.89995 72.86 10.3599L64.12 21.04C63.31 22.03 61.84 22.18 60.84 21.37C59.85 20.56 59.7 19.09 60.51 18.09L69.25 7.41C70.43 5.97 72.1 5.07994 73.96 4.91994C75.81 4.74994 77.62 5.33 79.03 6.54C81.79 8.9 82.23 13.01 80.05 15.9L69.57 29.77C69.12 30.4 68.42 30.71 67.71 30.71Z" fill="#E8511B"/>
</svg>
