<?xml version="1.0" encoding="utf-8"?>
<!-- Generator: Adobe Illustrator 25.4.1, SVG Export Plug-In . SVG Version: 6.00 Build 0)  -->
<svg version="1.1" id="Capa_1" xmlns="http://www.w3.org/2000/svg" xmlns:xlink="http://www.w3.org/1999/xlink" x="0px" y="0px"
	 viewBox="0 0 1241.85 841.89" style="enable-background:new 0 0 1241.85 841.89;" xml:space="preserve">
<style type="text/css">
	.st0{fill:#46130E;}
	.st1{fill:#FF5C1E;}
</style>
<g>
	<g>
		<g>
			<path class="st0" d="M377.88,363.93c11.38,0.1,20.09,3.09,25.92,8.9c6.01,6,9.25,14.04,9.61,23.88
				c0.16,4.32-0.16,8.84-0.94,13.43c-1.34,7.83-4.07,16.06-8.11,24.44c-0.67,1.39-1.4,2.76-2.03,3.94
				c-6.27,11.7-14.59,21.75-24.73,29.88c-11.2,8.98-23.6,13.57-36.83,13.65l-0.42,0c-11.66,0-20.57-3-26.49-8.9
				c-6.01-6-9.25-14.03-9.61-23.88c-0.08-2.27-0.04-4.63,0.12-7.02c0.06-0.91,0.15-1.85,0.25-2.79c-0.44,0.81-0.9,1.63-1.37,2.44
				c-6.08,10.53-13.88,19.64-23.16,27.09c-11.2,8.98-23.6,13.57-36.83,13.65l-0.42,0c-11.66,0-20.57-3-26.49-8.9
				c-3.11-3.1-5.5-6.8-7.11-11c-0.19-0.5-0.37-0.99-0.53-1.47c-0.06,0.07-0.12,0.13-0.19,0.2c-0.18,0.19-0.38,0.38-0.57,0.57
				l-0.35,0.34c-6,5.98-13.72,10.92-22.97,14.69c-9.79,3.99-19.91,6.05-30.07,6.11l-0.56,0h0c-14.24,0-25.41-3.34-33.2-9.92
				c-7.95-6.72-12.01-15.28-12.41-26.19c-0.42-11.28,2.64-23.52,9.09-36.39c6.46-12.89,15.51-23.82,26.91-32.49
				c11.31-8.59,23.84-12.99,37.26-13.08l0.37,0c10.4,0,18.5,2.72,24.09,8.09c5.74,5.52,8.67,12.18,8.97,20.36
				c0.2,5.53-0.93,11.15-3.38,16.72c-3.77,8.56-7.95,14.42-12.43,17.39c-4.31,2.86-9.84,4.31-16.46,4.31c-0.25,0-0.5,0-0.71-0.01
				c-15.13-0.57-15.39-7.62-15.48-9.93c-0.23-6.2,4.01-15.24,12.59-26.87l0.1-0.13l0.07-0.15c0.46-0.99,0.61-1.48,0.6-1.95
				c-0.02-0.63-0.25-1.56-1.18-2.45c-0.73-0.69-1.66-1.04-2.75-1.04c-1.19,0.01-2.31,0.69-3.44,2.1
				c-3.47,4.43-7.02,10.23-10.54,17.25c-3,5.89-4.43,11.37-4.25,16.3c0.18,4.94,1.89,8.93,5.07,11.87
				c3.13,2.88,7.99,4.35,14.45,4.35l0.27,0c7.87-0.05,17.36-1.98,28.2-5.76c0.69-0.24,1.39-0.49,2.09-0.75
				c0.13-0.73,0.28-1.47,0.44-2.21c1.43-6.75,3.82-13.73,7.1-20.75c6.21-13.29,15.09-24.62,26.39-33.68
				c11.2-8.98,23.84-13.57,37.57-13.66l0.43,0c11.65,0,20.56,3,26.49,8.9c6.01,6,9.25,14.04,9.61,23.88
				c0.07,1.92,0.04,3.95-0.08,6.03c-0.05,0.9-0.13,1.81-0.22,2.73c0.44-0.82,0.89-1.62,1.35-2.41
				c5.85-10.08,13.38-18.85,22.37-26.06c11.16-8.95,23.75-13.54,37.42-13.65 M272.1,396.37c-1.19,0.01-2.31,0.69-3.43,2.08
				c-4.11,5.6-7.8,11.64-11.02,18c-3.2,6.33-5.73,12.11-7.52,17.17c-0.22,0.72-0.3,1.47-0.27,2.29c0.14,3.69,2.66,3.98,3.43,3.98
				c1.9-0.01,3.44-1.5,4.6-4.44c1.61-4.66,3.97-10.06,7.04-16.11c3.06-6.04,6.54-11.85,10.36-17.28l0.08-0.12l0.06-0.13
				c0.46-0.99,0.61-1.48,0.59-1.96c-0.02-0.63-0.25-1.56-1.18-2.45C274.12,396.72,273.2,396.37,272.1,396.37z M369.61,395.78
				c-1.19,0.01-2.31,0.69-3.42,2.08c-4.11,5.6-7.8,11.64-11.02,18c-3.2,6.34-5.74,12.11-7.52,17.17c-0.22,0.72-0.3,1.47-0.27,2.29
				c0.14,3.69,2.66,3.98,3.43,3.98c1.9-0.01,3.44-1.51,4.6-4.44c1.61-4.66,3.97-10.06,7.04-16.11c3.06-6.04,6.54-11.85,10.36-17.28
				l0.11-0.16l0.03-0.09c0.46-0.99,0.61-1.48,0.59-1.95c-0.02-0.63-0.25-1.56-1.17-2.45C371.63,396.13,370.7,395.78,369.61,395.78z"
				/>
			<path class="st0" d="M377.32,364.49l-0.42,0c-13.6,0.08-26.12,4.63-37.22,13.53c-9.02,7.23-16.45,15.93-22.24,25.9
				c-0.98,1.69-1.91,3.42-2.8,5.19c0.29-1.96,0.5-3.91,0.61-5.83c0.12-2.02,0.16-4.01,0.08-5.97c-0.36-9.69-3.53-17.6-9.44-23.5
				c-5.81-5.8-14.59-8.74-26.08-8.74l-0.42,0c-13.6,0.08-26.12,4.63-37.22,13.53c-11.23,9-20.06,20.26-26.23,33.48
				c-3.29,7.04-5.64,13.93-7.06,20.62c-0.18,0.84-0.34,1.68-0.49,2.51c-0.81,0.3-1.61,0.59-2.41,0.86
				c-10.87,3.79-20.41,5.74-28.39,5.79l-0.27,0c-6.61,0-11.6-1.51-14.83-4.5c-3.3-3.04-5.07-7.16-5.26-12.26
				c-0.18-5.03,1.27-10.61,4.31-16.57c3.53-7.04,7.1-12.88,10.6-17.35c1.24-1.55,2.51-2.3,3.88-2.31c0,0,0,0,0,0
				c1.24,0,2.31,0.41,3.15,1.2c1.07,1.02,1.32,2.11,1.35,2.84c0.02,0.57-0.14,1.13-0.65,2.22l-0.09,0.2l-0.13,0.18
				c-8.5,11.52-12.7,20.44-12.48,26.51c0.08,2.19,0.33,8.84,14.92,9.39c0.2,0,0.45,0,0.7,0c6.51,0,11.94-1.42,16.15-4.22
				c4.39-2.92,8.5-8.69,12.23-17.15c2.41-5.49,3.53-11.03,3.33-16.47c-0.3-8.03-3.17-14.56-8.8-19.97
				c-5.47-5.26-13.45-7.93-23.69-7.93l-0.37,0c-13.29,0.08-25.71,4.44-36.92,12.96c-11.33,8.61-20.33,19.48-26.74,32.29
				c-6.41,12.79-9.44,24.94-9.03,36.12c0.4,10.74,4.39,19.17,12.21,25.78c7.68,6.49,18.73,9.79,32.83,9.79l0.56,0
				c10.09-0.06,20.14-2.1,29.86-6.07c9.22-3.76,16.86-8.66,22.78-14.57c0.3-0.3,0.62-0.59,0.92-0.9c0.29-0.3,0.56-0.61,0.84-0.91
				c0.24,0.81,0.52,1.6,0.81,2.37c1.58,4.12,3.91,7.74,6.98,10.8c5.81,5.8,14.58,8.74,26.09,8.74l0.42,0
				c13.11-0.08,25.38-4.63,36.48-13.53c9.3-7.46,17.01-16.51,23.03-26.93c0.99-1.72,1.95-3.48,2.85-5.27
				c-0.31,2-0.54,3.99-0.68,5.95c-0.16,2.35-0.21,4.67-0.12,6.96c0.36,9.7,3.53,17.6,9.44,23.5c5.81,5.8,14.58,8.74,26.09,8.74
				l0.42,0c13.11-0.08,25.38-4.63,36.48-13.53c10.12-8.11,18.36-18.1,24.58-29.7c0.69-1.29,1.38-2.59,2.02-3.92
				c4.04-8.37,6.73-16.5,8.06-24.29c0.78-4.56,1.09-9,0.94-13.31c-0.36-9.69-3.54-17.6-9.44-23.5
				C397.59,367.43,388.82,364.49,377.32,364.49L377.32,364.49 M212.06,431.98c0.14,0,0.26,0.02,0.4,0.02
				c-0.15-0.01-0.29-0.02-0.44-0.02C212.03,431.98,212.04,431.98,212.06,431.98z M275.95,402.05l-0.08,0.18l-0.11,0.16
				c-3.8,5.4-7.27,11.19-10.32,17.21c-3.06,6.03-5.41,11.4-6.99,15.97l-0.02,0.04l-0.02,0.04c-1.25,3.17-2.97,4.79-5.1,4.8h-0.01
				l-0.02,0c-1.85,0-3.87-1.19-4-4.52c-0.03-0.89,0.06-1.7,0.27-2.41l0.01-0.05l0.02-0.05c1.8-5.08,4.34-10.88,7.55-17.23
				c3.23-6.39,6.94-12.46,11.02-18.03l0.03-0.04l0.03-0.04c1.23-1.54,2.49-2.29,3.86-2.29c0,0,0,0,0,0c1.24,0,2.31,0.41,3.15,1.2
				c1.07,1.03,1.32,2.11,1.35,2.84C276.62,400.41,276.46,400.97,275.95,402.05z M373.46,401.46l-0.08,0.18l-0.11,0.16
				c-3.8,5.4-7.27,11.19-10.31,17.21c-3.06,6.03-5.41,11.4-6.99,15.97l-0.02,0.04l-0.02,0.04c-1.25,3.17-2.97,4.79-5.1,4.8h-0.01
				l-0.02,0c-1.85,0-3.87-1.19-4-4.52c-0.03-0.89,0.06-1.7,0.27-2.41l0.01-0.05l0.02-0.05c1.8-5.08,4.34-10.88,7.55-17.23
				c3.23-6.39,6.94-12.46,11.02-18.03l0.03-0.04l0.03-0.04c1.23-1.54,2.49-2.29,3.86-2.3c0,0,0,0,0,0c1.24,0,2.31,0.41,3.15,1.2
				c1.07,1.02,1.32,2.11,1.35,2.84C374.12,399.82,373.96,400.38,373.46,401.46z"/>
			<path class="st0" d="M594.66,354.5c-5.8,0-10.35-1.38-13.51-4.11c-3.2-2.76-4.83-6-4.98-9.92c-0.16-4.37,1.58-8.12,5.34-11.46
				c3.77-3.36,9.26-5.09,16.3-5.13l0.21,0c5.81,0,10.44,1.46,13.78,4.34c3.38,2.93,5.09,6.25,5.23,10.17
				c0.16,4.35-1.58,8.01-5.32,11.19c-3.79,3.22-9.45,4.87-16.83,4.92L594.66,354.5z"/>
			<path class="st0" d="M581.52,349.96c3.06,2.63,7.48,3.97,13.14,3.97l0.23,0c7.25-0.04,12.79-1.65,16.47-4.78
				c3.6-3.06,5.28-6.57,5.12-10.74c-0.14-3.75-1.79-6.94-5.04-9.76c-3.23-2.79-7.74-4.2-13.4-4.2l-0.21,0
				c-6.9,0.04-12.26,1.72-15.93,4.99c-3.62,3.22-5.31,6.83-5.15,11.02C576.87,344.21,578.44,347.32,581.52,349.96z"/>
			<path class="st0" d="M496.39,314.36c0.79,0.05,1.79,0.18,2.99,0.41c8.57,1.67,9.71,6.09,9.83,9.28c0.2,5.45-2.29,12.4-7.4,20.66
				c-5.24,8.47-12.91,19.3-22.82,32.2l-8.05,10.87l-0.63,1.73l0.01,0.32c0.04,1.21,0.99,2.05,2.29,2.05
				c0.92-0.01,1.78-0.52,2.54-1.53c7.57-7.8,16-14.35,25.12-19.52c9.05-5.13,17.93-7.76,26.4-7.81h0.15c5.04,0,8.98,1.55,12.04,4.73
				c3.13,3.26,4.74,7.1,4.91,11.72c0.15,4.18-0.96,8.33-3.32,12.32c-2.37,4.01-6.13,7.45-11.2,10.23c-5.11,2.8-11.59,4.4-19.26,4.76
				c-2.34,0.22-4.07,1.1-5.2,2.61c-1.08,1.43-1.59,3.17-1.52,5.15c0.14,3.76,1.67,7.31,4.55,10.54c2.93,3.3,6.53,4.97,10.73,4.97
				l0.88-0.01l2.26-0.18c2.61-0.77,3.28-1.17,5.23-2.35l0.33-0.2c0.49-0.29,1.38-2.2,1.93-3.8c0.35-0.99,0.72-1.98,1.11-2.97
				c0.67-1.74,1.36-3.46,2.06-5.1c6.2-14.46,14.42-27.04,24.43-37.39c9.84-10.16,19.44-15.34,28.55-15.4l0.16,0
				c7.98,0,11.82,3.55,12.1,11.16c0.24,6.49-1.83,14.81-6.14,24.73c-4.38,10.05-9.84,19.92-16.24,29.34l-0.1,0.15l-0.03,0.08
				l-0.62,1.33l0.01,0.39c0.04,1.19,0.84,2.14,2.09,2.47c0.29,0.08,0.58,0.12,0.86,0.12l0.56,0c0.75,0,1.75-0.03,2.77-0.23
				c4.88-0.96,8.44-2.89,10.03-5.42l1.37-2.73l0.59-1.83c0.28-0.91,0.58-1.83,0.91-2.75c1.34-3.83,3.02-7.77,4.99-11.71
				c6.46-12.89,15.51-23.82,26.91-32.49c11.31-8.59,23.84-12.99,37.26-13.08l0.37,0c10.4,0,18.5,2.68,24.09,7.98
				c5.73,5.44,8.66,12.05,8.96,20.23c0.25,6.77-1.32,13.42-4.68,19.77c-3.36,6.35-8.35,11.67-14.84,15.8
				c-6.47,4.12-14.19,6.24-22.95,6.29l-0.37,0c-6.23,0-11.41-0.97-15.39-2.88c-1.44-0.64-2.58-0.94-3.54-0.94
				c-1.08,0-2,0.4-2.6,1.13c-0.65,0.75-0.61,1.72-0.6,2.08c0.07,1.89,1.95,3.19,3.36,3.99c5,2.65,11.12,3.98,18.22,3.98l0.36,0
				c7.85-0.05,17.17-1.72,27.69-4.98c0.77-0.24,1.55-0.49,2.33-0.74c0.31-0.83,0.66-1.66,1.05-2.48c0.69-1.44,1.48-2.81,2.35-4.07
				c3.73-5.41,8.3-8.05,13.97-8.09l0.18,0c2.29,0,4.12,0.27,5.46,0.81c1.48,0.6,3.28,1.52,5.36,2.74c3.08,1.96,6.26,3.61,9.47,4.91
				c3.27,1.33,7.58,2.44,13.17,3.41l0.19,0.03l0.1-0.01l0.49,0c2.14-0.01,2.99-1.04,3.32-1.89c0.21-0.53,0.69-2.35-1.97-3.63
				l-0.1-0.04c-10.02-4.03-18.05-8.8-23.86-14.17c-5.63-5.19-8.59-10.78-8.81-16.59c-0.12-3.11,0.54-6.22,1.95-9.23
				c3.57-8.15,9.37-14.22,17.21-18.02c7.98-3.87,18.98-5.88,32.67-5.96l0.9,0c12.01,0,21.16,1.51,27.17,4.49
				c5.75,2.84,8.64,6.96,8.85,12.58c0.1,2.82-0.49,5.88-1.75,9.08c-1.34,3.65-4.11,6.45-8.48,8.57c-4.47,2.17-9.91,3.28-16.15,3.32
				l-0.35,0c-6.21,0-12.53-0.99-18.79-2.95l-1-0.32l-0.27,0c-1.44,0.01-2.63,0.8-3.27,2.16c-0.92,1.97,0.07,3.3,1.21,3.84
				c10.9,4.69,19.19,9.85,24.69,15.36c5.42,5.44,8.18,11.44,8.43,18.33c0.17,4.58-0.98,9.98-3.42,16.04
				c-3.72,9.12-9.98,16-18.62,20.44c-8.76,4.51-18.5,6.83-28.93,6.89l-0.59,0c-14.36,0-25.26-3.25-32.4-9.65
				c-2.26-2.03-4.21-4.2-5.79-6.45c-0.29-0.41-0.57-0.84-0.87-1.32c-0.39,0.35-0.78,0.69-1.19,1.03
				c-5.29,4.36-11.69,8.09-19.01,11.07c-9.79,3.99-19.91,6.05-30.07,6.11l-0.56,0c-14.24,0-25.41-3.34-33.2-9.92
				c-4.95-4.19-8.34-9-10.34-14.73c-0.17-0.48-0.33-0.98-0.48-1.5c-0.34,0.39-0.69,0.78-1.04,1.17
				c-4.9,5.38-10.48,10.35-16.58,14.79c-9.51,6.91-18.92,10.45-27.97,10.5l-0.22,0c-7.25,0-12.53-2.1-16.11-6.43
				c-2.2-2.65-3.81-6-4.81-9.95c-0.13-0.5-0.24-1.01-0.35-1.53c-0.26,0.23-1.17,1.04-1.17,1.04c-2.73,2.43-5.51,4.69-8.28,6.74
				c-9.34,6.91-18.17,10.43-26.25,10.48l-0.36,0c-9.27,0-16.29-2.24-20.87-6.66c-4.71-4.54-7.14-10.42-7.42-17.95
				c-0.21-5.58,0.77-11.62,2.9-17.94c2.15-6.38,5.23-12.58,9.14-18.41l0.56,0.18l-0.49-0.28c0.62-1.1,0.9-1.99,0.87-2.8
				c-0.05-1.37-1.02-2.29-2.42-2.29c-1.28,0.01-2.37,0.99-3.08,1.72c-2.66,2.75-6.36,9.06-11.31,19.31
				c-4.84,9.49-9.13,17.33-12.77,23.32c-3.58,5.89-8,11.16-13.14,15.66c-5.03,4.4-10.31,6.55-16.14,6.59l-0.14,0
				c-12.68,0-14.53-10.37-14.82-18.16c-0.25-6.89,0.86-15.08,3.3-24.35c2.25-8.53,5.67-18.1,10.16-28.45
				c0.71-1.63,1.44-3.29,2.2-4.97c10.97-24.08,24.44-45.56,40.04-63.83c15.14-17.73,28.83-26.89,40.68-27.24 M657.17,386.53
				c-1.19,0.01-2.31,0.69-3.42,2.08c-6.32,8.4-10.88,16.82-13.56,25.06c-0.19,0.64-0.28,1.38-0.25,2.21
				c0.14,3.69,2.66,3.98,3.43,3.98c1.9-0.01,3.44-1.5,4.6-4.44l0.58,0.06l-0.54-0.17c0.98-3.11,2.61-6.81,4.85-11
				c2.25-4.21,4.77-8.27,7.5-12.08l0.09-0.12l0.06-0.14c0.46-0.99,0.61-1.48,0.59-1.96c-0.02-0.63-0.25-1.56-1.18-2.45
				C659.2,386.88,658.27,386.53,657.17,386.53L657.17,386.53z"/>
			<path class="st0" d="M495.78,314.91c-11.81,0.07-25.54,9.17-40.81,27.05c-15.57,18.23-29.01,39.66-39.96,63.69
				c-0.76,1.68-1.49,3.33-2.2,4.96c-4.51,10.39-7.89,19.86-10.13,28.37c-2.43,9.21-3.54,17.3-3.28,24.19
				c0.28,7.56,2.06,17.61,14.25,17.61l0.14,0c5.69-0.03,10.85-2.14,15.77-6.45c5.1-4.46,9.48-9.69,13.03-15.53
				c3.63-5.98,7.92-13.81,12.75-23.27c4.97-10.29,8.71-16.67,11.41-19.46c0.78-0.81,2-1.89,3.49-1.9c1.71,0,2.92,1.17,2.99,2.84
				c0.03,0.92-0.27,1.9-0.95,3.1l-0.04,0.07l-0.04,0.07c-3.89,5.79-6.94,11.94-9.07,18.28c-2.11,6.26-3.07,12.23-2.87,17.74
				c0.27,7.38,2.64,13.13,7.24,17.56c4.47,4.31,11.36,6.5,20.47,6.5l0.36,0c7.95-0.05,16.67-3.54,25.91-10.37
				c2.88-2.13,5.62-4.37,8.24-6.7c0.64-0.57,1.29-1.14,1.92-1.72c0.15,0.86,0.33,1.69,0.53,2.5c0.97,3.85,2.53,7.12,4.69,9.73
				c3.47,4.19,8.6,6.23,15.67,6.23l0.22,0c8.93-0.05,18.23-3.55,27.64-10.39c6.12-4.45,11.64-9.38,16.5-14.72
				c0.59-0.64,1.15-1.3,1.72-1.95c0.22,0.84,0.47,1.67,0.76,2.48c1.96,5.6,5.33,10.39,10.17,14.49c7.68,6.49,18.73,9.79,32.83,9.79
				l0.56,0c10.1-0.06,20.14-2.1,29.86-6.07c7.29-2.97,13.61-6.66,18.86-10.99c0.58-0.48,1.13-0.97,1.68-1.47
				c0.38,0.63,0.78,1.26,1.21,1.87c1.56,2.23,3.46,4.34,5.7,6.35c7.03,6.31,17.8,9.51,32.02,9.51l0.59,0
				c10.35-0.06,20-2.36,28.68-6.83c8.51-4.38,14.68-11.16,18.35-20.15c2.41-5.98,3.55-11.3,3.38-15.8
				c-0.25-6.74-2.95-12.61-8.27-17.95c-5.45-5.46-13.68-10.58-24.45-15.22l-0.04-0.02l-0.04-0.02c-1.47-0.7-2.5-2.4-1.48-4.59
				c0.73-1.57,2.11-2.48,3.78-2.49l0.35,0l0.34,0.11l0.74,0.24c6.2,1.94,12.47,2.92,18.62,2.92l0.35,0
				c6.16-0.04,11.51-1.14,15.9-3.27c4.23-2.05,6.91-4.75,8.2-8.26c1.24-3.15,1.81-6.11,1.71-8.85c-0.2-5.39-2.99-9.35-8.54-12.09
				c-5.94-2.94-15-4.43-26.92-4.43l-0.89,0c-13.61,0.08-24.52,2.07-32.43,5.9c-7.72,3.75-13.42,9.72-16.95,17.75
				c-1.38,2.95-2.01,5.95-1.9,8.97c0.21,5.65,3.11,11.1,8.63,16.19c5.76,5.32,13.73,10.05,23.69,14.06l0.07,0.03l0.06,0.03
				c3.18,1.52,2.44,3.89,2.25,4.35c-0.33,0.83-1.26,2.23-3.85,2.25l-0.49,0l-0.2,0l-0.19-0.03c-5.64-0.97-9.99-2.1-13.29-3.44
				c-3.23-1.31-6.45-2.97-9.55-4.94c-2.05-1.2-3.83-2.11-5.28-2.7c-1.26-0.51-3.03-0.77-5.24-0.77l-0.18,0
				c-5.47,0.03-9.89,2.6-13.51,7.84c-0.88,1.28-1.65,2.61-2.31,3.99c-0.42,0.88-0.8,1.77-1.13,2.69c-0.88,0.29-1.74,0.56-2.6,0.83
				c-10.57,3.27-19.91,4.96-27.86,5.01l-0.36,0c-7.19,0-13.39-1.35-18.43-4.02l-0.03-0.02l-0.03-0.02
				c-1.53-0.88-3.57-2.29-3.64-4.47c-0.01-0.39-0.06-1.56,0.72-2.46c0.71-0.87,1.78-1.34,3.04-1.34c1.04,0,2.26,0.32,3.73,0.96
				l0.03,0.01l0.03,0.01c3.9,1.88,9,2.83,15.14,2.83l0.37,0c8.65-0.05,16.28-2.14,22.65-6.2c6.4-4.08,11.33-9.33,14.64-15.59
				c3.31-6.26,4.86-12.82,4.61-19.49c-0.3-8.02-3.17-14.51-8.78-19.84c-5.47-5.19-13.45-7.82-23.69-7.82l-0.37,0
				c-13.29,0.08-25.71,4.44-36.92,12.96c-11.33,8.61-20.33,19.48-26.74,32.29c-1.98,3.95-3.63,7.83-4.96,11.65
				c-0.32,0.92-0.62,1.83-0.9,2.74l-0.62,1.91l-1.4,2.78c-1.58,2.53-5.03,4.61-10.4,5.67c-1.39,0.27-2.72,0.23-3.44,0.23
				c-0.34,0-0.68-0.05-1.01-0.14c-1.49-0.4-2.45-1.55-2.51-3l-0.02-0.53l0.22-0.48l0.45-0.97l0.07-0.16l0.1-0.15
				c6.38-9.39,11.83-19.23,16.19-29.25c4.28-9.84,6.33-18.07,6.09-24.48c-0.27-7.34-3.83-10.62-11.53-10.62l-0.16,0
				c-8.95,0.05-18.42,5.18-28.14,15.22c-9.97,10.3-18.15,22.82-24.32,37.21c-0.73,1.72-1.41,3.41-2.05,5.08
				c-0.38,0.99-0.75,1.98-1.1,2.96c0,0-1.21,3.52-2.18,4.1c-2.27,1.36-2.87,1.77-5.75,2.62l-2.36,0.19l-0.79,0.01l-0.1,0
				c-4.36,0-8.11-1.74-11.15-5.16c-2.97-3.34-4.55-7-4.69-10.9c-0.08-2.12,0.47-3.97,1.63-5.51c1.24-1.64,3.09-2.59,5.52-2.83
				l0.06-0.01l0.06,0c7.59-0.35,13.98-1.93,19.02-4.69c4.97-2.73,8.67-6.1,10.98-10.02c2.3-3.9,3.4-7.94,3.24-12.01
				c-0.17-4.48-1.72-8.19-4.75-11.35c-2.95-3.07-6.76-4.56-11.63-4.56l-0.14,0c-8.37,0.05-17.15,2.65-26.12,7.74
				c-9.07,5.15-17.46,11.66-24.94,19.37c-0.87,1.16-1.88,1.75-2.99,1.76c-1.61,0-2.8-1.09-2.86-2.6l-0.02-0.43l0.15-0.4l0.44-1.21
				l0.11-0.3l0.19-0.25l7.92-10.69c9.9-12.89,17.55-23.7,22.78-32.15c5.05-8.16,7.51-15,7.31-20.34c-0.11-2.99-1.2-7.15-9.37-8.74
				c-1.46-0.28-2.63-0.42-3.45-0.42 M639.65,413.5c2.71-8.32,7.29-16.78,13.62-25.19l0.02-0.03l0.02-0.03
				c1.23-1.54,2.49-2.29,3.87-2.29c0,0,0,0,0,0c1.23,0,2.31,0.41,3.14,1.19c1.07,1.03,1.32,2.11,1.35,2.84
				c0.02,0.57-0.14,1.13-0.65,2.22l-0.09,0.18l-0.12,0.17c-2.72,3.78-5.23,7.83-7.46,12.01c-2.22,4.16-3.84,7.83-4.81,10.9
				l-0.02,0.07l-0.03,0.07c-1.25,3.17-2.97,4.79-5.1,4.8h-0.01l-0.02,0c-1.85,0-3.87-1.19-4-4.52
				C639.34,415.01,639.43,414.2,639.65,413.5z"/>
		</g>
	</g>
</g>
<path class="st0" d="M158.39,248.72c-14.21,0-25.36-3.36-33.13-9.97c-7.82-6.66-11.99-15.52-12.39-26.34
	c-0.41-11.32,2.63-23.61,9.05-36.53c6.43-12.93,15.44-23.9,26.79-32.59c11.27-8.63,23.76-13.05,37.13-13.13l0.36,0
	c10.38,0,18.48,2.74,24.06,8.15c5.65,5.48,8.67,12.37,8.96,20.49c0.2,5.56-0.93,11.22-3.37,16.81c-3.76,8.6-7.93,14.49-12.41,17.49
	c-4.3,2.88-9.86,4.35-16.52,4.35l-0.67,0c-10.19-0.39-15.27-3.69-15.5-10.09c-0.23-6.24,3.99-15.33,12.54-27l0.12-0.2
	c0.47-1.02,0.62-1.5,0.6-1.94c-0.03-0.88-0.41-1.67-1.12-2.35c-0.7-0.66-1.59-1.01-2.59-1.01c-1.18,0.01-2.26,0.67-3.34,2.04
	c-3.45,4.44-6.97,10.25-10.47,17.27c-2.97,5.87-4.39,11.34-4.21,16.25c0.18,4.91,1.86,8.88,5,11.79c3.08,2.86,7.82,4.31,14.08,4.31
	l0.45,0c8.27-0.05,18.28-2.2,29.76-6.39l2.17-0.8l0.35-0.37l0.66-2.13c2.48-7.67,5.78-16.08,9.81-25
	c10.91-24.14,24.31-45.66,39.83-63.97c15.32-18.07,29.15-27.28,41.11-27.35c0.91,0,2.11,0.15,3.61,0.43
	c6.47,1.27,9.7,4.35,9.89,9.43c0.2,5.49-2.28,12.48-7.38,20.77c-5.21,8.48-12.83,19.33-22.68,32.25l-7.88,10.71l-0.07,0.13
	l-0.63,1.61l-0.04,0.23l0.01,0.18c0.03,0.92,0.71,1.91,2.1,1.91c0.92-0.01,1.73-0.51,2.48-1.54c7.45-7.74,15.87-14.33,24.97-19.53
	c9.02-5.15,17.87-7.79,26.32-7.84l0.13,0c7.21,0,10.7,3.52,10.98,11.09c0.25,6.7-1.84,15.42-6.21,25.94
	c-4.4,10.61-9.46,20.45-15.05,29.24c-0.46,0.56-0.49,1.35-0.47,1.88c0.04,1.08,0.63,1.94,1.59,2.3c0.22,0.09,0.47,0.13,0.74,0.13
	c0.52,0,1.17-0.17,2.05-0.53c3.72-1.51,5.98-3.72,8.83-6.52c0.86-0.84,1.75-2.32,2.09-3.43c0.13-0.42,0.26-0.83,0.39-1.24
	c1.43-4.46,3.31-9.03,5.58-13.6c6.43-12.93,15.44-23.9,26.79-32.6c11.27-8.63,23.76-13.05,37.13-13.13l0.37,0
	c10.38,0,18.47,2.7,24.05,8.03c5.64,5.4,8.65,12.25,8.95,20.36c0.25,6.81-1.32,13.5-4.67,19.88c-3.35,6.39-8.33,11.73-14.8,15.89
	c-6.46,4.15-14.16,6.28-22.9,6.33l-0.52,0c-6.12,0-11.25-0.98-15.24-2.92c-0.63-0.28-2.05-0.92-3.43-0.92
	c-1.07,0-1.91,0.37-2.49,1.11c-0.53,0.6-0.56,1.41-0.54,1.97c0.05,1.39,1.1,2.63,3.3,3.9c4.92,2.63,10.93,3.95,17.89,3.95l0.47,0
	c9.33-0.06,20.68-2.43,33.71-7.06l0.98-0.35l1.01-0.37l0.36-0.44c0,0,0.13-0.79,0.18-1.04c0.05-0.25,0.1-0.5,0.15-0.75l0.06-0.29
	c1.42-7.13,4.05-14.58,7.82-22.15c6.43-12.93,15.44-23.9,26.79-32.59c11.27-8.63,23.76-13.05,37.13-13.13l0.37,0
	c10.38,0,18.47,2.7,24.05,8.03c5.64,5.4,8.65,12.25,8.95,20.36c0.25,6.81-1.32,13.5-4.67,19.88c-3.35,6.38-8.33,11.73-14.8,15.88
	c-6.46,4.15-14.16,6.28-22.9,6.33l-0.54,0c-6.1,0-11.23-0.98-15.22-2.92c-0.63-0.28-2.05-0.92-3.43-0.92
	c-1.07,0-1.91,0.37-2.49,1.11c-0.53,0.6-0.56,1.41-0.54,1.97c0.05,1.39,1.1,2.63,3.3,3.9c4.92,2.63,10.98,3.95,18.03,3.95l0.33,0
	c7.75-0.05,16.93-1.7,27.28-4.91l1.09-0.35l0.21-0.12l1.53-1.39l0.13-0.18l0.12-0.27c0.14-0.32,0.27-0.64,0.42-0.95
	c0.69-1.44,1.47-2.8,2.33-4.05c3.74-5.46,8.32-8.13,14.01-8.17l0.17,0c2.29,0,4.14,0.28,5.49,0.82c1.49,0.61,3.29,1.54,5.35,2.76
	c3.04,1.96,6.21,3.61,9.39,4.91c3.19,1.3,7.59,2.45,13.06,3.4l0.18,0.02l0.57,0c2.15-0.01,2.91-1.14,3.17-1.8
	c0.25-0.64,0.56-2.26-1.94-3.47c-10.02-4.06-18.01-8.85-23.8-14.23c-5.63-5.23-8.59-10.85-8.8-16.71c-0.11-3.14,0.54-6.26,1.94-9.28
	c3.58-8.22,9.36-14.32,17.19-18.15c7.96-3.89,18.91-5.9,32.54-5.99l0.88,0c22.04,0,34.07,5.13,35.77,15.24
	c0.06,0.35,0.1,0.7,0.14,1.06c0.03,0.31,0.05,0.62,0.07,0.94l0,0.2l0.95,0.4c0.19-0.17,0.38-0.34,0.57-0.51c0,0,0.92-0.82,1.17-1.03
	c1.49-1.29,2.99-2.52,4.47-3.66c11.27-8.63,23.76-13.05,37.13-13.13l0.37,0c10.38,0,18.47,2.7,24.05,8.03
	c5.64,5.4,8.65,12.25,8.95,20.36c0.25,6.81-1.32,13.49-4.67,19.88c-3.35,6.39-8.33,11.73-14.8,15.89
	c-6.46,4.15-14.16,6.28-22.9,6.33l-0.43,0c-6.18,0-11.33-0.98-15.33-2.91c-0.63-0.28-2.05-0.92-3.43-0.92
	c-1.07,0-1.91,0.37-2.49,1.11c-0.53,0.6-0.56,1.41-0.54,1.97c0.05,1.39,1.1,2.63,3.3,3.9c4.92,2.63,10.95,3.96,17.92,3.96l0.44,0
	c9.33-0.06,20.68-2.43,33.71-7.06l0.98-0.35l1.01-0.37l0.36-0.44c0,0,0.13-0.78,0.18-1.04c0.04-0.25,0.1-0.5,0.15-0.75l0.06-0.3
	c1.42-7.12,4.05-14.58,7.82-22.15c6.43-12.93,15.44-23.9,26.79-32.59c11.27-8.63,23.76-13.05,37.13-13.13l0.36,0
	c10.38,0,18.47,2.74,24.06,8.15c5.65,5.48,8.67,12.37,8.96,20.49c0.2,5.56-0.93,11.22-3.37,16.81c-3.75,8.6-7.93,14.48-12.41,17.48
	c-4.3,2.88-9.86,4.35-16.53,4.35l-0.66,0c-10.19-0.39-15.27-3.69-15.5-10.09c-0.23-6.24,3.99-15.33,12.54-27.01l0.12-0.2
	c0.47-1.02,0.62-1.5,0.6-1.94c-0.03-0.88-0.41-1.67-1.12-2.35c-0.7-0.66-1.6-1.01-2.61-1.01c-1.15,0.01-2.24,0.67-3.32,2.04
	c-3.45,4.43-6.97,10.24-10.47,17.27c-2.97,5.87-4.39,11.34-4.21,16.25c0.18,4.91,1.86,8.88,5,11.79c3.08,2.86,7.83,4.32,14.12,4.32
	l0.41,0c8.29-0.05,18.34-2.21,29.87-6.42l2.12-0.78l0.36-0.38c0,0,0.23-0.82,0.3-1.07l0.31-1.04c1.42-4.72,3.26-9.62,5.45-14.55
	c6.47-14.56,15.25-27.13,26.1-37.35c10.71-10.09,21.99-15.24,33.53-15.31l0.18,0c8.45,0,13.65,3.76,15.87,11.48
	c0.59,1.59,1.39,3.18,2.94,3.18c0.95-0.01,1.88-0.54,3.02-1.73c3.62-4.42,7.29-7.76,10.93-9.95c3.56-2.13,7.51-3.23,11.75-3.26
	l0.17,0c7.91,0,11.88,3.7,12.16,11.32c0.23,6.36-1.83,14.63-6.12,24.59c-4.35,10.08-9.79,20.06-16.16,29.66l-0.65,1.37l-0.05,0.26
	l0.01,0.22c0.04,1.14,0.78,2.02,1.98,2.34c0.25,0.07,0.5,0.1,0.76,0.1c0.57,0,1.07-0.17,1.6-0.35c0.15-0.05,0.31-0.1,0.48-0.15
	c5.13-1.58,8.29-4.63,10.84-7.09l0.65-0.62c0.14-0.14,0.35-0.31,0.58-0.51c0.82-0.69,1.85-1.56,2.14-2.35l0.88-2.32
	c1.83-4.78,3.9-9.72,6.14-14.68c10.91-24.14,24.31-45.66,39.83-63.97c15.32-18.07,29.15-27.28,41.11-27.35
	c0.91,0,2.11,0.15,3.61,0.43c6.47,1.27,9.7,4.35,9.89,9.43c0.2,5.49-2.28,12.48-7.38,20.77c-5.2,8.48-12.83,19.33-22.68,32.25
	l-7.88,10.71l-0.07,0.13l-0.63,1.61l-0.04,0.23l0.01,0.18c0.04,0.95,0.77,1.91,2.1,1.91c0.93-0.01,1.73-0.51,2.48-1.54
	c7.45-7.74,15.87-14.33,24.97-19.53c9.02-5.15,17.87-7.79,26.32-7.84l0.21,0c4.94,0,8.98,1.61,12.02,4.79
	c3.09,3.25,4.75,7.23,4.92,11.83c0.15,4.22-0.96,8.39-3.32,12.42c-2.37,4.04-6.13,7.51-11.19,10.3c-5.1,2.82-11.58,4.43-19.26,4.79
	c-2.23,0.22-3.91,1.08-5.01,2.55c-1.05,1.41-1.55,3.11-1.48,5.07c0.14,3.73,1.65,7.26,4.49,10.47c2.86,3.25,6.44,4.91,10.64,4.93
	l0.33,0l0.11-0.01l0.32-0.06c4.77-0.61,8.96-3.66,10.99-6.4c0.25-0.34,0.58-0.98,0.71-1.42c0.1-0.3,0.39-1.18,0.39-1.18
	s0.28-0.85,0.39-1.16c1.33-3.82,2.99-7.74,4.93-11.64c6.43-12.93,15.45-23.9,26.79-32.59c11.27-8.63,23.76-13.05,37.13-13.13l0.37,0
	c10.38,0,18.47,2.7,24.05,8.03c5.64,5.4,8.65,12.25,8.95,20.36c0.25,6.81-1.32,13.5-4.67,19.88c-3.35,6.38-8.33,11.73-14.8,15.89
	c-6.46,4.15-14.16,6.28-22.9,6.33l-0.58,0c-6.08,0-11.19-0.98-15.19-2.92c-0.62-0.28-2.05-0.92-3.43-0.92
	c-1.07,0-1.91,0.37-2.49,1.11c-0.53,0.6-0.56,1.41-0.54,1.97c0.05,1.39,1.1,2.63,3.3,3.9c4.92,2.63,10.98,3.95,18.03,3.95l0.33,0
	c10.17-0.06,22.67-2.86,37.16-8.32c1.11-0.43,1.98-0.64,2.61-0.65c1.58,0.01,2.71,0.69,3.55,2.14c0.99,1.71,1.55,3.92,1.64,6.56
	c0.24,6.65-2.64,13.2-8.56,19.45c-6.07,6.4-14.08,11.67-23.81,15.66c-9.75,4.01-19.83,6.07-29.95,6.13l-0.56,0
	c-14.2,0-25.34-3.36-33.11-9.97c-3.84-3.27-6.84-7.12-8.9-11.45c-0.12-0.24-0.23-0.49-0.33-0.74l-0.19-0.42
	c-0.09-0.21-0.19-0.42-0.27-0.63l-0.94-0.18c-0.26,0.27-1.25,1.32-1.37,1.44c-4.11,4.18-8.63,8.12-13.43,11.69
	c-9.32,6.94-18.12,10.48-26.18,10.53l-0.32,0c-9.28,0-16.3-2.26-20.88-6.71c-4.65-4.51-7.14-10.6-7.42-18.08
	c-0.2-5.61,0.77-11.67,2.89-18.02c2.14-6.4,5.21-12.64,9.14-18.54c0.62-1.1,0.9-1.99,0.87-2.76c-0.04-1.25-0.94-2.11-2.23-2.16
	c-0.95,0.01-1.89,0.54-2.99,1.68c-2.63,2.74-6.31,9.06-11.23,19.33c-4.8,9.49-9.07,17.35-12.69,23.35
	c-3.57,5.92-7.97,11.21-13.09,15.72c-4.96,4.37-10.39,6.6-16.14,6.64l-0.15,0c-9.02,0-13.84-5.31-14.75-16.23
	c-0.02-0.27-0.04-0.55-0.05-0.83l-0.04-0.68c-0.01-0.19-0.03-0.39-0.03-0.59l0-0.25l-0.95-0.4c-0.29,0.27-0.59,0.54-0.88,0.82
	c-0.17,0.16-0.87,0.78-0.87,0.78c-2.87,2.59-5.83,5-8.8,7.17c-9.48,6.94-18.78,10.49-27.65,10.55l-0.18,0
	c-5.11,0-9.07-1.52-11.77-4.52c-2.79-3.09-4.3-7.49-4.51-13.08c-0.12-3.18-1.43-3.85-2.52-3.85c-0.89,0-2.02,0.4-4.46,3.2
	c-5.01,5.87-10.16,10.49-15.31,13.74c-5.04,3.18-9.75,4.8-13.98,4.83l-0.18,0c-6.61,0-11.58-2.27-15.19-6.95
	c-2.12-2.75-3.72-6.15-4.73-10.11L807.8,227c-0.06-0.23-0.12-0.45-0.17-0.69c-0.05-0.23-0.1-0.47-0.14-0.71l-0.07-0.36l-0.95-0.3
	l-0.31,0.31c-0.16,0.15-0.31,0.31-0.47,0.46c-0.14,0.13-0.3,0.26-0.45,0.4l-0.34,0.3c-5.61,5.02-12.52,9.24-20.56,12.54
	c-9.75,4.01-19.83,6.07-29.96,6.13l-0.42,0c-14.29,0-25.48-3.36-33.25-9.97c-3.53-3.01-6.35-6.52-8.39-10.44
	c-0.15-0.29-0.29-0.57-0.44-0.87c-0.14-0.29-0.28-0.59-0.41-0.89l-0.94-0.14c-0.19,0.21-0.38,0.42-0.58,0.63l-0.45,0.49
	c-0.05,0.05-0.33,0.32-0.33,0.32c-6.04,6.26-13.94,11.42-23.48,15.34c-9.75,4.01-19.83,6.07-29.96,6.13l-0.56,0
	c-14.2,0-25.34-3.36-33.11-9.97c-2.24-1.91-4.23-4.06-5.89-6.38c-0.18-0.25-0.36-0.51-0.54-0.76c-0.18-0.27-0.36-0.54-0.53-0.82
	l-0.93-0.03c-0.16,0.22-0.33,0.44-0.5,0.65l-0.26,0.33c-0.14,0.18-0.28,0.36-0.42,0.53c-3.31,4.01-7.43,7.31-12.24,9.81
	c-8.73,4.53-18.43,6.85-28.83,6.92l-0.67,0c-14.26,0-25.11-3.27-32.23-9.71c-1.93-1.75-3.66-3.65-5.14-5.65l-0.1-0.14
	c-0.15-0.2-0.29-0.39-0.43-0.59c-0.13-0.19-0.26-0.39-0.39-0.58l-0.12-0.18l-0.84-0.12l-0.3,0.27c-0.13,0.12-0.26,0.23-0.4,0.35
	c-0.13,0.11-0.26,0.21-0.39,0.31l-0.32,0.25c-5.14,4.12-11.23,7.64-18.1,10.46c-9.75,4.01-19.83,6.07-29.96,6.13l-0.31,0
	c-14.36,0-25.58-3.36-33.36-9.97c-3.53-3.01-6.35-6.52-8.39-10.44c-0.15-0.29-0.3-0.57-0.44-0.86c-0.14-0.29-0.28-0.59-0.41-0.89
	l-0.94-0.14c-0.19,0.21-0.38,0.42-0.58,0.63l-0.45,0.49l-0.33,0.33c-6.04,6.26-13.94,11.42-23.48,15.34
	c-9.75,4.01-19.83,6.07-29.96,6.13l-0.32,0c-14.36,0-25.58-3.36-33.35-9.97c-3.94-3.35-6.99-7.32-9.05-11.78
	c-0.12-0.27-0.24-0.54-0.36-0.82c-0.16-0.38-0.29-0.69-0.42-1l-0.94-0.18l-1.39,1.46c-4.22,4.33-8.85,8.39-13.76,12.04
	c-9.32,6.94-18.12,10.48-26.18,10.53l-0.34,0c-8.01,0-14.14-1.76-18.21-5.22c-4.08-3.47-6.26-8.26-6.48-14.26
	c-0.22-6.06,1.35-13.24,4.68-21.33c3.37-8.22,7.85-16.78,13.3-25.45c0.63-1.12,0.91-2.03,0.86-2.82c-0.07-1.15-1.08-2.08-2.25-2.08
	c-0.06,0-0.12,0-0.17,0.01c-0.88,0.07-1.76,0.6-2.79,1.67c-1.91,1.99-3.65,4.1-5.15,6.27c-1.48,2.13-3.01,4.54-4.56,7.18
	c-2.25,4.16-4.92,8.62-7.97,13.29l-6.22,9.75c-4.53,7.36-8.54,13.43-11.91,18.03c-3.27,4.45-7.21,8.19-11.7,11.09
	c-4.4,2.85-9.51,4.31-15.19,4.34l-0.14,0c-8.5,0-13.26-4.7-14.54-14.37c-0.05-0.34-0.08-0.69-0.12-1.05
	c-0.04-0.37-0.08-0.74-0.1-1.12l-0.93-0.39c-0.28,0.24-0.57,0.48-0.86,0.71c-0.18,0.14-0.36,0.28-0.54,0.42l-0.3,0.23
	c-5.04,3.95-10.96,7.34-17.6,10.07c-9.75,4.01-19.83,6.07-29.96,6.13L158.39,248.72z M878.68,155.41c-1.13,0.01-2.22,0.68-3.31,2.06
	c-4.05,5.57-7.72,11.61-10.91,17.98c-3.18,6.34-5.7,12.13-7.48,17.22c-0.2,0.66-0.28,1.39-0.25,2.2c0.13,3.57,2.53,3.85,3.26,3.85
	c1.85-0.01,3.29-1.45,4.45-4.39c1.58-4.62,3.93-10.03,6.99-16.11c3.04-6.06,6.51-11.88,10.31-17.32l0.11-0.18
	c0.47-1.01,0.62-1.49,0.6-1.94c-0.03-0.88-0.41-1.67-1.12-2.35C880.62,155.76,879.74,155.42,878.68,155.41L878.68,155.41z
	 M405.25,153.46c-1.13,0.01-2.21,0.68-3.3,2.05c-6.25,8.38-10.77,16.79-13.43,25.01c-0.2,0.65-0.28,1.38-0.25,2.19
	c0.13,3.57,2.53,3.84,3.26,3.84c1.85-0.01,3.29-1.46,4.45-4.42c0.99-3.16,2.61-6.87,4.84-11.08c2.24-4.22,4.75-8.3,7.47-12.11
	l0.11-0.19c0.47-1.02,0.62-1.49,0.6-1.94c-0.03-0.88-0.41-1.67-1.12-2.35c-0.66-0.62-1.53-0.96-2.61-1.01L405.25,153.46z
	 M503.88,152.85c-1.14,0.01-2.22,0.68-3.31,2.05c-6.25,8.38-10.77,16.79-13.44,25.01c-0.19,0.65-0.28,1.38-0.25,2.19
	c0.13,3.57,2.53,3.85,3.27,3.85c1.84-0.01,3.29-1.46,4.45-4.42c0.99-3.16,2.62-6.88,4.84-11.08c2.24-4.22,4.75-8.3,7.47-12.11
	l0.11-0.19c0.47-1.02,0.62-1.49,0.6-1.94c-0.03-0.88-0.41-1.67-1.12-2.35C505.82,153.19,504.93,152.86,503.88,152.85L503.88,152.85z
	 M677.1,151.79c-1.13,0.01-2.22,0.68-3.31,2.05c-6.25,8.38-10.77,16.79-13.44,25.01c-0.19,0.65-0.28,1.38-0.25,2.19
	c0.13,3.57,2.53,3.84,3.26,3.84c1.85-0.01,3.3-1.46,4.45-4.42c0.99-3.15,2.61-6.87,4.84-11.08c2.24-4.22,4.75-8.3,7.47-12.11
	l0.11-0.19c0.47-1.01,0.62-1.49,0.6-1.94c-0.03-0.88-0.41-1.67-1.12-2.35c-0.65-0.62-1.53-0.96-2.61-1.01L677.1,151.79z
	 M591.72,162.73c-1.38,0.01-2.51,0.77-3.12,2.08c-0.87,1.88,0.08,3.16,1.17,3.67c9.38,4.07,16.87,8.52,22.26,13.26
	c0.24,0.21,0.47,0.42,0.7,0.63c0.27,0.24,0.51,0.47,0.75,0.7l0.92-0.21c0.11-0.31,0.23-0.62,0.35-0.93l0.36-0.91
	c1.08-2.74,2.3-5.49,3.64-8.18c0.83-1.67,1.73-3.36,2.69-5.02c0.16-0.27,0.32-0.54,0.48-0.81l0.36-0.61
	c0.14-0.25,0.29-0.5,0.44-0.74l-0.62-0.85l-0.13,0.03c-0.36,0.09-0.73,0.18-1.1,0.26c-0.29,0.06-0.6,0.12-0.9,0.17l-0.27,0.05
	c-2.44,0.44-5.02,0.66-7.67,0.68l-0.4,0c-6.16,0-12.44-1-18.69-2.96l-0.87-0.28l-0.17-0.03L591.72,162.73z M1115.62,149.12
	c-1.14,0.01-2.22,0.68-3.31,2.05c-6.26,8.38-10.77,16.79-13.43,25.01c-0.2,0.65-0.28,1.38-0.25,2.19c0.13,3.57,2.53,3.84,3.26,3.84
	c1.85-0.01,3.3-1.46,4.45-4.42c0.99-3.16,2.62-6.88,4.84-11.08c2.24-4.22,4.75-8.3,7.47-12.11l0.11-0.19
	c0.47-1.02,0.62-1.5,0.6-1.94c-0.03-0.88-0.41-1.67-1.12-2.35c-0.7-0.66-1.6-1.01-2.61-1.01H1115.62z"/>
<g>
	<g>
		<path class="st1" d="M363.42,82.59c4.5,0,9.05,1.38,9.05,6.47c0,3.36-2.09,6.42-5.91,6.42c-1.05,0-1.41,0-1.41-1.02
			s1.41-2.04,1.41-3.36c0-2.04-2.09-2.39-3.87-2.39c-8.69,0-15.7,8.51-15.7,16.66c0,4.74,3.14,7.79,8.06,7.79
			c3.45,0,6.59-3.41,9.05-3.41c1.41,0,1.73,1.73,1.73,2.75c0,5.4-7.64,7.44-11.82,7.44c-8.37,0-14.34-5.4-14.34-13.55
			C339.66,93.79,350.49,82.59,363.42,82.59z"/>
		<path class="st1" d="M379.64,103.62c0-1.32-1.05-3.06-2.77-3.06c-2.46,0-2.09,3.41-4.19,3.41c-1.05,0-1.41-0.66-1.41-1.68
			c0-0.71,2.09-10.54,3.14-10.9c0.37,0,1.41,0,1.78,0c1.36,0,2.09,0,3.14,1.02c-0.73,8.15,8.69,4.07,8.69,7.84
			c0,3.72-4.19,7.13-4.19,11.21c0,1.02,0.37,1.32,1.41,1.32c4.19,0,5.91-8.46,8.74-8.46c0.68,0,1.36,0.31,1.36,1.32
			c0,5.09-8.01,13.96-13.6,13.96c-3.14,0-5.55-2.75-5.55-5.81C376.19,110.09,379.64,107.04,379.64,103.62z"/>
		<path class="st1" d="M407.06,94.46c2.77,0,6.28,1.02,6.28,4.43c0,6.47-7.32,9.83-12.56,11.21c-0.73,0.36-0.73,0.36-0.73,1.02
			c0,1.68,2.83,2.04,4.19,2.04c7.33,0,12.24-8.81,14.65-8.81c0.99,0,1.41,0.36,1.41,1.32c-3.51,7.49-9.42,14.26-18.16,14.26
			c-5.91,0-10.46-3.36-10.46-9.17C391.68,102.3,398.32,94.46,407.06,94.46z M400.05,107.39c2.83,0,7.01-3.77,7.01-6.47
			c0-1.02-1.05-1.38-2.09-1.38c-3.14,0-5.96,3.41-5.96,6.11C399,106.68,399,107.39,400.05,107.39z"/>
		<path class="st1" d="M415.8,111.47c0-7.84,6.28-17.01,15.02-17.01c1.73,0,3.45,0.71,5.23,0.71c1.05,0,1.73-0.71,2.77-0.71
			c1.41,0,3.51,1.38,3.51,2.75c0,4.38-4.55,8.46-4.55,13.24c0,1.68,0.68,2.34,2.46,2.34c4.5,0,5.55-8.46,8.69-8.46
			c0.73,0,1.41,0.31,1.41,1.02c0,5.09-7.69,14.26-13.24,14.26c-3.87,0-4.55-4.43-6.28-4.43c-0.37,0-0.73,0-0.73,0
			c-2.09,2.04-4.5,4.74-7.64,4.74c-3.51,0-5.96-2.34-6.65-5.4C415.8,114.17,415.8,112.13,415.8,111.47z M425.22,113.15
			c4.87,0,9.42-7.79,9.42-11.87c0-1.73-1.73-2.04-3.14-2.04c-5.6,0-9.05,6.11-9.05,10.85C422.45,111.77,423.49,113.15,425.22,113.15
			z"/>
		<path class="st1" d="M477.39,101.59c0-1.02,0-1.32-0.68-1.32c-2.83,0-5.23,4.74-6.28,6.42c-0.26,0.41-0.79,1.27-1.41,2.34
			l-4.45,7.23c-0.68,1.07-1.2,1.88-1.46,2.34c-0.73,0.66-1.05,1.02-2.09,1.02c-1.41,0-3.51-0.71-3.51-2.39
			c0-5.45,5.91-10.19,5.91-15.94c0-0.71-0.31-1.38-1.05-1.38c-2.41,0-6.59,6.77-7.33,8.15c-1.05,1.38-5.23,8.51-6.28,10.19
			c-0.68,1.38-1.05,1.38-2.09,1.38c-1.36,0-3.45-0.71-3.45-2.39c0-2.39,1.73-5.45,2.41-7.13c0.73-2.39,4.92-12.58,5.6-14.92
			c0.37-1.02,1.41-1.73,2.46-1.73s3.45,0.71,3.45,2.04c0,2.04-1.36,4.08-1.73,5.81c0,0,0,0,0,0.31l0.37,0.36
			c2.41,0,5.91-7.79,10.46-7.79c5.23,0,4.5,5.76,5.91,5.76c2.09-2.04,5.23-5.76,9.05-5.76c2.46,0,4.19,1.68,4.19,4.07
			c0,4.74-4.87,8.15-4.87,12.89c0,1.02,1.05,2.04,2.09,2.04c4.87,0,5.91-8.81,9.42-8.81c1.31,0,1.41,0.61,1.41,1.68
			c-2.46,5.76-8.06,14.26-15.38,14.26c-3.14,0-5.23-2.04-5.23-5.09C472.84,110.09,477.39,106.02,477.39,101.59z"/>
		<g>
			<path class="st1" d="M364.58,94.46c0,1.59,0.96,1.59,1.98,1.59c4.25,0,6.48-3.51,6.48-6.98c0-4.54-3.42-7.03-9.62-7.03
				c-12.96,0-24.32,11.38-24.32,24.35c0,8.31,6.13,14.12,14.9,14.12c4.04,0,12.39-1.96,12.39-8c0-1.53-0.6-3.32-2.29-3.32
				c-1.27,0-2.62,0.76-4.05,1.56c-1.61,0.91-3.28,1.85-5,1.85c-4.62,0-7.49-2.77-7.49-7.23c0-9.21,7.99-16.09,15.13-16.09
				c2.96,0,3.3,1.04,3.3,1.83c0,0.54-0.35,1.07-0.68,1.59C364.95,93.24,364.58,93.81,364.58,94.46z"/>
			<path class="st1" d="M519.04,103.77h-0.68l-0.39,0.16l-6.48,6.26h-0.24c0.12-3.02,1.16-5.02,2.58-7.74
				c0.7-1.34,1.49-2.86,2.28-4.72l0.04-0.22v-1.02c0-1.89-2.1-2.91-4.07-2.91c-0.71,0-1.77,0-2.2,0.92
				c-0.25,0.39-0.77,1.21-1.51,2.22l-4.65,6.71c-0.74,1.03-1.28,1.86-1.57,2.32c-0.93,1.87-4.22,6.46-6.14,6.46
				c-0.35,0-0.48-0.46-0.48-0.76c0-0.58,0.33-1.41,0.62-2.14c0.15-0.39,0.3-0.77,0.38-1.04c0.83-1.92,3.88-8.83,4.54-10.16
				l0.06-0.25v-1.02c0-1.83-1.42-2.96-3.71-2.96c-1.99,0-2.88,0.5-3.65,2.06c-0.74,1.61-2.41,5.46-3.79,8.72
				c-0.86,0.79-1.58,1.99-2.32,3.25c-1.35,2.29-2.74,4.67-5.05,4.67c-0.73,0-1.53-0.77-1.53-1.47c0-2.21,1.14-4.13,2.35-6.15
				c1.24-2.07,2.51-4.21,2.51-6.73c0-2.69-2-4.64-4.75-4.64c-3.58,0-6.5,2.95-8.63,5.1c-0.17,0.17-0.34,0.34-0.5,0.51
				c-0.13-0.24-0.28-0.68-0.4-1.03c-0.59-1.71-1.58-4.58-5.43-4.58c-2.89,0-5.32,2.78-7.27,5.01c-1.1,1.25-2.23,2.55-2.99,2.76v0
				c0.14-0.61,0.41-1.28,0.7-1.99c0.48-1.18,1.03-2.52,1.03-3.87c0-1.83-2.88-2.6-4.02-2.6c-1.3,0-2.55,0.89-3,2.14
				c-0.35,1.19-1.64,4.52-2.9,7.75c-0.25,0.63-0.49,1.25-0.72,1.85c-0.79,0.75-1.46,1.9-2.14,3.11c-1.26,2.22-2.56,4.51-4.68,4.51
				c-1.47,0-1.89-0.4-1.89-1.78c0-2.31,1.16-4.52,2.29-6.65c1.11-2.12,2.27-4.31,2.27-6.59c0-1.8-2.5-3.32-4.07-3.32
				c-0.64,0-1.15,0.21-1.6,0.4c-0.41,0.17-0.76,0.31-1.17,0.31c-0.84,0-1.67-0.17-2.54-0.35c-0.87-0.18-1.78-0.36-2.69-0.36
				c-6.64,0-12.02,5.14-14.34,11.19c-0.49,0.43-1.02,0.94-1.61,1.51c-2.62,2.53-6.2,6-10.63,6c-1.4,0-3.62-0.4-3.62-1.47
				c0-0.13,0-0.28-0.03-0.28c0,0,0,0-0.01,0c0.04-0.04,0.22-0.12,0.4-0.21c3.93-1.04,12.93-4.24,12.93-11.74c0-3.69-3.54-5-6.85-5
				c-6.57,0-12.36,4.46-14.76,10.62c-0.8,0.71-1.51,1.87-2.29,3.14c-1.31,2.14-2.8,4.58-4.77,4.58c-0.79,0-0.85-0.1-0.85-0.76
				c0-1.93,1.06-3.79,2.09-5.58c1.03-1.8,2.1-3.66,2.1-5.63c0-2-2.01-2.32-3.79-2.61c-2.6-0.42-5.29-0.85-4.9-5.18l-0.17-0.46
				c-1.21-1.18-2.14-1.18-3.53-1.18h-1.78l-0.18,0.03c-1.65,0.56-3.52,11.33-3.52,11.44c0,1.96,1.24,2.25,1.98,2.25
				c1.34,0,1.92-1.05,2.39-1.89c0.52-0.94,0.89-1.52,1.79-1.52c1.37,0,2.21,1.45,2.21,2.49c0,1.53-0.78,3.03-1.61,4.61
				c-0.91,1.74-1.85,3.54-1.85,5.58c0,3.51,2.74,6.37,6.11,6.37c3.22,0,7.08-2.7,9.96-6.01c1.4,3.88,5.24,6.32,10.44,6.32
				c4.88,0,9.35-2.13,13.09-6.12v0.15l0.01,0.12c0.79,3.55,3.62,5.84,7.2,5.84c3.08,0,5.4-2.29,7.44-4.32l0.43-0.42h0.5
				c0.4,0,0.88,0.65,1.39,1.33c0.96,1.31,2.28,3.1,4.89,3.1c1.78,0,3.76-0.89,5.66-2.27c0.46,1.56,2.45,2.27,3.92,2.27
				c1.19,0,1.8-0.07,2.57-1.64c0.31-0.49,0.89-1.46,1.58-2.61c1.57-2.62,3.95-6.59,4.72-7.61c1.15-2.16,4.99-7.85,6.82-7.85
				c0.43,0,0.48,0.56,0.48,0.81c0,2.77-1.5,5.38-2.94,7.91c-1.46,2.55-2.97,5.19-2.97,8.03c0,2.16,2.5,2.96,4.07,2.96
				c1.19,0,1.67-0.43,2.33-1.03l0.14-0.13l0.11-0.14c0.23-0.4,0.66-1.08,1.22-1.96l0.23-0.37l4.45-7.24
				c0.62-1.06,1.14-1.92,1.4-2.33c0.13-0.21,0.28-0.46,0.45-0.74c1.12-1.89,3.19-5.41,5.35-5.41c0.04,0,0.07,0,0.09,0
				c0.02,0.15,0.02,0.47,0.02,0.75c0,2-1.02,3.97-2.09,6.06c-1.21,2.34-2.46,4.77-2.46,7.54c0,3.39,2.33,5.66,5.8,5.66
				c3.78,0,6.96-2.06,9.47-4.65c0.84,2.02,2.77,3.27,5.34,3.27c3.12,0,5.85-2.69,7.66-4.48l0.12-0.12c-0.37,4.78-4.56,6.3-8.98,7.92
				c-4.47,1.63-9.1,3.32-9.1,8.69c0,3.6,2.23,5.66,6.11,5.66c6.76,0,9.8-4.96,12.75-9.75c1.21-1.97,2.35-3.83,3.75-5.38
				c1-1.2,3.1-2.84,5.32-4.57c4.92-3.84,10.5-8.2,10.5-12.09C521.02,104.41,520.23,103.77,519.04,103.77z M399.57,105.66
				c0-2.42,2.62-5.54,5.4-5.54c0.36,0,1.53,0.06,1.53,0.81c0,2.32-3.92,5.9-6.44,5.9C399.64,106.83,399.57,106.83,399.57,105.66z
				 M425.22,112.58c-1.52,0-2.21-1.25-2.21-2.49c0-4.2,3.02-10.28,8.48-10.28c2.57,0,2.57,1.07,2.57,1.47
				C434.07,105.33,429.61,112.58,425.22,112.58z M490.79,129.54c-0.7,0-0.79-0.36-0.79-0.76c0-0.39,0.86-0.84,3.27-0.84
				c0.26,0,0.5,0,0.71,0.01C493.57,128.91,492.11,129.54,490.79,129.54z"/>
		</g>
		<path class="st1" d="M501.25,114.17h-0.68c-1.73,1.68-4.55,4.74-7.69,4.74c-3.14,0-5.23-2.04-5.23-5.09c0-2.04,0-1.68,0.73-3.72
			c0.31-1.02,4.5-10.85,5.91-13.91c0.68-1.38,1.41-1.73,3.14-1.73s3.14,0.71,3.14,2.39c0,0.36,0,1.02,0,1.02
			c-0.68,1.38-3.82,8.51-4.55,10.19c-0.31,1.02-1.05,2.39-1.05,3.41c0,0.66,0.37,1.32,1.05,1.32c2.46,0,5.96-5.4,6.64-6.77
			c0.26-0.41,0.79-1.22,1.52-2.24l4.66-6.72c0.73-1.02,1.26-1.83,1.52-2.24c0.31-0.66,1.05-0.66,1.73-0.66
			c1.41,0,3.51,0.66,3.51,2.34c0,0.36,0,1.02,0,1.02c-2.46,5.81-4.92,8.15-4.92,13.24h1.05l6.65-6.42c0,0,0.37,0,0.68,0
			c0.73,0,1.41,0.31,1.41,1.02c0,5.4-12.56,12.53-15.7,16.3c-4.87,5.4-6.96,14.92-16.06,14.92c-3.45,0-5.55-1.68-5.55-5.09
			C483.15,121.3,501.25,125.37,501.25,114.17z M490.79,130.11c1.78,0,3.87-1.02,3.87-2.7c-0.73,0-5.23-0.36-5.23,1.38
			C489.43,129.8,490.11,130.11,490.79,130.11z"/>
	</g>
</g>
<g>
	<path class="st0" d="M404.12,525.84L404.12,525.84c3.03,2.75,7.5,4.14,13.27,4.14c7.2,0,12.8-1.6,16.62-4.77
		c3.8-3.14,5.65-6.78,5.65-11.12c0-3.88-1.55-7.19-4.75-10.1c-3.19-2.9-7.73-4.37-13.5-4.37c-6.88,0-12.3,1.68-16.12,4.99
		c-3.82,3.3-5.67,7.02-5.67,11.37C399.6,519.87,401.08,523.1,404.12,525.84z"/>
	<path class="st0" d="M412.57,596.63c-3.98,3.65-5.57,4.55-8.35,7.06c-1.02,0.92-4.54,1.71-6.09,1.7c-1.29-0.01-2.57-1.18-2.67-2.47
		c-0.14-1.85,1.13-3.47,2.3-4.91c10.98-13.54,18.47-29.88,21.54-47.03c0.34-1.89,0.35-3.83-0.06-5.71
		c-1.94-8.79-10.64-9.01-17.27-7.01c-17.6,5.3-29.56,21.19-40.07,36.26c3.07-6.19,6.21-12.63,6.46-19.54
		c0.25-6.91-3.21-14.46-9.74-16.73c-3.79-1.32-7.96-0.7-11.86,0.26c-17.25,4.26-32.75,15.22-42.52,30.06
		c4.71-9.71,8.43-23.56-0.59-29.49c-6.9-4.53-16.11-0.38-22.76,4.51c-15.14,11.13-27.35,26.21-35.09,43.34
		c-2.17,4.81-4.08,9.91-7.72,13.73c-3.64,3.82-9.65,6.02-14.31,3.54c16.37-29.42,32.74-58.83,49.11-88.25
		c3.72-6.69,7.43-15.13,3.25-21.54c-6.06-9.29-20.61-3.99-29.18,3.05c-18.27,15.01-33.02,34.28-42.74,55.83
		c-2.48-10.42-14.37-16.52-25.04-15.52s-20.06,7.45-27.9,14.75c-17.51,16.29-29.96,37.95-35.23,61.28
		c-1.85,8.19-2.8,16.92-0.03,24.84c2.76,7.92,10.09,14.74,18.48,14.61c5.53-0.09,10.58-3.05,15.1-6.23
		c10.34-7.27,19.5-16.21,27.03-26.37c1.56,6-0.05,12.51,1.74,18.44c3.29,10.86,17.14,15.45,28.11,12.54s19.62-11.13,27.75-19.05
		c-3.16,8.2,3.79,17.81,12.39,19.57c8.61,1.77,17.52-2.64,23.6-8.97s9.96-14.42,14.06-22.19c6.33-11.99,13.45-23.57,21.28-34.64
		c1.99-2.82,8.02-4.11,7.24-0.75c-3.05,4.53-6.19,9.27-6.96,14.68c-0.77,5.41,1.61,11.69,6.74,13.58c2.44,0.9,5.15,0.71,7.7,0.21
		c16.06-3.16,27.32-17.22,37.12-30.32c-8.39,12.82-12.92,28.13-12.85,43.45c0.02,5.11,0.6,10.39,3.08,14.86
		c5.55,9.98,19.27,12.87,30.19,9.55c10.92-3.32,19.7-11.32,28.07-19.09c-5.48,9.66,7.58,21.24,18.45,18.94
		c10.87-2.3,18.16-12.21,24.41-21.4c9.51-13.98,17.35-29.27,28.54-41.95c1.52-1.72,2.84-2.98,4.62-3.79c2.46-1.13,4.62,2,2.72,3.93
		c-10.19,10.4-17.05,24.04-19.23,38.44c-0.67,4.45-0.9,9.11,0.59,13.36c3.71,10.62,17.16,15.09,28.12,12.58
		c10.96-2.51,19.95-10.1,28.47-17.45c-4.19,9.56,8.52,19.43,18.66,16.96c10.14-2.47,16.87-11.79,22.69-20.46
		c10.11-15.05,20.22-30.11,30.33-45.16c-2.91,8.85-5.82,17.7-8.73,26.54c-2.73,8.29-5.45,17.38-2.38,25.55
		c4.17,11.09,17.98,16.02,29.64,13.92c11.66-2.1,21.59-9.48,30.89-16.84c17.39,19.15,49.26,22.92,70.64,8.37
		c13.58-9.24,22.71-26.99,17.08-42.42c-4.82-13.2-18.33-20.78-30.81-27.23c5.6,0.1,11.19,0.2,16.79,0.29
		c9.77,0.17,20,0.25,28.14-6.37c3.93-3.2,6.31-8.05,5.95-13.11c-0.84-12.09-15.53-16.44-27.31-17.33
		c-16.11-1.21-33.6-0.69-46.55,8.98c-12.95,9.67-17.47,31.57-4.91,41.74c7.57,6.13,19.49,6.99,24.27,15.47
		c-10.64,4.81-20.86-8.53-32.46-9.86c-7.98-0.91-15.38,4.02-23.29,5.42c-8.79,1.56-20.86-5.89-14.43-14.67
		c1.74-2.37,4.44-3.83,7.34-4.31c12.45-2.06,26.57-7.29,31.26-20.35c2.12-5.91,1.25-12.6-2.92-17.28
		c-6.37-7.15-16.32-5.71-24.66-3.07c-16.19,5.13-31.17,14.03-43.41,25.81c11.03-16.01,22.07-32.02,33.1-48.03
		c4.82-7,9.72-16.36,4.93-23.38c-5.98-8.76-19.72-4.19-28.35,1.98c-23.6,16.85-42.88,39.72-55.51,65.83
		c-7.82,16.16-14.93,35.36-30.82,42.77c-0.82,0.38-1.61-0.54-1.11-1.29c8.79-13.17,15.86-27.49,20.98-42.48
		c2.68-7.85,4.39-17.89-4.14-22.45c-2.36-1.26-5.07-1.7-7.74-1.57c-20.33,0.96-35.62,16.49-49.17,31.08
		c4.68-9.06,8.76-21.64,0.92-28.16c-7.17-5.96-18.03-1.2-25.39,4.52c-8.17,6.35-15.5,13.78-21.77,22.02
		c-6.48,8.51-10.79,17.66-15.56,27.13c-0.54,1.07-1.06,1.44-1.06,1.44l-0.6,0.85 M190.96,571.44l-0.12,0.2
		c-3.89,5.29-7.48,10.96-10.65,16.86c-3.19,5.91-5.67,11.19-7.37,15.67c-0.46,1.08-1.79,4.19-4.35,4.19c-0.71,0-3.02-0.27-3.02-3.73
		c0-0.78,0.1-1.48,0.31-2.09c1.93-4.98,4.58-10.6,7.89-16.76c3.33-6.19,7.11-12.05,11.23-17.44c1.11-1.33,2.15-1.96,3.22-1.96
		c0.98,0,1.85,0.34,2.5,0.99c0.83,0.83,1,1.69,1,2.27C191.58,570.06,191.42,570.52,190.96,571.44z"/>
	<path class="st0" d="M664.2,568.24L664.2,568.24c-0.03,0.04-0.06,0.09-0.09,0.13L664.2,568.24z"/>
	<path class="st0" d="M669.26,592.77l-0.05-0.02c0,0,0.01,0.01,0.01,0.01c0.02,0.01,0.03,0.02,0.05,0.03L669.26,592.77z"/>
</g>
<g>
	<path class="st1" d="M210.99,310.84v-1.01c0-2-2.25-3.23-4.34-3.23c-2.27,0-3.43,2.31-4.13,3.69l-0.1,0.22
		c-0.41,0.57-1.34,2.39-2.31,4.3c-0.76,1.49-1.54,3.02-1.81,3.42c-0.45,0.56-1.08,1.09-1.31,1.09h-8.7
		c-0.02-0.12-0.04-0.29-0.04-0.44c0-0.71,0.1-0.91,0.38-1.46c0.16-0.31,0.36-0.7,0.59-1.3c0.15-0.24,0.36-0.67,0.51-1l1.77-3.35
		c0.24-0.52,0.41-0.84,0.47-0.92l0.1-0.32v-0.35c0-2.07-3.09-3.59-4.7-3.59c-1.27,0-1.77,0.49-2.46,1.17l-0.1,0.13
		c-4.66,8.33-12.48,23.55-12.48,31.82c0,2.29,2.31,4.89,4.34,4.89c2.22,0,3.27-3.87,4.49-8.34c0.98-3.6,2.09-7.67,3.76-8.88
		c1.11-0.83,3.49-0.92,5.19-0.92c0.5,0,0.98,0.01,1.42,0.02c0.38,0.01,0.72,0.01,1.02,0.01c1.5,0,1.5,0.2,1.5,1.14
		c0,1.86-0.71,3.67-1.46,5.57c-0.81,2.04-1.64,4.16-1.64,6.5c0,2.33,2.62,4.89,5.01,4.89c1.02,0,1.48-0.5,1.9-1.31l0.04-0.11
		c2.95-10.53,7.22-21.03,13.04-32.09L210.99,310.84z"/>
	<path class="st1" d="M428.26,328.09c-1.1,0-2.3,1.17-3.98,2.78c-2.59,2.5-6.13,5.92-10.5,5.92c-1.38,0-3.57-0.39-3.57-1.44
		c0-0.13,0-0.27-0.03-0.27c0,0,0,0-0.01,0c0.04-0.04,0.21-0.12,0.39-0.21c3.89-1.03,12.78-4.2,12.78-11.6c0-3.65-3.5-4.94-6.77-4.94
		c-6.5,0-12.23,4.42-14.6,10.52c-0.86,0.74-1.54,1.93-2.25,3.17c-1.24,2.17-2.53,4.42-4.81,4.42c-1.42,0-1.5-0.08-1.5-1.45
		c0-4.53,2.5-9.07,4.92-13.46c2.49-4.51,5.06-9.18,5.06-14.01c0-2.19-3.53-3.59-5.01-3.59c-1.21,0-2.12,1.02-2.6,2.03l-4.5,12.07
		l-0.01,0.06c-0.15,0.24-0.99,0.87-1.16,0.93c-0.82,0-1.54-0.16-2.3-0.34c-0.79-0.18-1.61-0.37-2.56-0.37
		c-6.46,0-11.85,4.98-14.3,10.8c-0.69,0.74-1.29,1.78-1.91,2.86c-1.24,2.19-2.53,4.45-4.62,4.45c-1.45,0-1.86-0.39-1.86-1.75
		c0-2.28,1.15-4.46,2.26-6.57c1.1-2.09,2.24-4.25,2.24-6.51c0-1.78-2.48-3.28-4.03-3.28c-0.63,0-1.14,0.21-1.59,0.4
		c-0.4,0.17-0.75,0.31-1.15,0.31c-0.83,0-1.64-0.17-2.51-0.34c-0.86-0.18-1.76-0.36-2.66-0.36c-6.46,0-11.71,4.93-14.06,10.78
		c-0.79,0.78-1.46,1.9-2.15,3.07c-1.33,2.26-2.71,4.6-4.98,4.6c-0.72,0-1.5-0.76-1.5-1.44c0-2.18,1.13-4.07,2.32-6.07
		c1.22-2.04,2.49-4.16,2.49-6.65c0-2.66-1.98-4.59-4.7-4.59c-3.54,0-6.42,2.91-8.53,5.04c-0.17,0.17-0.33,0.34-0.49,0.49
		c-0.13-0.24-0.28-0.67-0.39-1c-0.58-1.69-1.56-4.53-5.37-4.53c-2.86,0-5.26,2.74-7.19,4.95c-1.08,1.23-2.19,2.51-2.94,2.72
		c0.14-0.6,0.41-1.26,0.69-1.96c0.48-1.17,1.01-2.49,1.01-3.83c0-1.81-2.85-2.58-3.98-2.58c-1.28,0-2.53,0.88-2.98,2.12
		c-0.34,1.18-1.62,4.47-2.87,7.66c-0.21,0.53-0.41,1.04-0.6,1.55c-1.01,0.69-1.96,1.93-3.01,3.31c-1.72,2.27-3.67,4.84-6.05,4.84
		c-0.53,0-1.2-0.1-1.5-0.58v-1.21c0-1.92,3.07-11.05,4.89-12.24c0.51-0.3,1.47-0.35,2.39-0.39c1.72-0.09,4.09-0.2,4.09-2.46
		c0-1.51-1.16-2.23-2.09-2.81c-0.85-0.53-1.37-0.89-1.37-1.51c0-0.6,0.15-1.14,0.31-1.71c0.18-0.62,0.36-1.26,0.36-2.02
		c0-2.34-2.91-3.59-5.01-3.59c-2.35,0-3.45,3.78-4.05,5.82c-0.1,0.36-0.22,0.77-0.31,0.93c-0.35,0.9-1.18,1.1-2.51,1.32
		c-1.34,0.22-3,0.5-3,2.56c0,1.02,0.58,1.73,1.1,2.36c0.52,0.63,0.97,1.17,0.97,2.02c0,1.81-0.66,3.58-1.46,5.42
		c-0.85,0.69-1.59,1.9-2.41,3.23c-1.29,2.12-2.76,4.52-4.71,4.52c-0.77,0-0.83-0.1-0.83-0.74c0-1.91,1.05-3.74,2.06-5.51
		c1.02-1.78,2.07-3.61,2.07-5.56c0-1.98-1.99-2.3-3.75-2.58c-2.68-0.43-5.22-0.84-4.84-5.11l-0.17-0.46
		c-1.2-1.17-2.11-1.17-3.5-1.17h-1.76l-0.18,0.03c-1.63,0.56-3.49,11.2-3.49,11.3c0,0.69,0.16,1.16,0.39,1.49
		c-1.55,0.23-2.56,1.98-3.63,3.86c-1.24,2.19-2.53,4.45-4.62,4.45c-1.45,0-1.86-0.39-1.86-1.75c0-2.28,1.15-4.46,2.26-6.57
		c1.1-2.09,2.24-4.25,2.24-6.51c0-1.78-2.48-3.28-4.03-3.28c-0.63,0-1.14,0.21-1.58,0.4c-0.4,0.17-0.75,0.31-1.15,0.31
		c-0.83,0-1.64-0.17-2.51-0.34c-0.86-0.18-1.76-0.36-2.66-0.36c-6.56,0-11.88,5.08-14.18,11.06c-0.48,0.42-1,0.92-1.58,1.48
		c-2.59,2.5-6.13,5.92-10.5,5.92c-1.38,0-3.57-0.39-3.57-1.44c0-0.13,0-0.27-0.03-0.27c0,0,0,0-0.01,0
		c0.04-0.04,0.21-0.12,0.39-0.21c3.89-1.03,12.78-4.2,12.78-11.6c0-3.65-3.5-4.94-6.77-4.94c-8.55,0-15.77,7.63-15.77,16.67
		c0,5.76,4.38,9.62,10.91,9.62c4.82,0,9.23-2.1,12.92-6.03v0.13l0.01,0.12c0.78,3.51,3.58,5.78,7.12,5.78
		c3.04,0,5.33-2.26,7.36-4.26l0.42-0.42h0.49c0.4,0,0.87,0.64,1.36,1.31c0.95,1.29,2.26,3.06,4.84,3.06
		c5.76,0,13.65-9.35,13.65-14.65c0-0.32-0.1-0.6-0.26-0.84c1.01-0.21,1.5-1.1,1.91-1.83c0.52-0.93,0.88-1.5,1.76-1.5
		c1.35,0,2.17,1.43,2.17,2.45c0,1.51-0.77,2.99-1.59,4.55c-0.9,1.72-1.83,3.5-1.83,5.51c0,3.48,2.71,6.3,6.05,6.3
		c2.65,0,5.74-1.85,8.34-4.35c0.92,2.65,3.27,4.35,6.34,4.35c2.99,0,5.55-1.04,7.74-2.66c0.2,1.83,2.37,2.66,3.94,2.66
		c1.18,0,1.78-0.07,2.55-1.63c0.3-0.49,0.88-1.44,1.56-2.58c1.55-2.59,3.9-6.5,4.66-7.51c1.14-2.13,4.93-7.75,6.74-7.75
		c0.42,0,0.47,0.55,0.47,0.79c0,2.73-1.48,5.31-2.91,7.81c-1.44,2.52-2.94,5.13-2.94,7.94c0,2.14,2.47,2.93,4.03,2.93
		c1.18,0,1.65-0.43,2.3-1.02l0.14-0.13l0.11-0.14c0.23-0.4,0.66-1.08,1.22-1.96l0.22-0.34l4.4-7.15c0.61-1.05,1.13-1.89,1.39-2.3
		c0.13-0.2,0.27-0.45,0.44-0.73c1.1-1.87,3.15-5.34,5.28-5.34c0.03,0,0.06,0,0.08,0c0.02,0.15,0.02,0.46,0.02,0.74
		c0,1.97-1,3.92-2.07,5.98c-1.19,2.31-2.43,4.71-2.43,7.45c0,3.35,2.31,5.6,5.74,5.6c4.29,0,7.8-2.67,10.42-5.75
		c0.9,3.29,3.59,5.4,7,5.4c3.05,0,5.34-2.27,7.36-4.27l0.42-0.41h0.49c0.4,0,0.87,0.64,1.36,1.31c0.95,1.29,2.26,3.06,4.84,3.06
		c2.8,0,6.09-2.21,8.75-5.09c0.92,2.97,3.06,5.39,6.61,5.39c3.25,0,5.66-2.26,7.78-4.33h0.49c0.46,0,1.07,0.64,1.71,1.32
		c1.14,1.2,2.56,2.7,4.8,2.7c3.43,0,7.22-2.56,9.99-5.79c1.43,3.75,5.2,6.09,10.27,6.09c7.55,0,14.1-5.12,18.45-14.41l0.05-0.24
		C430.23,328.7,429.58,328.09,428.26,328.09z M416.01,325.28c0,2.29-3.86,5.82-6.36,5.82c-0.41,0-0.47,0-0.47-1.14
		c0-2.39,2.58-5.47,5.33-5.47C414.87,324.49,416.01,324.55,416.01,325.28z M377.55,334.34c0-4.24,3.21-10.15,8.43-10.15
		c1.91,0,2.17,0.69,2.17,1.45c0,3.88-4.63,11.15-8.74,11.15C377.94,336.79,377.55,335.19,377.55,334.34z M347.41,334.34
		c0-4.15,2.98-10.15,8.38-10.15c2.53,0,2.53,1.05,2.53,1.45c0,4-4.4,11.15-8.74,11.15C348.08,336.79,347.41,335.56,347.41,334.34z
		 M236.27,334.34c0-4.15,2.98-10.15,8.38-10.15c2.54,0,2.54,1.05,2.54,1.45c0,4-4.4,11.15-8.74,11.15
		C236.94,336.79,236.27,335.56,236.27,334.34z M219.94,325.28c0,2.29-3.86,5.82-6.36,5.82c-0.41,0-0.47,0-0.47-1.14
		c0-2.39,2.58-5.47,5.33-5.47C218.79,324.49,219.94,324.55,219.94,325.28z"/>
</g>
</svg>
