<svg width="141" height="147" viewBox="0 0 141 147" fill="none" xmlns="http://www.w3.org/2000/svg">
<path d="M107.433 133.834C104.923 133.234 101.213 132.504 97.6033 131.444C92.0633 129.804 87.5233 130.764 83.9733 135.624C82.0633 138.244 79.8833 140.674 77.7133 143.094C73.7833 147.454 68.3233 147.624 64.2333 143.404C61.5333 140.624 59.0633 137.614 56.5533 134.664C53.9333 131.574 50.6633 130.384 46.7233 131.264C42.9333 132.114 39.1833 133.154 35.3933 134.004C29.0433 135.424 24.3433 131.944 23.8133 125.474C23.5533 122.344 23.2733 119.204 23.1433 116.064C22.9233 110.564 20.1433 107.154 14.9733 105.394C11.9933 104.384 9.09328 103.144 6.21328 101.874C0.323278 99.2638 -1.37669 93.9438 1.87331 88.4538C3.68331 85.3838 5.5533 82.3538 7.4233 79.3138C9.7233 75.5638 9.85331 71.8438 7.43331 68.0838C5.39331 64.9138 3.36329 61.7237 1.41329 58.4937C-1.57671 53.5337 0.3333 47.6937 5.6733 45.4237C9.2433 43.9037 12.8633 42.4738 16.4233 40.9338C20.3933 39.2137 22.3133 36.1138 22.4933 31.8138C22.6433 28.2538 22.9133 24.7038 23.1633 21.1538C23.5633 15.4738 28.2133 11.7738 33.8033 12.8138C37.8233 13.5638 41.8133 14.5238 45.8133 15.4038C49.7733 16.2638 53.0733 15.1537 55.6933 12.0737C58.0633 9.27375 60.3933 6.43375 62.7533 3.63375C66.8533 -1.21625 72.9133 -1.20625 77.1233 3.63375C79.3933 6.24375 81.8233 8.73375 83.9333 11.4637C86.9333 15.3537 90.8333 15.9137 95.2233 14.9338C98.8133 14.1337 102.343 13.1038 105.943 12.3638C111.693 11.1838 116.193 14.4938 116.833 20.3138C117.273 24.2638 117.603 28.2338 117.923 32.2038C118.243 36.1838 120.353 38.7738 123.983 40.2537C127.483 41.6737 131.013 43.0338 134.463 44.5538C140.453 47.1838 142.173 52.6238 138.833 58.2238C137.063 61.1938 135.193 64.1038 133.403 67.0538C131.003 71.0138 130.903 74.8838 133.623 78.8238C135.653 81.7538 137.493 84.8038 139.313 87.8638C142.363 92.9938 140.673 98.4037 135.203 100.944C131.873 102.484 128.513 104.034 125.043 105.224C120.523 106.774 118.643 110.064 118.223 114.454C117.883 118.104 117.803 121.774 117.503 125.424C117.093 130.434 113.503 133.794 107.433 133.834Z" fill="#F8B114"/>
</svg>
