<svg width="159" height="134" viewBox="0 0 159 134" fill="none" xmlns="http://www.w3.org/2000/svg">
<path d="M37.7446 28.83C36.9346 25.78 36.0946 22.74 35.3546 19.67C35.1246 18.7 35.0746 17.66 35.1146 16.66C35.2046 13.89 36.5946 12.8 39.0646 14.09C42.3446 15.8 45.3346 18.07 48.4746 20.06C52.0846 22.35 55.6046 24.83 59.4046 26.78C62.2146 28.23 64.9746 27.05 66.3246 24.11C68.0046 20.44 69.3346 16.62 70.8246 12.86C71.6646 10.75 72.3646 8.56 73.3746 6.53C75.0646 3.12 77.3346 2.74999 79.8746 5.54999C81.7346 7.59999 83.2346 9.95999 84.9046 12.18C87.4846 15.6 89.8646 19.19 92.7146 22.37C95.1846 25.11 97.8346 25.45 100.915 23.45C104.235 21.3 107.275 18.7 110.285 16.12C115.945 11.27 121.465 6.25 127.135 1.41C128.015 0.660004 129.355 0.46 130.485 0C130.505 1.2 130.825 2.48999 130.485 3.57999C128.495 9.96999 126.315 16.3 124.275 22.68C122.755 27.43 121.205 32.17 119.945 36.99C118.865 41.12 120.495 43.49 124.765 43.67C129.935 43.89 135.125 43.59 140.295 43.48C145.405 43.37 150.515 43.23 155.635 43.11C156.075 43.1 156.555 43.07 156.955 43.22C157.625 43.48 158.235 43.87 158.865 44.21C158.515 44.78 158.285 45.52 157.795 45.91C156.355 47.04 154.855 48.11 153.295 49.07C147.655 52.55 141.965 55.96 136.335 59.45C135.265 60.11 134.265 60.92 133.375 61.8C130.525 64.63 130.415 66.65 133.455 69.33C136.145 71.7 139.145 73.73 142.095 75.79C146.485 78.87 151.005 81.79 155.345 84.94C156.405 85.71 156.975 87.15 157.765 88.29C156.465 88.82 155.195 89.74 153.875 89.82C146.365 90.29 138.845 90.51 131.335 90.9C125.975 91.18 120.605 91.44 115.265 91.96C111.165 92.36 107.625 94.73 107.405 99.51C107.155 105.11 107.155 110.72 106.945 116.32C106.815 119.78 106.785 123.29 106.215 126.69C105.615 130.31 103.235 131.32 100.095 129.34C96.1446 126.85 92.4146 124.03 88.5846 121.35C86.1046 119.61 83.7246 117.71 81.1246 116.17C75.4146 112.79 71.6246 114.18 66.9246 119.19C63.5946 122.74 60.5146 126.51 57.2746 130.13C56.4346 131.07 55.4846 131.93 54.4746 132.66C52.4846 134.09 50.9846 133.59 50.3546 131.21C49.9246 129.58 49.7746 127.85 49.6246 126.16C49.3646 123.39 49.2946 120.61 48.9846 117.85C48.5346 113.89 46.4346 112.37 42.8746 114.02C38.6646 115.98 34.7346 118.56 30.7246 120.95C25.7946 123.89 20.9346 126.95 15.9846 129.85C15.2846 130.26 14.2546 130.1 13.3746 130.2C13.4246 129.3 13.2046 128.26 13.5646 127.51C16.1346 122.16 18.8746 116.9 21.4446 111.55C23.0546 108.2 24.6846 104.83 25.8746 101.32C27.0146 97.97 25.7046 95.71 22.2246 94.9C17.8146 93.88 13.3046 93.28 8.84459 92.48C6.91459 92.14 4.97459 91.86 3.09459 91.35C2.25459 91.13 1.55459 90.42 0.784588 89.94C1.34459 89.09 1.7046 87.93 2.4846 87.44C5.4746 85.57 8.6346 83.97 11.6746 82.16C13.9946 80.77 16.4146 79.45 18.4346 77.69C21.1746 75.3 21.4746 72.58 19.1646 69.8C15.8746 65.83 12.2046 62.17 8.6746 58.39C6.3046 55.85 3.9146 53.35 1.5446 50.82C1.3346 50.59 1.14459 50.33 0.97459 50.07C-0.85541 47.13 -0.135395 45.48 3.3646 45.35C9.6746 45.13 15.9946 45.25 22.3046 45.09C25.8346 45 29.3846 44.84 32.8746 44.36C37.5646 43.71 39.5746 41.06 39.1146 36.31C38.8646 33.81 38.1746 31.35 37.6846 28.87C37.6646 28.85 37.7046 28.84 37.7446 28.83Z" fill="#E8511B"/>
<path d="M63.1546 60.87C62.5846 60.44 61.8646 60.35 60.9746 60.58C59.5946 60.94 58.4546 62.28 57.5946 64.54C56.6846 66.92 55.8946 69.7 55.2546 72.79C54.9646 73.9 54.8446 74.38 54.7946 74.58L54.7546 74.75C54.6746 75.12 54.4346 75.38 54.0546 75.48C53.8646 75.53 53.6946 75.52 53.5346 75.45C53.3646 75.37 53.2346 75.21 53.1846 75.01C53.1446 74.85 53.1646 74.72 53.1946 74.62L53.5146 72.8C53.9046 70.74 54.1746 68.98 54.3146 67.58C54.4546 66.2 54.4246 65.07 54.1946 64.23C53.8746 63.03 53.1746 62.64 51.9046 62.97C50.8746 63.24 49.9946 63.94 49.2846 65.04C48.5346 66.21 47.9246 67.48 47.4946 68.83C47.0446 70.21 46.5846 71.9 46.1146 73.86C45.8646 74.99 45.6446 75.85 45.4746 76.42C45.2446 77.17 44.9946 77.53 44.6346 77.63C44.3846 77.7 44.2046 77.64 44.1046 77.58C44.0046 77.52 43.8746 77.41 43.8246 77.2L43.8046 77.13L43.8146 76.91C44.3446 74.36 44.7046 72.31 44.8946 70.74C45.0846 69.22 45.0446 67.95 44.7846 66.96C44.6046 66.28 44.3146 65.84 43.8846 65.61C43.6546 65.49 43.3746 65.42 43.0446 65.42C42.7646 65.42 42.4546 65.47 42.1146 65.56C40.7146 65.93 39.4846 67.14 38.4646 69.17C37.4046 71.26 36.7046 73.73 36.3846 76.5C36.0646 79.27 36.1846 81.75 36.7446 83.88C37.2146 85.67 38.0046 87.02 39.0846 87.89C40.1446 88.74 41.4546 88.94 43.1046 88.5C44.0746 88.24 44.9746 87.7 45.7746 86.89C46.6046 86.05 47.4646 84.91 48.3146 83.49L48.7646 82.75L49.1046 83.55C49.4946 84.46 50.1046 85.1 50.9746 85.49C51.8546 85.89 52.8346 85.93 53.9846 85.63C56.3546 85 58.4646 83.3 60.2546 80.57C62.0746 77.79 63.3846 74.67 64.1446 71.3C64.9046 67.95 65.0146 65.19 64.4646 63.11C64.1946 62.07 63.7546 61.32 63.1546 60.87Z" fill="white"/>
<path d="M80.7446 57.13C79.9646 56.65 79.0246 56.4 77.9446 56.4C77.1946 56.4 76.3846 56.52 75.5046 56.75C72.9946 57.41 70.8746 58.86 69.2046 61.07C67.5146 63.3 66.3546 65.84 65.7746 68.62C65.1946 71.4 65.1946 73.92 65.7746 76.13C66.2546 77.93 67.1646 79.26 68.5046 80.09C69.8346 80.91 71.5946 81.04 73.7446 80.47C76.1646 79.83 78.2346 78.39 79.9046 76.19C81.6046 73.96 82.7746 71.4 83.3946 68.6C84.0146 65.8 84.0346 63.27 83.4646 61.1C82.9946 59.28 82.0746 57.95 80.7446 57.13ZM76.4346 63.87C75.9446 65.14 75.5446 66.39 75.2346 67.67C74.9246 68.95 74.7146 70.07 74.6246 71.01C74.5846 71.27 74.4746 72.02 73.8746 72.18C73.8046 72.2 73.7346 72.21 73.6646 72.21C73.5146 72.21 73.3946 72.16 73.3146 72.12C73.1146 72.01 72.9746 71.8 72.9046 71.51C72.8646 71.35 72.8446 71.19 72.8546 71.04C72.9746 69.98 73.1946 68.77 73.5246 67.41C73.8546 66.06 74.2746 64.74 74.7946 63.49C74.9646 63.12 75.1646 62.92 75.4246 62.86C75.6546 62.8 75.8846 62.83 76.0846 62.94C76.3346 63.09 76.4346 63.29 76.4646 63.43C76.4946 63.52 76.4846 63.64 76.4346 63.87Z" fill="white"/>
<path d="M87.8446 75.02C88.9046 75.87 90.2146 76.07 91.8646 75.63C92.8346 75.37 93.7346 74.83 94.5346 74.02C95.3646 73.18 96.2246 72.03 97.0746 70.62L97.5246 69.88L97.8646 70.68C98.2546 71.59 98.8646 72.23 99.7346 72.62C100.615 73.02 101.595 73.06 102.745 72.76C105.125 72.13 107.225 70.43 109.015 67.7C110.835 64.92 112.145 61.8 112.905 58.43C113.665 55.08 113.775 52.32 113.225 50.24C112.955 49.2 112.505 48.45 111.915 48C111.345 47.57 110.635 47.48 109.735 47.71C108.355 48.08 107.215 49.41 106.355 51.67C105.445 54.05 104.655 56.83 104.015 59.92C103.725 61.04 103.605 61.52 103.555 61.72L103.525 61.89C103.485 62.07 103.405 62.23 103.295 62.35V62.36C103.175 62.48 103.025 62.57 102.835 62.62C102.645 62.67 102.465 62.66 102.315 62.59C102.145 62.51 102.015 62.35 101.965 62.15C101.925 61.99 101.945 61.86 101.975 61.76L102.295 59.94C102.685 57.88 102.955 56.12 103.095 54.72C103.235 53.34 103.205 52.21 102.975 51.37C102.815 50.77 102.555 50.37 102.195 50.17C101.825 49.97 101.325 49.95 100.685 50.12C99.6446 50.39 98.7846 51.07 98.0646 52.19C97.3146 53.35 96.7046 54.63 96.2746 55.97C95.8246 57.35 95.3646 59.04 94.8946 61C94.6446 62.12 94.4346 62.98 94.2546 63.56C94.0246 64.31 93.7646 64.67 93.4146 64.77C93.1646 64.84 92.9846 64.78 92.8846 64.72C92.7846 64.66 92.6646 64.55 92.6046 64.34L92.5846 64.27L92.5946 64.05C93.1246 61.51 93.4846 59.46 93.6746 57.88C93.8646 56.36 93.8246 55.09 93.5646 54.1C93.3846 53.42 93.0946 52.98 92.6646 52.75C92.2346 52.52 91.6446 52.5 90.9046 52.7C89.5046 53.07 88.2746 54.28 87.2546 56.31C86.1946 58.41 85.4946 60.88 85.1746 63.64C84.8546 66.41 84.9746 68.89 85.5346 71.02C85.9846 72.81 86.7646 74.16 87.8446 75.02Z" fill="white"/>
</svg>
